<ttFont>
    <TTGlyph name=".notdef" xMin="85" yMin="-220" xMax="714" yMax="1030">
      <contour>
        <pt x="85" y="1030" on="1"/>
        <pt x="714" y="1030" on="1"/>
        <pt x="714" y="-220" on="1"/>
        <pt x="85" y="-220" on="1"/>
      </contour>
      <contour>
        <pt x="599" y="-112" on="1"/>
        <pt x="599" y="923" on="1"/>
        <pt x="200" y="923" on="1"/>
        <pt x="200" y="-112" on="1"/>
      </contour>
    </TTGlyph>
    <TTGlyph name="A" xMin="2" yMin="0" xMax="717" yMax="740">
      <contour>
        <pt x="2" y="8" on="1"/>
        <pt x="254" y="740" on="1"/>
        <pt x="465" y="740" on="1"/>
        <pt x="717" y="8" on="1"/>
        <pt x="717" y="0" on="1"/>
        <pt x="579" y="0" on="1"/>
        <pt x="512" y="193" on="1"/>
        <pt x="206" y="193" on="1"/>
        <pt x="140" y="0" on="1"/>
        <pt x="2" y="0" on="1"/>
      </contour>
      <contour>
        <pt x="478" y="305" on="1"/>
        <pt x="411" y="501" on="1"/>
        <pt x="365" y="640" on="1"/>
        <pt x="353" y="640" on="1"/>
        <pt x="308" y="501" on="1"/>
        <pt x="240" y="305" on="1"/>
      </contour>
    </TTGlyph>
    <TTGlyph name="A.sc" xMin="6" yMin="0" xMax="651" yMax="577">
      <contour>
        <pt x="6" y="7" on="1"/>
        <pt x="228" y="577" on="1"/>
        <pt x="429" y="577" on="1"/>
        <pt x="651" y="7" on="1"/>
        <pt x="651" y="0" on="1"/>
        <pt x="519" y="0" on="1"/>
        <pt x="464" y="136" on="1"/>
        <pt x="193" y="136" on="1"/>
        <pt x="138" y="0" on="1"/>
        <pt x="6" y="0" on="1"/>
      </contour>
      <contour>
        <pt x="435" y="228" on="1"/>
        <pt x="374" y="383" on="1"/>
        <pt x="334" y="484" on="1"/>
        <pt x="322" y="484" on="1"/>
        <pt x="282" y="382" on="1"/>
        <pt x="220" y="228" on="1"/>
      </contour>
    </TTGlyph>
    <TTGlyph name="AE" xMin="-1" yMin="0" xMax="908" yMax="740">
      <contour>
        <pt x="-1" y="9" on="1"/>
        <pt x="298" y="740" on="1"/>
        <pt x="895" y="740" on="1"/>
        <pt x="895" y="628" on="1"/>
        <pt x="573" y="628" on="1"/>
        <pt x="584" y="429" on="1"/>
        <pt x="875" y="429" on="1"/>
        <pt x="875" y="317" on="1"/>
        <pt x="591" y="317" on="1"/>
        <pt x="603" y="112" on="1"/>
        <pt x="908" y="112" on="1"/>
        <pt x="908" y="0" on="1"/>
        <pt x="462" y="0" on="1"/>
        <pt x="454" y="191" on="1"/>
        <pt x="216" y="191" on="1"/>
        <pt x="138" y="0" on="1"/>
        <pt x="-1" y="0" on="1"/>
      </contour>
      <contour>
        <pt x="263" y="307" on="1"/>
        <pt x="449" y="307" on="1"/>
        <pt x="436" y="637" on="1"/>
        <pt x="398" y="637" on="1"/>
      </contour>
    </TTGlyph>
    <TTGlyph name="AE.sc" xMin="5" yMin="0" xMax="827" yMax="577">
      <contour>
        <pt x="5" y="8" on="1"/>
        <pt x="272" y="577" on="1"/>
        <pt x="814" y="577" on="1"/>
        <pt x="814" y="475" on="1"/>
        <pt x="529" y="475" on="1"/>
        <pt x="537" y="336" on="1"/>
        <pt x="798" y="336" on="1"/>
        <pt x="798" y="246" on="1"/>
        <pt x="546" y="246" on="1"/>
        <pt x="556" y="102" on="1"/>
        <pt x="827" y="102" on="1"/>
        <pt x="827" y="0" on="1"/>
        <pt x="421" y="0" on="1"/>
        <pt x="415" y="136" on="1"/>
        <pt x="200" y="136" on="1"/>
        <pt x="137" y="0" on="1"/>
        <pt x="5" y="0" on="1"/>
      </contour>
      <contour>
        <pt x="245" y="227" on="1"/>
        <pt x="410" y="227" on="1"/>
        <pt x="399" y="482" on="1"/>
        <pt x="367" y="482" on="1"/>
      </contour>
    </TTGlyph>
    <TTGlyph name="AEacute" xMin="-1" yMin="0" xMax="908" yMax="969">
      <contour>
        <pt x="479" y="809" on="1"/>
        <pt x="548" y="969" on="1"/>
        <pt x="692" y="969" on="1"/>
        <pt x="582" y="801" on="1"/>
      </contour>
      <contour>
        <pt x="-1" y="9" on="1"/>
        <pt x="298" y="740" on="1"/>
        <pt x="895" y="740" on="1"/>
        <pt x="895" y="628" on="1"/>
        <pt x="573" y="628" on="1"/>
        <pt x="584" y="429" on="1"/>
        <pt x="875" y="429" on="1"/>
        <pt x="875" y="317" on="1"/>
        <pt x="591" y="317" on="1"/>
        <pt x="603" y="112" on="1"/>
        <pt x="908" y="112" on="1"/>
        <pt x="908" y="0" on="1"/>
        <pt x="462" y="0" on="1"/>
        <pt x="454" y="191" on="1"/>
        <pt x="216" y="191" on="1"/>
        <pt x="138" y="0" on="1"/>
        <pt x="-1" y="0" on="1"/>
      </contour>
      <contour>
        <pt x="263" y="307" on="1"/>
        <pt x="449" y="307" on="1"/>
        <pt x="436" y="637" on="1"/>
        <pt x="398" y="637" on="1"/>
      </contour>
    </TTGlyph>
    <TTGlyph name="AEacute.sc" xMin="5" yMin="0" xMax="827" yMax="766">
      <contour>
        <pt x="5" y="8" on="1"/>
        <pt x="272" y="577" on="1"/>
        <pt x="814" y="577" on="1"/>
        <pt x="814" y="475" on="1"/>
        <pt x="529" y="475" on="1"/>
        <pt x="537" y="336" on="1"/>
        <pt x="798" y="336" on="1"/>
        <pt x="798" y="246" on="1"/>
        <pt x="546" y="246" on="1"/>
        <pt x="556" y="102" on="1"/>
        <pt x="827" y="102" on="1"/>
        <pt x="827" y="0" on="1"/>
        <pt x="421" y="0" on="1"/>
        <pt x="415" y="136" on="1"/>
        <pt x="200" y="136" on="1"/>
        <pt x="137" y="0" on="1"/>
        <pt x="5" y="0" on="1"/>
      </contour>
      <contour>
        <pt x="410" y="227" on="1"/>
        <pt x="399" y="482" on="1"/>
        <pt x="367" y="482" on="1"/>
        <pt x="245" y="227" on="1"/>
      </contour>
      <contour>
        <pt x="431" y="633" on="1"/>
        <pt x="492" y="766" on="1"/>
        <pt x="628" y="766" on="1"/>
        <pt x="529" y="626" on="1"/>
      </contour>
    </TTGlyph>
    <TTGlyph name="Aacute" xMin="2" yMin="0" xMax="717" yMax="969">
      <contour>
        <pt x="2" y="8" on="1"/>
        <pt x="254" y="740" on="1"/>
        <pt x="465" y="740" on="1"/>
        <pt x="717" y="8" on="1"/>
        <pt x="717" y="0" on="1"/>
        <pt x="579" y="0" on="1"/>
        <pt x="512" y="193" on="1"/>
        <pt x="206" y="193" on="1"/>
        <pt x="140" y="0" on="1"/>
        <pt x="2" y="0" on="1"/>
      </contour>
      <contour>
        <pt x="478" y="305" on="1"/>
        <pt x="411" y="501" on="1"/>
        <pt x="365" y="640" on="1"/>
        <pt x="353" y="640" on="1"/>
        <pt x="308" y="501" on="1"/>
        <pt x="240" y="305" on="1"/>
      </contour>
      <contour>
        <pt x="303" y="809" on="1"/>
        <pt x="372" y="969" on="1"/>
        <pt x="516" y="969" on="1"/>
        <pt x="406" y="801" on="1"/>
      </contour>
    </TTGlyph>
    <TTGlyph name="Aacute.sc" xMin="6" yMin="0" xMax="651" yMax="766">
      <contour>
        <pt x="6" y="7" on="1"/>
        <pt x="228" y="577" on="1"/>
        <pt x="429" y="577" on="1"/>
        <pt x="651" y="7" on="1"/>
        <pt x="651" y="0" on="1"/>
        <pt x="519" y="0" on="1"/>
        <pt x="464" y="136" on="1"/>
        <pt x="193" y="136" on="1"/>
        <pt x="138" y="0" on="1"/>
        <pt x="6" y="0" on="1"/>
      </contour>
      <contour>
        <pt x="435" y="232" on="1"/>
        <pt x="374" y="383" on="1"/>
        <pt x="334" y="484" on="1"/>
        <pt x="322" y="484" on="1"/>
        <pt x="282" y="382" on="1"/>
        <pt x="221" y="232" on="1"/>
      </contour>
      <contour>
        <pt x="276" y="633" on="1"/>
        <pt x="336" y="766" on="1"/>
        <pt x="472" y="766" on="1"/>
        <pt x="373" y="626" on="1"/>
      </contour>
    </TTGlyph>
    <TTGlyph name="Abreve" xMin="2" yMin="0" xMax="717" yMax="976">
      <contour>
        <pt x="2" y="8" on="1"/>
        <pt x="254" y="740" on="1"/>
        <pt x="465" y="740" on="1"/>
        <pt x="717" y="8" on="1"/>
        <pt x="717" y="0" on="1"/>
        <pt x="579" y="0" on="1"/>
        <pt x="512" y="193" on="1"/>
        <pt x="206" y="193" on="1"/>
        <pt x="140" y="0" on="1"/>
        <pt x="2" y="0" on="1"/>
      </contour>
      <contour>
        <pt x="478" y="305" on="1"/>
        <pt x="411" y="501" on="1"/>
        <pt x="365" y="640" on="1"/>
        <pt x="353" y="640" on="1"/>
        <pt x="308" y="501" on="1"/>
        <pt x="240" y="305" on="1"/>
      </contour>
      <contour>
        <pt x="360" y="810" on="1"/>
        <pt x="306" y="810" on="0"/>
        <pt x="229" y="835" on="0"/>
        <pt x="179" y="879" on="0"/>
        <pt x="156" y="940" on="0"/>
        <pt x="156" y="976" on="1"/>
        <pt x="252" y="976" on="1"/>
        <pt x="252" y="930" on="0"/>
        <pt x="302" y="882" on="0"/>
        <pt x="360" y="882" on="1"/>
        <pt x="418" y="882" on="0"/>
        <pt x="468" y="930" on="0"/>
        <pt x="468" y="976" on="1"/>
        <pt x="564" y="976" on="1"/>
        <pt x="564" y="902" on="0"/>
        <pt x="467" y="810" on="0"/>
      </contour>
    </TTGlyph>
    <TTGlyph name="Abreve.sc" xMin="6" yMin="0" xMax="651" yMax="769">
      <contour>
        <pt x="329" y="631" on="1"/>
        <pt x="279" y="631" on="0"/>
        <pt x="208" y="652" on="0"/>
        <pt x="163" y="689" on="0"/>
        <pt x="143" y="739" on="0"/>
        <pt x="143" y="769" on="1"/>
        <pt x="233" y="769" on="1"/>
        <pt x="233" y="733" on="0"/>
        <pt x="277" y="696" on="0"/>
        <pt x="329" y="696" on="1"/>
        <pt x="381" y="696" on="0"/>
        <pt x="424" y="733" on="0"/>
        <pt x="424" y="769" on="1"/>
        <pt x="514" y="769" on="1"/>
        <pt x="514" y="739" on="0"/>
        <pt x="494" y="688" on="0"/>
        <pt x="449" y="652" on="0"/>
        <pt x="379" y="631" on="0"/>
      </contour>
      <contour>
        <pt x="6" y="7" on="1"/>
        <pt x="228" y="577" on="1"/>
        <pt x="429" y="577" on="1"/>
        <pt x="651" y="7" on="1"/>
        <pt x="651" y="0" on="1"/>
        <pt x="519" y="0" on="1"/>
        <pt x="464" y="136" on="1"/>
        <pt x="193" y="136" on="1"/>
        <pt x="138" y="0" on="1"/>
        <pt x="6" y="0" on="1"/>
      </contour>
      <contour>
        <pt x="435" y="232" on="1"/>
        <pt x="374" y="383" on="1"/>
        <pt x="334" y="484" on="1"/>
        <pt x="322" y="484" on="1"/>
        <pt x="282" y="382" on="1"/>
        <pt x="221" y="232" on="1"/>
      </contour>
    </TTGlyph>
    <TTGlyph name="Acircumflex" xMin="2" yMin="0" xMax="717" yMax="979">
      <contour>
        <pt x="2" y="8" on="1"/>
        <pt x="254" y="740" on="1"/>
        <pt x="465" y="740" on="1"/>
        <pt x="717" y="8" on="1"/>
        <pt x="717" y="0" on="1"/>
        <pt x="579" y="0" on="1"/>
        <pt x="512" y="193" on="1"/>
        <pt x="206" y="193" on="1"/>
        <pt x="140" y="0" on="1"/>
        <pt x="2" y="0" on="1"/>
      </contour>
      <contour>
        <pt x="478" y="305" on="1"/>
        <pt x="411" y="501" on="1"/>
        <pt x="365" y="640" on="1"/>
        <pt x="353" y="640" on="1"/>
        <pt x="308" y="501" on="1"/>
        <pt x="240" y="305" on="1"/>
      </contour>
      <contour>
        <pt x="175" y="903" on="1"/>
        <pt x="360" y="979" on="1"/>
        <pt x="547" y="903" on="1"/>
        <pt x="547" y="805" on="1"/>
        <pt x="361" y="881" on="1"/>
        <pt x="175" y="805" on="1"/>
      </contour>
    </TTGlyph>
    <TTGlyph name="Acircumflex.sc" xMin="6" yMin="0" xMax="651" yMax="776">
      <contour>
        <pt x="6" y="7" on="1"/>
        <pt x="228" y="577" on="1"/>
        <pt x="429" y="577" on="1"/>
        <pt x="651" y="7" on="1"/>
        <pt x="651" y="0" on="1"/>
        <pt x="519" y="0" on="1"/>
        <pt x="464" y="136" on="1"/>
        <pt x="193" y="136" on="1"/>
        <pt x="138" y="0" on="1"/>
        <pt x="6" y="0" on="1"/>
      </contour>
      <contour>
        <pt x="435" y="232" on="1"/>
        <pt x="374" y="383" on="1"/>
        <pt x="334" y="484" on="1"/>
        <pt x="322" y="484" on="1"/>
        <pt x="282" y="382" on="1"/>
        <pt x="221" y="232" on="1"/>
      </contour>
      <contour>
        <pt x="160" y="715" on="1"/>
        <pt x="329" y="776" on="1"/>
        <pt x="500" y="715" on="1"/>
        <pt x="500" y="625" on="1"/>
        <pt x="330" y="685" on="1"/>
        <pt x="160" y="625" on="1"/>
      </contour>
    </TTGlyph>
    <TTGlyph name="Adblgrave" xMin="2" yMin="0" xMax="717" yMax="965">
      <contour>
        <pt x="2" y="8" on="1"/>
        <pt x="254" y="740" on="1"/>
        <pt x="465" y="740" on="1"/>
        <pt x="717" y="8" on="1"/>
        <pt x="717" y="0" on="1"/>
        <pt x="579" y="0" on="1"/>
        <pt x="512" y="193" on="1"/>
        <pt x="206" y="193" on="1"/>
        <pt x="140" y="0" on="1"/>
        <pt x="2" y="0" on="1"/>
      </contour>
      <contour>
        <pt x="478" y="305" on="1"/>
        <pt x="411" y="501" on="1"/>
        <pt x="365" y="640" on="1"/>
        <pt x="353" y="640" on="1"/>
        <pt x="308" y="501" on="1"/>
        <pt x="240" y="305" on="1"/>
      </contour>
      <contour>
        <pt x="212" y="798" on="1"/>
        <pt x="101" y="965" on="1"/>
        <pt x="238" y="965" on="1"/>
        <pt x="307" y="810" on="1"/>
      </contour>
      <contour>
        <pt x="402" y="798" on="1"/>
        <pt x="291" y="965" on="1"/>
        <pt x="427" y="965" on="1"/>
        <pt x="497" y="810" on="1"/>
      </contour>
    </TTGlyph>
    <TTGlyph name="Adblgrave.sc" xMin="6" yMin="0" xMax="651" yMax="765">
      <contour>
        <pt x="6" y="7" on="1"/>
        <pt x="228" y="577" on="1"/>
        <pt x="429" y="577" on="1"/>
        <pt x="651" y="7" on="1"/>
        <pt x="651" y="0" on="1"/>
        <pt x="519" y="0" on="1"/>
        <pt x="464" y="136" on="1"/>
        <pt x="193" y="136" on="1"/>
        <pt x="138" y="0" on="1"/>
        <pt x="6" y="0" on="1"/>
      </contour>
      <contour>
        <pt x="435" y="232" on="1"/>
        <pt x="374" y="383" on="1"/>
        <pt x="334" y="484" on="1"/>
        <pt x="322" y="484" on="1"/>
        <pt x="282" y="382" on="1"/>
        <pt x="221" y="232" on="1"/>
      </contour>
      <contour>
        <pt x="90" y="765" on="1"/>
        <pt x="221" y="765" on="1"/>
        <pt x="281" y="633" on="1"/>
        <pt x="190" y="624" on="1"/>
      </contour>
      <contour>
        <pt x="264" y="765" on="1"/>
        <pt x="395" y="765" on="1"/>
        <pt x="455" y="633" on="1"/>
        <pt x="364" y="624" on="1"/>
      </contour>
    </TTGlyph>
    <TTGlyph name="Adieresis" xMin="2" yMin="0" xMax="717" yMax="966">
      <contour>
        <pt x="2" y="8" on="1"/>
        <pt x="254" y="740" on="1"/>
        <pt x="465" y="740" on="1"/>
        <pt x="717" y="8" on="1"/>
        <pt x="717" y="0" on="1"/>
        <pt x="579" y="0" on="1"/>
        <pt x="512" y="193" on="1"/>
        <pt x="206" y="193" on="1"/>
        <pt x="140" y="0" on="1"/>
        <pt x="2" y="0" on="1"/>
      </contour>
      <contour>
        <pt x="478" y="305" on="1"/>
        <pt x="411" y="501" on="1"/>
        <pt x="365" y="640" on="1"/>
        <pt x="353" y="640" on="1"/>
        <pt x="308" y="501" on="1"/>
        <pt x="240" y="305" on="1"/>
      </contour>
      <contour>
        <pt x="220" y="810" on="1"/>
        <pt x="178" y="810" on="0"/>
        <pt x="140" y="846" on="0"/>
        <pt x="140" y="888" on="1"/>
        <pt x="140" y="929" on="0"/>
        <pt x="178" y="966" on="0"/>
        <pt x="220" y="966" on="1"/>
        <pt x="262" y="966" on="0"/>
        <pt x="300" y="928" on="0"/>
        <pt x="300" y="888" on="1"/>
        <pt x="300" y="847" on="0"/>
        <pt x="262" y="810" on="0"/>
      </contour>
      <contour>
        <pt x="498" y="810" on="1"/>
        <pt x="456" y="810" on="0"/>
        <pt x="419" y="846" on="0"/>
        <pt x="419" y="888" on="1"/>
        <pt x="419" y="929" on="0"/>
        <pt x="456" y="966" on="0"/>
        <pt x="498" y="966" on="1"/>
        <pt x="540" y="966" on="0"/>
        <pt x="578" y="928" on="0"/>
        <pt x="578" y="888" on="1"/>
        <pt x="578" y="847" on="0"/>
        <pt x="540" y="810" on="0"/>
      </contour>
    </TTGlyph>
    <TTGlyph name="Adieresis.sc" xMin="6" yMin="0" xMax="651" yMax="771">
      <contour>
        <pt x="203" y="628" on="1"/>
        <pt x="164" y="628" on="0"/>
        <pt x="128" y="661" on="0"/>
        <pt x="128" y="699" on="1"/>
        <pt x="128" y="737" on="0"/>
        <pt x="164" y="771" on="0"/>
        <pt x="203" y="771" on="1"/>
        <pt x="243" y="771" on="0"/>
        <pt x="278" y="736" on="0"/>
        <pt x="278" y="699" on="1"/>
        <pt x="278" y="662" on="0"/>
        <pt x="243" y="628" on="0"/>
      </contour>
      <contour>
        <pt x="454" y="628" on="1"/>
        <pt x="414" y="628" on="0"/>
        <pt x="379" y="661" on="0"/>
        <pt x="379" y="699" on="1"/>
        <pt x="379" y="737" on="0"/>
        <pt x="414" y="771" on="0"/>
        <pt x="454" y="771" on="1"/>
        <pt x="493" y="771" on="0"/>
        <pt x="529" y="736" on="0"/>
        <pt x="529" y="699" on="1"/>
        <pt x="529" y="662" on="0"/>
        <pt x="493" y="628" on="0"/>
      </contour>
      <contour>
        <pt x="6" y="7" on="1"/>
        <pt x="228" y="577" on="1"/>
        <pt x="429" y="577" on="1"/>
        <pt x="651" y="7" on="1"/>
        <pt x="651" y="0" on="1"/>
        <pt x="519" y="0" on="1"/>
        <pt x="464" y="136" on="1"/>
        <pt x="193" y="136" on="1"/>
        <pt x="138" y="0" on="1"/>
        <pt x="6" y="0" on="1"/>
      </contour>
      <contour>
        <pt x="435" y="232" on="1"/>
        <pt x="374" y="383" on="1"/>
        <pt x="334" y="484" on="1"/>
        <pt x="322" y="484" on="1"/>
        <pt x="282" y="382" on="1"/>
        <pt x="221" y="232" on="1"/>
      </contour>
    </TTGlyph>
    <TTGlyph name="Agrave" xMin="2" yMin="0" xMax="717" yMax="969">
      <contour>
        <pt x="2" y="8" on="1"/>
        <pt x="254" y="740" on="1"/>
        <pt x="465" y="740" on="1"/>
        <pt x="717" y="8" on="1"/>
        <pt x="717" y="0" on="1"/>
        <pt x="579" y="0" on="1"/>
        <pt x="512" y="193" on="1"/>
        <pt x="206" y="193" on="1"/>
        <pt x="140" y="0" on="1"/>
        <pt x="2" y="0" on="1"/>
      </contour>
      <contour>
        <pt x="478" y="305" on="1"/>
        <pt x="411" y="501" on="1"/>
        <pt x="365" y="640" on="1"/>
        <pt x="353" y="640" on="1"/>
        <pt x="308" y="501" on="1"/>
        <pt x="240" y="305" on="1"/>
      </contour>
      <contour>
        <pt x="300" y="801" on="1"/>
        <pt x="189" y="969" on="1"/>
        <pt x="333" y="969" on="1"/>
        <pt x="402" y="813" on="1"/>
      </contour>
    </TTGlyph>
    <TTGlyph name="Agrave.sc" xMin="6" yMin="0" xMax="651" yMax="766">
      <contour>
        <pt x="6" y="7" on="1"/>
        <pt x="228" y="577" on="1"/>
        <pt x="429" y="577" on="1"/>
        <pt x="651" y="7" on="1"/>
        <pt x="651" y="0" on="1"/>
        <pt x="519" y="0" on="1"/>
        <pt x="464" y="136" on="1"/>
        <pt x="193" y="136" on="1"/>
        <pt x="138" y="0" on="1"/>
        <pt x="6" y="0" on="1"/>
      </contour>
      <contour>
        <pt x="435" y="232" on="1"/>
        <pt x="374" y="383" on="1"/>
        <pt x="334" y="484" on="1"/>
        <pt x="322" y="484" on="1"/>
        <pt x="282" y="382" on="1"/>
        <pt x="221" y="232" on="1"/>
      </contour>
      <contour>
        <pt x="271" y="626" on="1"/>
        <pt x="171" y="766" on="1"/>
        <pt x="308" y="766" on="1"/>
        <pt x="367" y="635" on="1"/>
      </contour>
    </TTGlyph>
    <TTGlyph name="Ainvertedbreve" xMin="2" yMin="0" xMax="717" yMax="983">
      <contour>
        <pt x="2" y="8" on="1"/>
        <pt x="254" y="740" on="1"/>
        <pt x="465" y="740" on="1"/>
        <pt x="717" y="8" on="1"/>
        <pt x="717" y="0" on="1"/>
        <pt x="579" y="0" on="1"/>
        <pt x="512" y="193" on="1"/>
        <pt x="206" y="193" on="1"/>
        <pt x="140" y="0" on="1"/>
        <pt x="2" y="0" on="1"/>
      </contour>
      <contour>
        <pt x="478" y="305" on="1"/>
        <pt x="411" y="501" on="1"/>
        <pt x="365" y="640" on="1"/>
        <pt x="353" y="640" on="1"/>
        <pt x="308" y="501" on="1"/>
        <pt x="240" y="305" on="1"/>
      </contour>
      <contour>
        <pt x="467" y="817" on="1"/>
        <pt x="467" y="863" on="0"/>
        <pt x="417" y="912" on="0"/>
        <pt x="359" y="912" on="1"/>
        <pt x="302" y="912" on="0"/>
        <pt x="251" y="863" on="0"/>
        <pt x="251" y="817" on="1"/>
        <pt x="156" y="817" on="1"/>
        <pt x="156" y="853" on="0"/>
        <pt x="179" y="914" on="0"/>
        <pt x="228" y="958" on="0"/>
        <pt x="305" y="983" on="0"/>
        <pt x="359" y="983" on="1"/>
        <pt x="413" y="983" on="0"/>
        <pt x="490" y="959" on="0"/>
        <pt x="540" y="915" on="0"/>
        <pt x="563" y="854" on="0"/>
        <pt x="563" y="817" on="1"/>
      </contour>
    </TTGlyph>
    <TTGlyph name="Ainvertedbreve.sc" xMin="6" yMin="0" xMax="651" yMax="775">
      <contour>
        <pt x="143" y="638" on="1"/>
        <pt x="143" y="667" on="0"/>
        <pt x="163" y="717" on="0"/>
        <pt x="208" y="754" on="0"/>
        <pt x="279" y="775" on="0"/>
        <pt x="329" y="775" on="1"/>
        <pt x="379" y="775" on="0"/>
        <pt x="449" y="755" on="0"/>
        <pt x="494" y="718" on="0"/>
        <pt x="514" y="668" on="0"/>
        <pt x="514" y="638" on="1"/>
        <pt x="424" y="638" on="1"/>
        <pt x="424" y="673" on="0"/>
        <pt x="381" y="710" on="0"/>
        <pt x="329" y="710" on="1"/>
        <pt x="277" y="710" on="0"/>
        <pt x="234" y="673" on="0"/>
        <pt x="234" y="638" on="1"/>
      </contour>
      <contour>
        <pt x="6" y="7" on="1"/>
        <pt x="228" y="577" on="1"/>
        <pt x="429" y="577" on="1"/>
        <pt x="651" y="7" on="1"/>
        <pt x="651" y="0" on="1"/>
        <pt x="519" y="0" on="1"/>
        <pt x="464" y="136" on="1"/>
        <pt x="193" y="136" on="1"/>
        <pt x="138" y="0" on="1"/>
        <pt x="6" y="0" on="1"/>
      </contour>
      <contour>
        <pt x="435" y="232" on="1"/>
        <pt x="374" y="383" on="1"/>
        <pt x="334" y="484" on="1"/>
        <pt x="322" y="484" on="1"/>
        <pt x="282" y="382" on="1"/>
        <pt x="221" y="232" on="1"/>
      </contour>
    </TTGlyph>
    <TTGlyph name="Amacron" xMin="2" yMin="0" xMax="717" yMax="937">
      <contour>
        <pt x="2" y="8" on="1"/>
        <pt x="254" y="740" on="1"/>
        <pt x="465" y="740" on="1"/>
        <pt x="717" y="8" on="1"/>
        <pt x="717" y="0" on="1"/>
        <pt x="579" y="0" on="1"/>
        <pt x="512" y="193" on="1"/>
        <pt x="206" y="193" on="1"/>
        <pt x="140" y="0" on="1"/>
        <pt x="2" y="0" on="1"/>
      </contour>
      <contour>
        <pt x="478" y="305" on="1"/>
        <pt x="411" y="501" on="1"/>
        <pt x="365" y="640" on="1"/>
        <pt x="353" y="640" on="1"/>
        <pt x="308" y="501" on="1"/>
        <pt x="240" y="305" on="1"/>
      </contour>
      <contour>
        <pt x="176" y="937" on="1"/>
        <pt x="542" y="937" on="1"/>
        <pt x="542" y="841" on="1"/>
        <pt x="176" y="841" on="1"/>
      </contour>
    </TTGlyph>
    <TTGlyph name="Amacron.sc" xMin="6" yMin="0" xMax="651" yMax="744">
      <contour>
        <pt x="6" y="7" on="1"/>
        <pt x="228" y="577" on="1"/>
        <pt x="429" y="577" on="1"/>
        <pt x="651" y="7" on="1"/>
        <pt x="651" y="0" on="1"/>
        <pt x="519" y="0" on="1"/>
        <pt x="464" y="136" on="1"/>
        <pt x="193" y="136" on="1"/>
        <pt x="138" y="0" on="1"/>
        <pt x="6" y="0" on="1"/>
      </contour>
      <contour>
        <pt x="435" y="232" on="1"/>
        <pt x="374" y="383" on="1"/>
        <pt x="334" y="484" on="1"/>
        <pt x="322" y="484" on="1"/>
        <pt x="282" y="382" on="1"/>
        <pt x="221" y="232" on="1"/>
      </contour>
      <contour>
        <pt x="161" y="744" on="1"/>
        <pt x="495" y="744" on="1"/>
        <pt x="495" y="656" on="1"/>
        <pt x="161" y="656" on="1"/>
      </contour>
    </TTGlyph>
    <TTGlyph name="Aogonek" xMin="2" yMin="-220" xMax="717" yMax="740">
      <contour>
        <pt x="635" y="-220" on="1"/>
        <pt x="572" y="-220" on="0"/>
        <pt x="506" y="-175" on="0"/>
        <pt x="506" y="-130" on="1"/>
        <pt x="506" y="-59" on="0"/>
        <pt x="603" y="0" on="1"/>
        <pt x="579" y="0" on="1"/>
        <pt x="512" y="193" on="1"/>
        <pt x="206" y="193" on="1"/>
        <pt x="140" y="0" on="1"/>
        <pt x="2" y="0" on="1"/>
        <pt x="2" y="8" on="1"/>
        <pt x="254" y="740" on="1"/>
        <pt x="465" y="740" on="1"/>
        <pt x="717" y="8" on="1"/>
        <pt x="717" y="-13" on="1"/>
        <pt x="652" y="-41" on="0"/>
        <pt x="598" y="-90" on="0"/>
        <pt x="598" y="-114" on="1"/>
        <pt x="598" y="-143" on="0"/>
        <pt x="637" y="-143" on="1"/>
        <pt x="651" y="-143" on="0"/>
        <pt x="697" y="-135" on="0"/>
        <pt x="717" y="-130" on="1"/>
        <pt x="717" y="-208" on="1"/>
        <pt x="681" y="-220" on="0"/>
      </contour>
      <contour>
        <pt x="478" y="305" on="1"/>
        <pt x="411" y="501" on="1"/>
        <pt x="365" y="640" on="1"/>
        <pt x="353" y="640" on="1"/>
        <pt x="308" y="501" on="1"/>
        <pt x="240" y="305" on="1"/>
      </contour>
    </TTGlyph>
    <TTGlyph name="Aogonek.sc" xMin="5" yMin="-170" xMax="650" yMax="577">
      <contour>
        <pt x="575" y="-170" on="1"/>
        <pt x="517" y="-170" on="0"/>
        <pt x="457" y="-132" on="0"/>
        <pt x="457" y="-98" on="1"/>
        <pt x="457" y="-72" on="0"/>
        <pt x="496" y="-20" on="0"/>
        <pt x="534" y="0" on="1"/>
        <pt x="518" y="0" on="1"/>
        <pt x="463" y="136" on="1"/>
        <pt x="192" y="136" on="1"/>
        <pt x="137" y="0" on="1"/>
        <pt x="5" y="0" on="1"/>
        <pt x="5" y="7" on="1"/>
        <pt x="227" y="577" on="1"/>
        <pt x="428" y="577" on="1"/>
        <pt x="650" y="7" on="1"/>
        <pt x="650" y="-7" on="1"/>
        <pt x="618" y="-18" on="0"/>
        <pt x="577" y="-38" on="0"/>
        <pt x="553" y="-55" on="0"/>
        <pt x="544" y="-71" on="0"/>
        <pt x="544" y="-78" on="1"/>
        <pt x="544" y="-90" on="0"/>
        <pt x="560" y="-98" on="0"/>
        <pt x="576" y="-98" on="1"/>
        <pt x="590" y="-98" on="0"/>
        <pt x="636" y="-93" on="0"/>
        <pt x="650" y="-88" on="1"/>
        <pt x="650" y="-161" on="1"/>
        <pt x="614" y="-170" on="0"/>
      </contour>
      <contour>
        <pt x="433" y="232" on="1"/>
        <pt x="373" y="385" on="1"/>
        <pt x="333" y="484" on="1"/>
        <pt x="321" y="484" on="1"/>
        <pt x="282" y="384" on="1"/>
        <pt x="220" y="232" on="1"/>
      </contour>
    </TTGlyph>
    <TTGlyph name="Aring" xMin="2" yMin="0" xMax="717" yMax="1003">
      <contour>
        <pt x="2" y="8" on="1"/>
        <pt x="254" y="740" on="1"/>
        <pt x="465" y="740" on="1"/>
        <pt x="717" y="8" on="1"/>
        <pt x="717" y="0" on="1"/>
        <pt x="579" y="0" on="1"/>
        <pt x="512" y="193" on="1"/>
        <pt x="206" y="193" on="1"/>
        <pt x="140" y="0" on="1"/>
        <pt x="2" y="0" on="1"/>
      </contour>
      <contour>
        <pt x="478" y="305" on="1"/>
        <pt x="411" y="501" on="1"/>
        <pt x="365" y="640" on="1"/>
        <pt x="353" y="640" on="1"/>
        <pt x="308" y="501" on="1"/>
        <pt x="240" y="305" on="1"/>
      </contour>
      <contour>
        <pt x="360" y="778" on="1"/>
        <pt x="332" y="778" on="0"/>
        <pt x="285" y="795" on="0"/>
        <pt x="250" y="825" on="0"/>
        <pt x="231" y="866" on="0"/>
        <pt x="231" y="890" on="1"/>
        <pt x="231" y="914" on="0"/>
        <pt x="250" y="956" on="0"/>
        <pt x="285" y="986" on="0"/>
        <pt x="332" y="1003" on="0"/>
        <pt x="360" y="1003" on="1"/>
        <pt x="388" y="1003" on="0"/>
        <pt x="435" y="986" on="0"/>
        <pt x="469" y="956" on="0"/>
        <pt x="488" y="914" on="0"/>
        <pt x="488" y="890" on="1"/>
        <pt x="488" y="841" on="0"/>
        <pt x="416" y="778" on="0"/>
      </contour>
      <contour>
        <pt x="360" y="831" on="1"/>
        <pt x="395" y="831" on="0"/>
        <pt x="427" y="861" on="0"/>
        <pt x="427" y="890" on="1"/>
        <pt x="427" y="919" on="0"/>
        <pt x="395" y="949" on="0"/>
        <pt x="360" y="949" on="1"/>
        <pt x="292" y="949" on="0"/>
        <pt x="292" y="890" on="1"/>
        <pt x="292" y="831" on="0"/>
      </contour>
    </TTGlyph>
    <TTGlyph name="Aring.sc" xMin="6" yMin="0" xMax="651" yMax="794">
      <contour>
        <pt x="6" y="7" on="1"/>
        <pt x="228" y="577" on="1"/>
        <pt x="429" y="577" on="1"/>
        <pt x="651" y="7" on="1"/>
        <pt x="651" y="0" on="1"/>
        <pt x="519" y="0" on="1"/>
        <pt x="464" y="136" on="1"/>
        <pt x="193" y="136" on="1"/>
        <pt x="138" y="0" on="1"/>
        <pt x="6" y="0" on="1"/>
      </contour>
      <contour>
        <pt x="435" y="232" on="1"/>
        <pt x="374" y="383" on="1"/>
        <pt x="334" y="484" on="1"/>
        <pt x="322" y="484" on="1"/>
        <pt x="282" y="382" on="1"/>
        <pt x="221" y="232" on="1"/>
      </contour>
      <contour>
        <pt x="329" y="615" on="1"/>
        <pt x="279" y="615" on="0"/>
        <pt x="213" y="664" on="0"/>
        <pt x="213" y="704" on="1"/>
        <pt x="213" y="743" on="0"/>
        <pt x="279" y="794" on="0"/>
        <pt x="329" y="794" on="1"/>
        <pt x="380" y="794" on="0"/>
        <pt x="445" y="743" on="0"/>
        <pt x="445" y="704" on="1"/>
        <pt x="445" y="664" on="0"/>
        <pt x="380" y="615" on="0"/>
      </contour>
      <contour>
        <pt x="329" y="661" on="1"/>
        <pt x="361" y="661" on="0"/>
        <pt x="388" y="682" on="0"/>
        <pt x="388" y="704" on="1"/>
        <pt x="388" y="726" on="0"/>
        <pt x="361" y="747" on="0"/>
        <pt x="329" y="747" on="1"/>
        <pt x="297" y="747" on="0"/>
        <pt x="270" y="726" on="0"/>
        <pt x="270" y="704" on="1"/>
        <pt x="270" y="682" on="0"/>
        <pt x="297" y="661" on="0"/>
      </contour>
    </TTGlyph>
    <TTGlyph name="Aringacute" xMin="3" yMin="0" xMax="716" yMax="994">
      <contour>
        <pt x="3" y="8" on="1"/>
        <pt x="231" y="670" on="1"/>
        <pt x="194" y="701" on="0"/>
        <pt x="194" y="754" on="1"/>
        <pt x="194" y="805" on="0"/>
        <pt x="261" y="873" on="0"/>
        <pt x="318" y="883" on="1"/>
        <pt x="370" y="994" on="1"/>
        <pt x="514" y="994" on="1"/>
        <pt x="434" y="874" on="1"/>
        <pt x="477" y="859" on="0"/>
        <pt x="527" y="796" on="0"/>
        <pt x="527" y="754" on="1"/>
        <pt x="527" y="728" on="0"/>
        <pt x="506" y="684" on="0"/>
        <pt x="488" y="668" on="1"/>
        <pt x="716" y="8" on="1"/>
        <pt x="716" y="0" on="1"/>
        <pt x="579" y="0" on="1"/>
        <pt x="513" y="191" on="1"/>
        <pt x="205" y="191" on="1"/>
        <pt x="140" y="0" on="1"/>
        <pt x="3" y="0" on="1"/>
      </contour>
      <contour>
        <pt x="359" y="690" on="1"/>
        <pt x="396" y="690" on="0"/>
        <pt x="441" y="725" on="0"/>
        <pt x="441" y="754" on="1"/>
        <pt x="441" y="783" on="0"/>
        <pt x="396" y="818" on="0"/>
        <pt x="359" y="818" on="1"/>
        <pt x="323" y="818" on="0"/>
        <pt x="280" y="783" on="0"/>
        <pt x="280" y="754" on="1"/>
        <pt x="280" y="725" on="0"/>
        <pt x="323" y="690" on="0"/>
      </contour>
      <contour>
        <pt x="477" y="307" on="1"/>
        <pt x="411" y="501" on="1"/>
        <pt x="376" y="612" on="1"/>
        <pt x="343" y="612" on="1"/>
        <pt x="307" y="501" on="1"/>
        <pt x="241" y="307" on="1"/>
      </contour>
    </TTGlyph>
    <TTGlyph name="Aringacute.sc" xMin="7" yMin="0" xMax="651" yMax="786">
      <contour>
        <pt x="7" y="7" on="1"/>
        <pt x="208" y="526" on="1"/>
        <pt x="177" y="552" on="0"/>
        <pt x="177" y="590" on="1"/>
        <pt x="177" y="632" on="0"/>
        <pt x="237" y="689" on="0"/>
        <pt x="289" y="697" on="1"/>
        <pt x="334" y="786" on="1"/>
        <pt x="471" y="786" on="1"/>
        <pt x="399" y="688" on="1"/>
        <pt x="438" y="675" on="0"/>
        <pt x="483" y="624" on="0"/>
        <pt x="483" y="590" on="1"/>
        <pt x="483" y="570" on="0"/>
        <pt x="465" y="537" on="0"/>
        <pt x="449" y="524" on="1"/>
        <pt x="651" y="7" on="1"/>
        <pt x="651" y="0" on="1"/>
        <pt x="520" y="0" on="1"/>
        <pt x="464" y="136" on="1"/>
        <pt x="193" y="136" on="1"/>
        <pt x="138" y="0" on="1"/>
        <pt x="7" y="0" on="1"/>
      </contour>
      <contour>
        <pt x="329" y="543" on="1"/>
        <pt x="362" y="543" on="0"/>
        <pt x="401" y="569" on="0"/>
        <pt x="401" y="590" on="1"/>
        <pt x="401" y="613" on="0"/>
        <pt x="362" y="638" on="0"/>
        <pt x="329" y="638" on="1"/>
        <pt x="296" y="638" on="0"/>
        <pt x="258" y="613" on="0"/>
        <pt x="258" y="590" on="1"/>
        <pt x="258" y="568" on="0"/>
        <pt x="297" y="543" on="0"/>
      </contour>
      <contour>
        <pt x="436" y="232" on="1"/>
        <pt x="374" y="383" on="1"/>
        <pt x="342" y="470" on="1"/>
        <pt x="314" y="470" on="1"/>
        <pt x="283" y="382" on="1"/>
        <pt x="222" y="232" on="1"/>
      </contour>
    </TTGlyph>
    <TTGlyph name="Atilde" xMin="2" yMin="0" xMax="717" yMax="961">
      <contour>
        <pt x="2" y="8" on="1"/>
        <pt x="254" y="740" on="1"/>
        <pt x="465" y="740" on="1"/>
        <pt x="717" y="8" on="1"/>
        <pt x="717" y="0" on="1"/>
        <pt x="579" y="0" on="1"/>
        <pt x="512" y="193" on="1"/>
        <pt x="206" y="193" on="1"/>
        <pt x="140" y="0" on="1"/>
        <pt x="2" y="0" on="1"/>
      </contour>
      <contour>
        <pt x="478" y="305" on="1"/>
        <pt x="411" y="501" on="1"/>
        <pt x="365" y="640" on="1"/>
        <pt x="353" y="640" on="1"/>
        <pt x="308" y="501" on="1"/>
        <pt x="240" y="305" on="1"/>
      </contour>
      <contour>
        <pt x="143" y="858" on="1"/>
        <pt x="175" y="909" on="0"/>
        <pt x="252" y="961" on="0"/>
        <pt x="289" y="961" on="1"/>
        <pt x="314" y="961" on="0"/>
        <pt x="360" y="948" on="0"/>
        <pt x="405" y="933" on="0"/>
        <pt x="451" y="921" on="0"/>
        <pt x="475" y="921" on="1"/>
        <pt x="498" y="921" on="0"/>
        <pt x="542" y="938" on="0"/>
        <pt x="568" y="959" on="1"/>
        <pt x="591" y="929" on="1"/>
        <pt x="561" y="878" on="0"/>
        <pt x="481" y="826" on="0"/>
        <pt x="443" y="826" on="1"/>
        <pt x="419" y="826" on="0"/>
        <pt x="373" y="838" on="0"/>
        <pt x="328" y="853" on="0"/>
        <pt x="282" y="865" on="0"/>
        <pt x="259" y="865" on="1"/>
        <pt x="236" y="865" on="0"/>
        <pt x="192" y="849" on="0"/>
        <pt x="167" y="829" on="1"/>
      </contour>
    </TTGlyph>
    <TTGlyph name="Atilde.sc" xMin="6" yMin="0" xMax="651" yMax="762">
      <contour>
        <pt x="6" y="7" on="1"/>
        <pt x="228" y="577" on="1"/>
        <pt x="429" y="577" on="1"/>
        <pt x="651" y="7" on="1"/>
        <pt x="651" y="0" on="1"/>
        <pt x="519" y="0" on="1"/>
        <pt x="464" y="136" on="1"/>
        <pt x="193" y="136" on="1"/>
        <pt x="138" y="0" on="1"/>
        <pt x="6" y="0" on="1"/>
      </contour>
      <contour>
        <pt x="435" y="232" on="1"/>
        <pt x="374" y="383" on="1"/>
        <pt x="334" y="484" on="1"/>
        <pt x="322" y="484" on="1"/>
        <pt x="282" y="382" on="1"/>
        <pt x="221" y="232" on="1"/>
      </contour>
      <contour>
        <pt x="132" y="670" on="1"/>
        <pt x="160" y="716" on="0"/>
        <pt x="231" y="762" on="0"/>
        <pt x="265" y="762" on="1"/>
        <pt x="287" y="762" on="0"/>
        <pt x="329" y="753" on="0"/>
        <pt x="370" y="741" on="0"/>
        <pt x="411" y="732" on="0"/>
        <pt x="433" y="732" on="1"/>
        <pt x="453" y="732" on="0"/>
        <pt x="493" y="744" on="0"/>
        <pt x="518" y="761" on="1"/>
        <pt x="538" y="736" on="1"/>
        <pt x="509" y="690" on="0"/>
        <pt x="437" y="644" on="0"/>
        <pt x="403" y="644" on="1"/>
        <pt x="382" y="644" on="0"/>
        <pt x="340" y="653" on="0"/>
        <pt x="298" y="665" on="0"/>
        <pt x="256" y="674" on="0"/>
        <pt x="235" y="674" on="1"/>
        <pt x="214" y="674" on="0"/>
        <pt x="175" y="662" on="0"/>
        <pt x="152" y="645" on="1"/>
      </contour>
    </TTGlyph>
    <TTGlyph name="B" xMin="78" yMin="-10" xMax="657" yMax="750">
      <contour>
        <pt x="350" y="-10" on="1"/>
        <pt x="222" y="-10" on="0"/>
        <pt x="78" y="5" on="1"/>
        <pt x="78" y="735" on="1"/>
        <pt x="153" y="743" on="0"/>
        <pt x="273" y="750" on="0"/>
        <pt x="330" y="750" on="1"/>
        <pt x="490" y="750" on="0"/>
        <pt x="633" y="652" on="0"/>
        <pt x="633" y="544" on="1"/>
        <pt x="633" y="480" on="0"/>
        <pt x="568" y="395" on="0"/>
        <pt x="506" y="381" on="1"/>
        <pt x="506" y="377" on="1"/>
        <pt x="580" y="363" on="0"/>
        <pt x="657" y="272" on="0"/>
        <pt x="657" y="199" on="1"/>
        <pt x="657" y="93" on="0"/>
        <pt x="506" y="-10" on="0"/>
      </contour>
      <contour>
        <pt x="348" y="93" on="1"/>
        <pt x="434" y="93" on="0"/>
        <pt x="516" y="150" on="0"/>
        <pt x="516" y="211" on="1"/>
        <pt x="516" y="271" on="0"/>
        <pt x="440" y="327" on="0"/>
        <pt x="355" y="327" on="1"/>
        <pt x="213" y="327" on="1"/>
        <pt x="213" y="99" on="1"/>
        <pt x="233" y="95" on="0"/>
        <pt x="292" y="93" on="0"/>
      </contour>
      <contour>
        <pt x="346" y="422" on="1"/>
        <pt x="426" y="422" on="0"/>
        <pt x="492" y="473" on="0"/>
        <pt x="492" y="535" on="1"/>
        <pt x="492" y="596" on="0"/>
        <pt x="421" y="647" on="0"/>
        <pt x="338" y="647" on="1"/>
        <pt x="300" y="647" on="0"/>
        <pt x="239" y="644" on="0"/>
        <pt x="213" y="640" on="1"/>
        <pt x="213" y="422" on="1"/>
      </contour>
    </TTGlyph>
    <TTGlyph name="B.sc" xMin="74" yMin="-8" xMax="598" yMax="585">
      <contour>
        <pt x="324" y="-8" on="1"/>
        <pt x="264" y="-8" on="0"/>
        <pt x="142" y="-2" on="0"/>
        <pt x="74" y="4" on="1"/>
        <pt x="74" y="573" on="1"/>
        <pt x="141" y="579" on="0"/>
        <pt x="251" y="585" on="0"/>
        <pt x="304" y="585" on="1"/>
        <pt x="448" y="585" on="0"/>
        <pt x="577" y="508" on="0"/>
        <pt x="577" y="423" on="1"/>
        <pt x="577" y="374" on="0"/>
        <pt x="519" y="310" on="0"/>
        <pt x="463" y="298" on="1"/>
        <pt x="463" y="295" on="1"/>
        <pt x="529" y="284" on="0"/>
        <pt x="598" y="214" on="0"/>
        <pt x="598" y="157" on="1"/>
        <pt x="598" y="72" on="0"/>
        <pt x="464" y="-8" on="0"/>
      </contour>
      <contour>
        <pt x="322" y="85" on="1"/>
        <pt x="465" y="85" on="0"/>
        <pt x="465" y="169" on="1"/>
        <pt x="465" y="213" on="0"/>
        <pt x="400" y="251" on="0"/>
        <pt x="328" y="251" on="1"/>
        <pt x="203" y="251" on="1"/>
        <pt x="203" y="90" on="1"/>
        <pt x="220" y="87" on="0"/>
        <pt x="270" y="85" on="0"/>
      </contour>
      <contour>
        <pt x="318" y="333" on="1"/>
        <pt x="387" y="333" on="0"/>
        <pt x="444" y="369" on="0"/>
        <pt x="444" y="413" on="1"/>
        <pt x="444" y="457" on="0"/>
        <pt x="384" y="492" on="0"/>
        <pt x="311" y="492" on="1"/>
        <pt x="279" y="492" on="0"/>
        <pt x="226" y="490" on="0"/>
        <pt x="203" y="487" on="1"/>
        <pt x="203" y="333" on="1"/>
      </contour>
    </TTGlyph>
    <TTGlyph name="C" xMin="44" yMin="-11" xMax="564" yMax="751">
      <contour>
        <pt x="401" y="-11" on="1"/>
        <pt x="220" y="-11" on="0"/>
        <pt x="44" y="176" on="0"/>
        <pt x="44" y="369" on="1"/>
        <pt x="44" y="562" on="0"/>
        <pt x="218" y="751" on="0"/>
        <pt x="394" y="751" on="1"/>
        <pt x="428" y="751" on="0"/>
        <pt x="513" y="743" on="0"/>
        <pt x="564" y="735" on="1"/>
        <pt x="564" y="620" on="1"/>
        <pt x="536" y="624" on="0"/>
        <pt x="492" y="629" on="0"/>
        <pt x="456" y="632" on="0"/>
        <pt x="425" y="634" on="0"/>
        <pt x="410" y="634" on="1"/>
        <pt x="350" y="634" on="0"/>
        <pt x="265" y="606" on="0"/>
        <pt x="213" y="543" on="0"/>
        <pt x="189" y="442" on="0"/>
        <pt x="189" y="369" on="1"/>
        <pt x="189" y="297" on="0"/>
        <pt x="213" y="197" on="0"/>
        <pt x="264" y="134" on="0"/>
        <pt x="346" y="106" on="0"/>
        <pt x="405" y="106" on="1"/>
        <pt x="421" y="106" on="0"/>
        <pt x="465" y="109" on="0"/>
        <pt x="509" y="113" on="0"/>
        <pt x="550" y="120" on="0"/>
        <pt x="564" y="123" on="1"/>
        <pt x="564" y="9" on="1"/>
        <pt x="529" y="0" on="0"/>
        <pt x="439" y="-11" on="0"/>
      </contour>
    </TTGlyph>
    <TTGlyph name="C.sc" xMin="43" yMin="-10" xMax="510" yMax="587">
      <contour>
        <pt x="366" y="-10" on="1"/>
        <pt x="201" y="-9" on="0"/>
        <pt x="43" y="137" on="0"/>
        <pt x="43" y="288" on="1"/>
        <pt x="43" y="587" on="0"/>
        <pt x="357" y="587" on="1"/>
        <pt x="392" y="587" on="0"/>
        <pt x="468" y="580" on="0"/>
        <pt x="510" y="575" on="1"/>
        <pt x="510" y="466" on="1"/>
        <pt x="467" y="471" on="0"/>
        <pt x="405" y="477" on="0"/>
        <pt x="373" y="477" on="1"/>
        <pt x="319" y="477" on="0"/>
        <pt x="246" y="458" on="0"/>
        <pt x="201" y="414" on="0"/>
        <pt x="182" y="341" on="0"/>
        <pt x="182" y="288" on="1"/>
        <pt x="182" y="235" on="0"/>
        <pt x="201" y="164" on="0"/>
        <pt x="244" y="121" on="0"/>
        <pt x="316" y="102" on="0"/>
        <pt x="369" y="102" on="1"/>
        <pt x="384" y="102" on="0"/>
        <pt x="422" y="104" on="0"/>
        <pt x="461" y="107" on="0"/>
        <pt x="498" y="111" on="0"/>
        <pt x="510" y="113" on="1"/>
        <pt x="510" y="5" on="1"/>
        <pt x="480" y="-1" on="0"/>
        <pt x="401" y="-10" on="0"/>
      </contour>
    </TTGlyph>
    <TTGlyph name="Cacute" xMin="44" yMin="-11" xMax="564" yMax="969">
      <contour>
        <pt x="401" y="-11" on="1"/>
        <pt x="220" y="-11" on="0"/>
        <pt x="44" y="176" on="0"/>
        <pt x="44" y="369" on="1"/>
        <pt x="44" y="562" on="0"/>
        <pt x="218" y="751" on="0"/>
        <pt x="394" y="751" on="1"/>
        <pt x="428" y="751" on="0"/>
        <pt x="513" y="743" on="0"/>
        <pt x="564" y="735" on="1"/>
        <pt x="564" y="620" on="1"/>
        <pt x="536" y="624" on="0"/>
        <pt x="492" y="629" on="0"/>
        <pt x="456" y="632" on="0"/>
        <pt x="425" y="634" on="0"/>
        <pt x="410" y="634" on="1"/>
        <pt x="350" y="634" on="0"/>
        <pt x="265" y="606" on="0"/>
        <pt x="213" y="543" on="0"/>
        <pt x="189" y="442" on="0"/>
        <pt x="189" y="369" on="1"/>
        <pt x="189" y="297" on="0"/>
        <pt x="213" y="197" on="0"/>
        <pt x="264" y="134" on="0"/>
        <pt x="346" y="106" on="0"/>
        <pt x="405" y="106" on="1"/>
        <pt x="421" y="106" on="0"/>
        <pt x="465" y="109" on="0"/>
        <pt x="509" y="113" on="0"/>
        <pt x="550" y="120" on="0"/>
        <pt x="564" y="123" on="1"/>
        <pt x="564" y="9" on="1"/>
        <pt x="529" y="0" on="0"/>
        <pt x="439" y="-11" on="0"/>
      </contour>
      <contour>
        <pt x="288" y="809" on="1"/>
        <pt x="357" y="969" on="1"/>
        <pt x="501" y="969" on="1"/>
        <pt x="391" y="801" on="1"/>
      </contour>
    </TTGlyph>
    <TTGlyph name="Cacute.sc" xMin="43" yMin="-10" xMax="510" yMax="766">
      <contour>
        <pt x="365" y="-10" on="1"/>
        <pt x="201" y="-9" on="0"/>
        <pt x="43" y="136" on="0"/>
        <pt x="43" y="288" on="1"/>
        <pt x="43" y="587" on="0"/>
        <pt x="357" y="587" on="1"/>
        <pt x="417" y="587" on="0"/>
        <pt x="510" y="575" on="1"/>
        <pt x="510" y="466" on="1"/>
        <pt x="458" y="472" on="0"/>
        <pt x="398" y="477" on="0"/>
        <pt x="372" y="477" on="1"/>
        <pt x="319" y="477" on="0"/>
        <pt x="247" y="458" on="0"/>
        <pt x="202" y="415" on="0"/>
        <pt x="182" y="342" on="0"/>
        <pt x="182" y="288" on="1"/>
        <pt x="182" y="235" on="0"/>
        <pt x="202" y="164" on="0"/>
        <pt x="246" y="120" on="0"/>
        <pt x="317" y="102" on="0"/>
        <pt x="369" y="102" on="1"/>
        <pt x="383" y="102" on="0"/>
        <pt x="422" y="104" on="0"/>
        <pt x="461" y="107" on="0"/>
        <pt x="498" y="111" on="0"/>
        <pt x="510" y="113" on="1"/>
        <pt x="510" y="5" on="1"/>
        <pt x="478" y="-2" on="0"/>
        <pt x="399" y="-10" on="0"/>
      </contour>
      <contour>
        <pt x="258" y="633" on="1"/>
        <pt x="319" y="766" on="1"/>
        <pt x="455" y="766" on="1"/>
        <pt x="355" y="626" on="1"/>
      </contour>
    </TTGlyph>
    <TTGlyph name="Ccaron" xMin="44" yMin="-11" xMax="564" yMax="977">
      <contour>
        <pt x="401" y="-11" on="1"/>
        <pt x="220" y="-11" on="0"/>
        <pt x="44" y="176" on="0"/>
        <pt x="44" y="369" on="1"/>
        <pt x="44" y="562" on="0"/>
        <pt x="218" y="751" on="0"/>
        <pt x="394" y="751" on="1"/>
        <pt x="428" y="751" on="0"/>
        <pt x="513" y="743" on="0"/>
        <pt x="564" y="735" on="1"/>
        <pt x="564" y="620" on="1"/>
        <pt x="536" y="624" on="0"/>
        <pt x="492" y="629" on="0"/>
        <pt x="456" y="632" on="0"/>
        <pt x="425" y="634" on="0"/>
        <pt x="410" y="634" on="1"/>
        <pt x="350" y="634" on="0"/>
        <pt x="265" y="606" on="0"/>
        <pt x="213" y="543" on="0"/>
        <pt x="189" y="442" on="0"/>
        <pt x="189" y="369" on="1"/>
        <pt x="189" y="297" on="0"/>
        <pt x="213" y="197" on="0"/>
        <pt x="264" y="134" on="0"/>
        <pt x="346" y="106" on="0"/>
        <pt x="405" y="106" on="1"/>
        <pt x="421" y="106" on="0"/>
        <pt x="465" y="109" on="0"/>
        <pt x="509" y="113" on="0"/>
        <pt x="550" y="120" on="0"/>
        <pt x="564" y="123" on="1"/>
        <pt x="564" y="9" on="1"/>
        <pt x="529" y="0" on="0"/>
        <pt x="439" y="-11" on="0"/>
      </contour>
      <contour>
        <pt x="161" y="977" on="1"/>
        <pt x="347" y="901" on="1"/>
        <pt x="533" y="977" on="1"/>
        <pt x="533" y="879" on="1"/>
        <pt x="346" y="803" on="1"/>
        <pt x="161" y="879" on="1"/>
      </contour>
    </TTGlyph>
    <TTGlyph name="Ccaron.sc" xMin="43" yMin="-10" xMax="510" yMax="775">
      <contour>
        <pt x="365" y="-10" on="1"/>
        <pt x="201" y="-9" on="0"/>
        <pt x="43" y="136" on="0"/>
        <pt x="43" y="288" on="1"/>
        <pt x="43" y="587" on="0"/>
        <pt x="357" y="587" on="1"/>
        <pt x="417" y="587" on="0"/>
        <pt x="510" y="575" on="1"/>
        <pt x="510" y="466" on="1"/>
        <pt x="458" y="472" on="0"/>
        <pt x="398" y="477" on="0"/>
        <pt x="372" y="477" on="1"/>
        <pt x="319" y="477" on="0"/>
        <pt x="247" y="458" on="0"/>
        <pt x="202" y="415" on="0"/>
        <pt x="182" y="342" on="0"/>
        <pt x="182" y="288" on="1"/>
        <pt x="182" y="235" on="0"/>
        <pt x="202" y="164" on="0"/>
        <pt x="246" y="120" on="0"/>
        <pt x="317" y="102" on="0"/>
        <pt x="369" y="102" on="1"/>
        <pt x="383" y="102" on="0"/>
        <pt x="422" y="104" on="0"/>
        <pt x="461" y="107" on="0"/>
        <pt x="498" y="111" on="0"/>
        <pt x="510" y="113" on="1"/>
        <pt x="510" y="5" on="1"/>
        <pt x="478" y="-2" on="0"/>
        <pt x="399" y="-10" on="0"/>
      </contour>
      <contour>
        <pt x="145" y="775" on="1"/>
        <pt x="314" y="714" on="1"/>
        <pt x="484" y="775" on="1"/>
        <pt x="484" y="685" on="1"/>
        <pt x="313" y="625" on="1"/>
        <pt x="145" y="685" on="1"/>
      </contour>
    </TTGlyph>
    <TTGlyph name="Ccedilla" xMin="44" yMin="-220" xMax="564" yMax="751">
      <contour>
        <pt x="328" y="-220" on="1"/>
        <pt x="307" y="-220" on="0"/>
        <pt x="255" y="-213" on="0"/>
        <pt x="230" y="-208" on="1"/>
        <pt x="230" y="-124" on="1"/>
        <pt x="247" y="-129" on="0"/>
        <pt x="287" y="-135" on="0"/>
        <pt x="305" y="-135" on="1"/>
        <pt x="335" y="-135" on="0"/>
        <pt x="360" y="-114" on="0"/>
        <pt x="360" y="-92" on="1"/>
        <pt x="360" y="-75" on="0"/>
        <pt x="343" y="-33" on="0"/>
        <pt x="323" y="-6" on="1"/>
        <pt x="44" y="31" on="0"/>
        <pt x="44" y="369" on="1"/>
        <pt x="44" y="562" on="0"/>
        <pt x="218" y="751" on="0"/>
        <pt x="394" y="751" on="1"/>
        <pt x="428" y="751" on="0"/>
        <pt x="513" y="743" on="0"/>
        <pt x="564" y="735" on="1"/>
        <pt x="564" y="620" on="1"/>
        <pt x="536" y="624" on="0"/>
        <pt x="492" y="629" on="0"/>
        <pt x="456" y="632" on="0"/>
        <pt x="425" y="634" on="0"/>
        <pt x="410" y="634" on="1"/>
        <pt x="350" y="634" on="0"/>
        <pt x="265" y="606" on="0"/>
        <pt x="213" y="543" on="0"/>
        <pt x="189" y="442" on="0"/>
        <pt x="189" y="369" on="1"/>
        <pt x="189" y="297" on="0"/>
        <pt x="213" y="197" on="0"/>
        <pt x="264" y="134" on="0"/>
        <pt x="346" y="106" on="0"/>
        <pt x="405" y="106" on="1"/>
        <pt x="421" y="106" on="0"/>
        <pt x="465" y="109" on="0"/>
        <pt x="509" y="113" on="0"/>
        <pt x="550" y="120" on="0"/>
        <pt x="564" y="123" on="1"/>
        <pt x="564" y="9" on="1"/>
        <pt x="532" y="1" on="0"/>
        <pt x="453" y="-9" on="0"/>
        <pt x="417" y="-11" on="1"/>
        <pt x="438" y="-41" on="0"/>
        <pt x="454" y="-85" on="0"/>
        <pt x="454" y="-108" on="1"/>
        <pt x="454" y="-162" on="0"/>
        <pt x="387" y="-220" on="0"/>
      </contour>
    </TTGlyph>
    <TTGlyph name="Ccedilla.sc" xMin="43" yMin="-172" xMax="510" yMax="587">
      <contour>
        <pt x="301" y="-172" on="1"/>
        <pt x="282" y="-172" on="0"/>
        <pt x="235" y="-166" on="0"/>
        <pt x="211" y="-162" on="1"/>
        <pt x="211" y="-85" on="1"/>
        <pt x="228" y="-89" on="0"/>
        <pt x="265" y="-94" on="0"/>
        <pt x="281" y="-94" on="1"/>
        <pt x="307" y="-94" on="0"/>
        <pt x="325" y="-80" on="0"/>
        <pt x="325" y="-66" on="1"/>
        <pt x="325" y="-56" on="0"/>
        <pt x="313" y="-27" on="0"/>
        <pt x="299" y="-6" on="1"/>
        <pt x="43" y="19" on="0"/>
        <pt x="43" y="288" on="1"/>
        <pt x="43" y="587" on="0"/>
        <pt x="357" y="587" on="1"/>
        <pt x="417" y="587" on="0"/>
        <pt x="510" y="575" on="1"/>
        <pt x="510" y="466" on="1"/>
        <pt x="458" y="472" on="0"/>
        <pt x="399" y="477" on="0"/>
        <pt x="373" y="477" on="1"/>
        <pt x="320" y="477" on="0"/>
        <pt x="247" y="458" on="0"/>
        <pt x="202" y="415" on="0"/>
        <pt x="182" y="342" on="0"/>
        <pt x="182" y="288" on="1"/>
        <pt x="182" y="235" on="0"/>
        <pt x="202" y="164" on="0"/>
        <pt x="246" y="120" on="0"/>
        <pt x="317" y="102" on="0"/>
        <pt x="369" y="102" on="1"/>
        <pt x="383" y="102" on="0"/>
        <pt x="422" y="104" on="0"/>
        <pt x="461" y="107" on="0"/>
        <pt x="498" y="111" on="0"/>
        <pt x="510" y="113" on="1"/>
        <pt x="510" y="5" on="1"/>
        <pt x="482" y="0" on="0"/>
        <pt x="415" y="-8" on="0"/>
        <pt x="385" y="-9" on="1"/>
        <pt x="401" y="-32" on="0"/>
        <pt x="413" y="-66" on="0"/>
        <pt x="413" y="-84" on="1"/>
        <pt x="413" y="-126" on="0"/>
        <pt x="354" y="-172" on="0"/>
      </contour>
    </TTGlyph>
    <TTGlyph name="Ccircumflex" xMin="44" yMin="-11" xMax="564" yMax="979">
      <contour>
        <pt x="401" y="-11" on="1"/>
        <pt x="220" y="-11" on="0"/>
        <pt x="44" y="176" on="0"/>
        <pt x="44" y="369" on="1"/>
        <pt x="44" y="562" on="0"/>
        <pt x="218" y="751" on="0"/>
        <pt x="394" y="751" on="1"/>
        <pt x="428" y="751" on="0"/>
        <pt x="513" y="743" on="0"/>
        <pt x="564" y="735" on="1"/>
        <pt x="564" y="620" on="1"/>
        <pt x="536" y="624" on="0"/>
        <pt x="492" y="629" on="0"/>
        <pt x="456" y="632" on="0"/>
        <pt x="425" y="634" on="0"/>
        <pt x="410" y="634" on="1"/>
        <pt x="350" y="634" on="0"/>
        <pt x="265" y="606" on="0"/>
        <pt x="213" y="543" on="0"/>
        <pt x="189" y="442" on="0"/>
        <pt x="189" y="369" on="1"/>
        <pt x="189" y="297" on="0"/>
        <pt x="213" y="197" on="0"/>
        <pt x="264" y="134" on="0"/>
        <pt x="346" y="106" on="0"/>
        <pt x="405" y="106" on="1"/>
        <pt x="421" y="106" on="0"/>
        <pt x="465" y="109" on="0"/>
        <pt x="509" y="113" on="0"/>
        <pt x="550" y="120" on="0"/>
        <pt x="564" y="123" on="1"/>
        <pt x="564" y="9" on="1"/>
        <pt x="529" y="0" on="0"/>
        <pt x="439" y="-11" on="0"/>
      </contour>
      <contour>
        <pt x="159" y="903" on="1"/>
        <pt x="344" y="979" on="1"/>
        <pt x="531" y="903" on="1"/>
        <pt x="531" y="805" on="1"/>
        <pt x="345" y="881" on="1"/>
        <pt x="159" y="805" on="1"/>
      </contour>
    </TTGlyph>
    <TTGlyph name="Ccircumflex.sc" xMin="43" yMin="-10" xMax="510" yMax="776">
      <contour>
        <pt x="365" y="-10" on="1"/>
        <pt x="201" y="-9" on="0"/>
        <pt x="43" y="136" on="0"/>
        <pt x="43" y="288" on="1"/>
        <pt x="43" y="587" on="0"/>
        <pt x="357" y="587" on="1"/>
        <pt x="417" y="587" on="0"/>
        <pt x="510" y="575" on="1"/>
        <pt x="510" y="466" on="1"/>
        <pt x="458" y="472" on="0"/>
        <pt x="398" y="477" on="0"/>
        <pt x="372" y="477" on="1"/>
        <pt x="319" y="477" on="0"/>
        <pt x="247" y="458" on="0"/>
        <pt x="202" y="415" on="0"/>
        <pt x="182" y="342" on="0"/>
        <pt x="182" y="288" on="1"/>
        <pt x="182" y="235" on="0"/>
        <pt x="202" y="164" on="0"/>
        <pt x="246" y="120" on="0"/>
        <pt x="317" y="102" on="0"/>
        <pt x="369" y="102" on="1"/>
        <pt x="383" y="102" on="0"/>
        <pt x="422" y="104" on="0"/>
        <pt x="461" y="107" on="0"/>
        <pt x="498" y="111" on="0"/>
        <pt x="510" y="113" on="1"/>
        <pt x="510" y="5" on="1"/>
        <pt x="478" y="-2" on="0"/>
        <pt x="399" y="-10" on="0"/>
      </contour>
      <contour>
        <pt x="142" y="715" on="1"/>
        <pt x="311" y="776" on="1"/>
        <pt x="482" y="715" on="1"/>
        <pt x="482" y="625" on="1"/>
        <pt x="312" y="685" on="1"/>
        <pt x="142" y="625" on="1"/>
      </contour>
    </TTGlyph>
    <TTGlyph name="Cdotaccent" xMin="44" yMin="-11" xMax="564" yMax="962">
      <contour>
        <pt x="357" y="806" on="1"/>
        <pt x="315" y="806" on="0"/>
        <pt x="277" y="842" on="0"/>
        <pt x="277" y="884" on="1"/>
        <pt x="277" y="926" on="0"/>
        <pt x="315" y="962" on="0"/>
        <pt x="357" y="962" on="1"/>
        <pt x="399" y="962" on="0"/>
        <pt x="437" y="925" on="0"/>
        <pt x="437" y="884" on="1"/>
        <pt x="437" y="844" on="0"/>
        <pt x="399" y="806" on="0"/>
      </contour>
      <contour>
        <pt x="401" y="-11" on="1"/>
        <pt x="220" y="-11" on="0"/>
        <pt x="44" y="176" on="0"/>
        <pt x="44" y="369" on="1"/>
        <pt x="44" y="562" on="0"/>
        <pt x="218" y="751" on="0"/>
        <pt x="394" y="751" on="1"/>
        <pt x="428" y="751" on="0"/>
        <pt x="513" y="743" on="0"/>
        <pt x="564" y="735" on="1"/>
        <pt x="564" y="620" on="1"/>
        <pt x="536" y="624" on="0"/>
        <pt x="492" y="629" on="0"/>
        <pt x="456" y="632" on="0"/>
        <pt x="425" y="634" on="0"/>
        <pt x="410" y="634" on="1"/>
        <pt x="350" y="634" on="0"/>
        <pt x="265" y="606" on="0"/>
        <pt x="213" y="543" on="0"/>
        <pt x="189" y="442" on="0"/>
        <pt x="189" y="369" on="1"/>
        <pt x="189" y="297" on="0"/>
        <pt x="213" y="197" on="0"/>
        <pt x="264" y="134" on="0"/>
        <pt x="346" y="106" on="0"/>
        <pt x="405" y="106" on="1"/>
        <pt x="421" y="106" on="0"/>
        <pt x="465" y="109" on="0"/>
        <pt x="509" y="113" on="0"/>
        <pt x="550" y="120" on="0"/>
        <pt x="564" y="123" on="1"/>
        <pt x="564" y="9" on="1"/>
        <pt x="529" y="0" on="0"/>
        <pt x="439" y="-11" on="0"/>
      </contour>
    </TTGlyph>
    <TTGlyph name="Cdotaccent.sc" xMin="43" yMin="-10" xMax="510" yMax="769">
      <contour>
        <pt x="365" y="-10" on="1"/>
        <pt x="201" y="-9" on="0"/>
        <pt x="43" y="136" on="0"/>
        <pt x="43" y="288" on="1"/>
        <pt x="43" y="587" on="0"/>
        <pt x="357" y="587" on="1"/>
        <pt x="417" y="587" on="0"/>
        <pt x="510" y="575" on="1"/>
        <pt x="510" y="466" on="1"/>
        <pt x="458" y="472" on="0"/>
        <pt x="398" y="477" on="0"/>
        <pt x="372" y="477" on="1"/>
        <pt x="319" y="477" on="0"/>
        <pt x="247" y="458" on="0"/>
        <pt x="202" y="415" on="0"/>
        <pt x="182" y="342" on="0"/>
        <pt x="182" y="288" on="1"/>
        <pt x="182" y="235" on="0"/>
        <pt x="202" y="164" on="0"/>
        <pt x="246" y="120" on="0"/>
        <pt x="317" y="102" on="0"/>
        <pt x="369" y="102" on="1"/>
        <pt x="383" y="102" on="0"/>
        <pt x="422" y="104" on="0"/>
        <pt x="461" y="107" on="0"/>
        <pt x="498" y="111" on="0"/>
        <pt x="510" y="113" on="1"/>
        <pt x="510" y="5" on="1"/>
        <pt x="478" y="-2" on="0"/>
        <pt x="399" y="-10" on="0"/>
      </contour>
      <contour>
        <pt x="325" y="626" on="1"/>
        <pt x="285" y="626" on="0"/>
        <pt x="250" y="660" on="0"/>
        <pt x="250" y="698" on="1"/>
        <pt x="250" y="735" on="0"/>
        <pt x="285" y="769" on="0"/>
        <pt x="325" y="769" on="1"/>
        <pt x="364" y="769" on="0"/>
        <pt x="400" y="734" on="0"/>
        <pt x="400" y="698" on="1"/>
        <pt x="400" y="661" on="0"/>
        <pt x="364" y="626" on="0"/>
      </contour>
    </TTGlyph>
    <TTGlyph name="D" xMin="78" yMin="-11" xMax="714" yMax="749">
      <contour>
        <pt x="284" y="-11" on="1"/>
        <pt x="225" y="-11" on="0"/>
        <pt x="113" y="-4" on="0"/>
        <pt x="78" y="3" on="1"/>
        <pt x="78" y="738" on="1"/>
        <pt x="147" y="743" on="0"/>
        <pt x="270" y="749" on="0"/>
        <pt x="313" y="749" on="1"/>
        <pt x="417" y="749" on="0"/>
        <pt x="569" y="704" on="0"/>
        <pt x="667" y="611" on="0"/>
        <pt x="714" y="468" on="0"/>
        <pt x="714" y="369" on="1"/>
        <pt x="714" y="268" on="0"/>
        <pt x="665" y="125" on="0"/>
        <pt x="561" y="32" on="0"/>
        <pt x="398" y="-11" on="0"/>
      </contour>
      <contour>
        <pt x="335" y="103" on="1"/>
        <pt x="398" y="103" on="0"/>
        <pt x="486" y="132" on="0"/>
        <pt x="543" y="196" on="0"/>
        <pt x="569" y="298" on="0"/>
        <pt x="569" y="370" on="1"/>
        <pt x="569" y="442" on="0"/>
        <pt x="543" y="542" on="0"/>
        <pt x="486" y="606" on="0"/>
        <pt x="396" y="635" on="0"/>
        <pt x="332" y="635" on="1"/>
        <pt x="309" y="635" on="0"/>
        <pt x="250" y="631" on="0"/>
        <pt x="219" y="628" on="1"/>
        <pt x="219" y="112" on="1"/>
        <pt x="251" y="107" on="0"/>
        <pt x="305" y="103" on="0"/>
      </contour>
    </TTGlyph>
    <TTGlyph name="D.sc" xMin="74" yMin="-8" xMax="649" yMax="584">
      <contour>
        <pt x="286" y="-8" on="1"/>
        <pt x="226" y="-8" on="0"/>
        <pt x="111" y="-2" on="0"/>
        <pt x="74" y="3" on="1"/>
        <pt x="74" y="576" on="1"/>
        <pt x="136" y="580" on="0"/>
        <pt x="248" y="584" on="0"/>
        <pt x="289" y="584" on="1"/>
        <pt x="476" y="584" on="0"/>
        <pt x="649" y="442" on="0"/>
        <pt x="649" y="288" on="1"/>
        <pt x="649" y="211" on="0"/>
        <pt x="606" y="99" on="0"/>
        <pt x="517" y="27" on="0"/>
        <pt x="380" y="-8" on="0"/>
      </contour>
      <contour>
        <pt x="312" y="99" on="1"/>
        <pt x="366" y="99" on="0"/>
        <pt x="442" y="119" on="0"/>
        <pt x="489" y="164" on="0"/>
        <pt x="511" y="236" on="0"/>
        <pt x="511" y="288" on="1"/>
        <pt x="511" y="340" on="0"/>
        <pt x="489" y="412" on="0"/>
        <pt x="440" y="457" on="0"/>
        <pt x="363" y="477" on="0"/>
        <pt x="308" y="477" on="1"/>
        <pt x="287" y="477" on="0"/>
        <pt x="236" y="474" on="0"/>
        <pt x="209" y="472" on="1"/>
        <pt x="209" y="106" on="1"/>
        <pt x="235" y="102" on="0"/>
        <pt x="283" y="99" on="0"/>
      </contour>
    </TTGlyph>
    <TTGlyph name="Dcaron" xMin="78" yMin="-11" xMax="714" yMax="977">
      <contour>
        <pt x="176" y="977" on="1"/>
        <pt x="362" y="901" on="1"/>
        <pt x="548" y="977" on="1"/>
        <pt x="548" y="879" on="1"/>
        <pt x="361" y="803" on="1"/>
        <pt x="176" y="879" on="1"/>
      </contour>
      <contour>
        <pt x="284" y="-11" on="1"/>
        <pt x="225" y="-11" on="0"/>
        <pt x="113" y="-4" on="0"/>
        <pt x="78" y="3" on="1"/>
        <pt x="78" y="738" on="1"/>
        <pt x="147" y="743" on="0"/>
        <pt x="270" y="749" on="0"/>
        <pt x="313" y="749" on="1"/>
        <pt x="417" y="749" on="0"/>
        <pt x="569" y="704" on="0"/>
        <pt x="667" y="611" on="0"/>
        <pt x="714" y="468" on="0"/>
        <pt x="714" y="369" on="1"/>
        <pt x="714" y="268" on="0"/>
        <pt x="665" y="125" on="0"/>
        <pt x="561" y="32" on="0"/>
        <pt x="398" y="-11" on="0"/>
      </contour>
      <contour>
        <pt x="335" y="103" on="1"/>
        <pt x="398" y="103" on="0"/>
        <pt x="486" y="132" on="0"/>
        <pt x="543" y="196" on="0"/>
        <pt x="569" y="298" on="0"/>
        <pt x="569" y="370" on="1"/>
        <pt x="569" y="442" on="0"/>
        <pt x="543" y="542" on="0"/>
        <pt x="486" y="606" on="0"/>
        <pt x="396" y="635" on="0"/>
        <pt x="332" y="635" on="1"/>
        <pt x="309" y="635" on="0"/>
        <pt x="250" y="631" on="0"/>
        <pt x="219" y="628" on="1"/>
        <pt x="219" y="112" on="1"/>
        <pt x="251" y="107" on="0"/>
        <pt x="305" y="103" on="0"/>
      </contour>
    </TTGlyph>
    <TTGlyph name="Dcaron.sc" xMin="74" yMin="-8" xMax="649" yMax="775">
      <contour>
        <pt x="286" y="-8" on="1"/>
        <pt x="226" y="-8" on="0"/>
        <pt x="111" y="-2" on="0"/>
        <pt x="74" y="3" on="1"/>
        <pt x="74" y="576" on="1"/>
        <pt x="136" y="580" on="0"/>
        <pt x="248" y="584" on="0"/>
        <pt x="289" y="584" on="1"/>
        <pt x="476" y="584" on="0"/>
        <pt x="649" y="442" on="0"/>
        <pt x="649" y="288" on="1"/>
        <pt x="649" y="211" on="0"/>
        <pt x="606" y="99" on="0"/>
        <pt x="517" y="27" on="0"/>
        <pt x="380" y="-8" on="0"/>
      </contour>
      <contour>
        <pt x="312" y="99" on="1"/>
        <pt x="366" y="99" on="0"/>
        <pt x="442" y="119" on="0"/>
        <pt x="489" y="164" on="0"/>
        <pt x="511" y="236" on="0"/>
        <pt x="511" y="288" on="1"/>
        <pt x="511" y="340" on="0"/>
        <pt x="489" y="412" on="0"/>
        <pt x="440" y="457" on="0"/>
        <pt x="363" y="477" on="0"/>
        <pt x="308" y="477" on="1"/>
        <pt x="287" y="477" on="0"/>
        <pt x="236" y="474" on="0"/>
        <pt x="209" y="472" on="1"/>
        <pt x="209" y="106" on="1"/>
        <pt x="235" y="102" on="0"/>
        <pt x="283" y="99" on="0"/>
      </contour>
      <contour>
        <pt x="165" y="685" on="1"/>
        <pt x="165" y="775" on="1"/>
        <pt x="335" y="714" on="1"/>
        <pt x="505" y="775" on="1"/>
        <pt x="505" y="685" on="1"/>
        <pt x="333" y="625" on="1"/>
      </contour>
    </TTGlyph>
    <TTGlyph name="Dcroat" xMin="4" yMin="-11" xMax="732" yMax="749">
      <contour>
        <pt x="4" y="426" on="1"/>
        <pt x="96" y="426" on="1"/>
        <pt x="96" y="738" on="1"/>
        <pt x="165" y="743" on="0"/>
        <pt x="288" y="749" on="0"/>
        <pt x="331" y="749" on="1"/>
        <pt x="435" y="749" on="0"/>
        <pt x="587" y="704" on="0"/>
        <pt x="685" y="611" on="0"/>
        <pt x="732" y="468" on="0"/>
        <pt x="732" y="369" on="1"/>
        <pt x="732" y="268" on="0"/>
        <pt x="683" y="125" on="0"/>
        <pt x="579" y="32" on="0"/>
        <pt x="416" y="-11" on="0"/>
        <pt x="302" y="-11" on="1"/>
        <pt x="243" y="-11" on="0"/>
        <pt x="131" y="-4" on="0"/>
        <pt x="96" y="3" on="1"/>
        <pt x="96" y="317" on="1"/>
        <pt x="4" y="317" on="1"/>
      </contour>
      <contour>
        <pt x="353" y="103" on="1"/>
        <pt x="416" y="103" on="0"/>
        <pt x="504" y="132" on="0"/>
        <pt x="561" y="196" on="0"/>
        <pt x="587" y="298" on="0"/>
        <pt x="587" y="370" on="1"/>
        <pt x="587" y="442" on="0"/>
        <pt x="561" y="542" on="0"/>
        <pt x="504" y="606" on="0"/>
        <pt x="414" y="635" on="0"/>
        <pt x="350" y="635" on="1"/>
        <pt x="327" y="635" on="0"/>
        <pt x="268" y="631" on="0"/>
        <pt x="237" y="628" on="1"/>
        <pt x="237" y="426" on="1"/>
        <pt x="383" y="426" on="1"/>
        <pt x="383" y="317" on="1"/>
        <pt x="237" y="317" on="1"/>
        <pt x="237" y="112" on="1"/>
        <pt x="269" y="107" on="0"/>
        <pt x="323" y="103" on="0"/>
      </contour>
    </TTGlyph>
    <TTGlyph name="Dcroat.sc" xMin="13" yMin="-8" xMax="668" yMax="584">
      <contour>
        <pt x="13" y="342" on="1"/>
        <pt x="93" y="342" on="1"/>
        <pt x="93" y="576" on="1"/>
        <pt x="158" y="580" on="0"/>
        <pt x="270" y="584" on="0"/>
        <pt x="308" y="584" on="1"/>
        <pt x="495" y="584" on="0"/>
        <pt x="668" y="442" on="0"/>
        <pt x="668" y="288" on="1"/>
        <pt x="668" y="209" on="0"/>
        <pt x="624" y="97" on="0"/>
        <pt x="530" y="25" on="0"/>
        <pt x="383" y="-8" on="0"/>
        <pt x="280" y="-8" on="1"/>
        <pt x="226" y="-8" on="0"/>
        <pt x="124" y="-2" on="0"/>
        <pt x="93" y="3" on="1"/>
        <pt x="93" y="239" on="1"/>
        <pt x="13" y="239" on="1"/>
      </contour>
      <contour>
        <pt x="331" y="99" on="1"/>
        <pt x="385" y="99" on="0"/>
        <pt x="461" y="119" on="0"/>
        <pt x="508" y="163" on="0"/>
        <pt x="530" y="235" on="0"/>
        <pt x="530" y="288" on="1"/>
        <pt x="530" y="340" on="0"/>
        <pt x="508" y="412" on="0"/>
        <pt x="459" y="457" on="0"/>
        <pt x="382" y="477" on="0"/>
        <pt x="327" y="477" on="1"/>
        <pt x="307" y="477" on="0"/>
        <pt x="256" y="474" on="0"/>
        <pt x="228" y="472" on="1"/>
        <pt x="228" y="342" on="1"/>
        <pt x="352" y="342" on="1"/>
        <pt x="352" y="239" on="1"/>
        <pt x="228" y="239" on="1"/>
        <pt x="228" y="106" on="1"/>
        <pt x="254" y="102" on="0"/>
        <pt x="304" y="99" on="0"/>
      </contour>
    </TTGlyph>
    <TTGlyph name="Ddotbelow" xMin="78" yMin="-197" xMax="714" yMax="749">
      <contour>
        <pt x="364" y="-197" on="1"/>
        <pt x="329" y="-197" on="0"/>
        <pt x="298" y="-167" on="0"/>
        <pt x="298" y="-133" on="1"/>
        <pt x="298" y="-99" on="0"/>
        <pt x="329" y="-69" on="0"/>
        <pt x="364" y="-69" on="1"/>
        <pt x="399" y="-69" on="0"/>
        <pt x="430" y="-100" on="0"/>
        <pt x="430" y="-133" on="1"/>
        <pt x="430" y="-167" on="0"/>
        <pt x="399" y="-197" on="0"/>
      </contour>
      <contour>
        <pt x="284" y="-11" on="1"/>
        <pt x="225" y="-11" on="0"/>
        <pt x="113" y="-4" on="0"/>
        <pt x="78" y="3" on="1"/>
        <pt x="78" y="738" on="1"/>
        <pt x="147" y="743" on="0"/>
        <pt x="270" y="749" on="0"/>
        <pt x="313" y="749" on="1"/>
        <pt x="417" y="749" on="0"/>
        <pt x="569" y="704" on="0"/>
        <pt x="667" y="611" on="0"/>
        <pt x="714" y="468" on="0"/>
        <pt x="714" y="369" on="1"/>
        <pt x="714" y="268" on="0"/>
        <pt x="665" y="125" on="0"/>
        <pt x="561" y="32" on="0"/>
        <pt x="398" y="-11" on="0"/>
      </contour>
      <contour>
        <pt x="335" y="103" on="1"/>
        <pt x="398" y="103" on="0"/>
        <pt x="486" y="132" on="0"/>
        <pt x="543" y="196" on="0"/>
        <pt x="569" y="298" on="0"/>
        <pt x="569" y="370" on="1"/>
        <pt x="569" y="442" on="0"/>
        <pt x="543" y="542" on="0"/>
        <pt x="486" y="606" on="0"/>
        <pt x="396" y="635" on="0"/>
        <pt x="332" y="635" on="1"/>
        <pt x="309" y="635" on="0"/>
        <pt x="250" y="631" on="0"/>
        <pt x="219" y="628" on="1"/>
        <pt x="219" y="112" on="1"/>
        <pt x="251" y="107" on="0"/>
        <pt x="305" y="103" on="0"/>
      </contour>
    </TTGlyph>
    <TTGlyph name="Ddotbelow.sc" xMin="74" yMin="-160" xMax="649" yMax="584">
      <contour>
        <pt x="286" y="-8" on="1"/>
        <pt x="226" y="-8" on="0"/>
        <pt x="111" y="-2" on="0"/>
        <pt x="74" y="3" on="1"/>
        <pt x="74" y="576" on="1"/>
        <pt x="136" y="580" on="0"/>
        <pt x="248" y="584" on="0"/>
        <pt x="289" y="584" on="1"/>
        <pt x="476" y="584" on="0"/>
        <pt x="649" y="442" on="0"/>
        <pt x="649" y="288" on="1"/>
        <pt x="649" y="211" on="0"/>
        <pt x="606" y="99" on="0"/>
        <pt x="517" y="27" on="0"/>
        <pt x="380" y="-8" on="0"/>
      </contour>
      <contour>
        <pt x="312" y="99" on="1"/>
        <pt x="366" y="99" on="0"/>
        <pt x="442" y="119" on="0"/>
        <pt x="489" y="164" on="0"/>
        <pt x="511" y="236" on="0"/>
        <pt x="511" y="288" on="1"/>
        <pt x="511" y="340" on="0"/>
        <pt x="489" y="412" on="0"/>
        <pt x="440" y="457" on="0"/>
        <pt x="363" y="477" on="0"/>
        <pt x="308" y="477" on="1"/>
        <pt x="287" y="477" on="0"/>
        <pt x="236" y="474" on="0"/>
        <pt x="209" y="472" on="1"/>
        <pt x="209" y="106" on="1"/>
        <pt x="235" y="102" on="0"/>
        <pt x="283" y="99" on="0"/>
      </contour>
      <contour>
        <pt x="335" y="-160" on="1"/>
        <pt x="303" y="-160" on="0"/>
        <pt x="274" y="-134" on="0"/>
        <pt x="274" y="-105" on="1"/>
        <pt x="274" y="-75" on="0"/>
        <pt x="303" y="-48" on="0"/>
        <pt x="335" y="-48" on="1"/>
        <pt x="367" y="-48" on="0"/>
        <pt x="395" y="-76" on="0"/>
        <pt x="395" y="-105" on="1"/>
        <pt x="395" y="-134" on="0"/>
        <pt x="367" y="-160" on="0"/>
      </contour>
    </TTGlyph>
    <TTGlyph name="Delta" xMin="23" yMin="0" xMax="776" yMax="740">
      <contour>
        <pt x="315" y="740" on="1"/>
        <pt x="484" y="740" on="1"/>
        <pt x="776" y="0" on="1"/>
        <pt x="23" y="0" on="1"/>
      </contour>
      <contour>
        <pt x="601" y="111" on="1"/>
        <pt x="399" y="621" on="1"/>
        <pt x="197" y="111" on="1"/>
      </contour>
    </TTGlyph>
    <TTGlyph name="E" xMin="78" yMin="0" xMax="600" yMax="740">
      <contour>
        <pt x="78" y="740" on="1"/>
        <pt x="591" y="740" on="1"/>
        <pt x="591" y="628" on="1"/>
        <pt x="220" y="628" on="1"/>
        <pt x="220" y="429" on="1"/>
        <pt x="560" y="429" on="1"/>
        <pt x="560" y="317" on="1"/>
        <pt x="220" y="317" on="1"/>
        <pt x="220" y="112" on="1"/>
        <pt x="600" y="112" on="1"/>
        <pt x="600" y="0" on="1"/>
        <pt x="78" y="0" on="1"/>
      </contour>
    </TTGlyph>
    <TTGlyph name="E.sc" xMin="75" yMin="0" xMax="547" yMax="577">
      <contour>
        <pt x="75" y="577" on="1"/>
        <pt x="539" y="577" on="1"/>
        <pt x="539" y="475" on="1"/>
        <pt x="210" y="475" on="1"/>
        <pt x="210" y="337" on="1"/>
        <pt x="511" y="337" on="1"/>
        <pt x="511" y="246" on="1"/>
        <pt x="210" y="246" on="1"/>
        <pt x="210" y="102" on="1"/>
        <pt x="547" y="102" on="1"/>
        <pt x="547" y="0" on="1"/>
        <pt x="75" y="0" on="1"/>
      </contour>
    </TTGlyph>
    <TTGlyph name="Eacute" xMin="78" yMin="0" xMax="600" yMax="969">
      <contour>
        <pt x="276" y="809" on="1"/>
        <pt x="345" y="969" on="1"/>
        <pt x="489" y="969" on="1"/>
        <pt x="379" y="801" on="1"/>
      </contour>
      <contour>
        <pt x="78" y="740" on="1"/>
        <pt x="591" y="740" on="1"/>
        <pt x="591" y="628" on="1"/>
        <pt x="220" y="628" on="1"/>
        <pt x="220" y="429" on="1"/>
        <pt x="560" y="429" on="1"/>
        <pt x="560" y="317" on="1"/>
        <pt x="220" y="317" on="1"/>
        <pt x="220" y="112" on="1"/>
        <pt x="600" y="112" on="1"/>
        <pt x="600" y="0" on="1"/>
        <pt x="78" y="0" on="1"/>
      </contour>
    </TTGlyph>
    <TTGlyph name="Eacute.sc" xMin="75" yMin="0" xMax="547" yMax="766">
      <contour>
        <pt x="75" y="577" on="1"/>
        <pt x="539" y="577" on="1"/>
        <pt x="539" y="475" on="1"/>
        <pt x="210" y="475" on="1"/>
        <pt x="210" y="337" on="1"/>
        <pt x="511" y="337" on="1"/>
        <pt x="511" y="246" on="1"/>
        <pt x="210" y="246" on="1"/>
        <pt x="210" y="102" on="1"/>
        <pt x="547" y="102" on="1"/>
        <pt x="547" y="0" on="1"/>
        <pt x="75" y="0" on="1"/>
      </contour>
      <contour>
        <pt x="250" y="633" on="1"/>
        <pt x="310" y="766" on="1"/>
        <pt x="447" y="766" on="1"/>
        <pt x="348" y="626" on="1"/>
      </contour>
    </TTGlyph>
    <TTGlyph name="Ebreve" xMin="78" yMin="0" xMax="600" yMax="976">
      <contour>
        <pt x="331" y="810" on="1"/>
        <pt x="277" y="810" on="0"/>
        <pt x="200" y="835" on="0"/>
        <pt x="150" y="879" on="0"/>
        <pt x="127" y="940" on="0"/>
        <pt x="127" y="976" on="1"/>
        <pt x="223" y="976" on="1"/>
        <pt x="223" y="930" on="0"/>
        <pt x="273" y="882" on="0"/>
        <pt x="331" y="882" on="1"/>
        <pt x="389" y="882" on="0"/>
        <pt x="439" y="930" on="0"/>
        <pt x="439" y="976" on="1"/>
        <pt x="535" y="976" on="1"/>
        <pt x="535" y="902" on="0"/>
        <pt x="438" y="810" on="0"/>
      </contour>
      <contour>
        <pt x="78" y="740" on="1"/>
        <pt x="591" y="740" on="1"/>
        <pt x="591" y="628" on="1"/>
        <pt x="220" y="628" on="1"/>
        <pt x="220" y="429" on="1"/>
        <pt x="560" y="429" on="1"/>
        <pt x="560" y="317" on="1"/>
        <pt x="220" y="317" on="1"/>
        <pt x="220" y="112" on="1"/>
        <pt x="600" y="112" on="1"/>
        <pt x="600" y="0" on="1"/>
        <pt x="78" y="0" on="1"/>
      </contour>
    </TTGlyph>
    <TTGlyph name="Ebreve.sc" xMin="75" yMin="0" xMax="547" yMax="769">
      <contour>
        <pt x="303" y="631" on="1"/>
        <pt x="253" y="631" on="0"/>
        <pt x="183" y="652" on="0"/>
        <pt x="138" y="689" on="0"/>
        <pt x="118" y="739" on="0"/>
        <pt x="118" y="769" on="1"/>
        <pt x="208" y="769" on="1"/>
        <pt x="208" y="733" on="0"/>
        <pt x="251" y="696" on="0"/>
        <pt x="303" y="696" on="1"/>
        <pt x="355" y="696" on="0"/>
        <pt x="399" y="733" on="0"/>
        <pt x="399" y="769" on="1"/>
        <pt x="488" y="769" on="1"/>
        <pt x="488" y="739" on="0"/>
        <pt x="468" y="688" on="0"/>
        <pt x="423" y="652" on="0"/>
        <pt x="353" y="631" on="0"/>
      </contour>
      <contour>
        <pt x="75" y="577" on="1"/>
        <pt x="539" y="577" on="1"/>
        <pt x="539" y="475" on="1"/>
        <pt x="210" y="475" on="1"/>
        <pt x="210" y="337" on="1"/>
        <pt x="511" y="337" on="1"/>
        <pt x="511" y="246" on="1"/>
        <pt x="210" y="246" on="1"/>
        <pt x="210" y="102" on="1"/>
        <pt x="547" y="102" on="1"/>
        <pt x="547" y="0" on="1"/>
        <pt x="75" y="0" on="1"/>
      </contour>
    </TTGlyph>
    <TTGlyph name="Ecaron" xMin="78" yMin="0" xMax="600" yMax="977">
      <contour>
        <pt x="151" y="977" on="1"/>
        <pt x="337" y="901" on="1"/>
        <pt x="523" y="977" on="1"/>
        <pt x="523" y="879" on="1"/>
        <pt x="336" y="803" on="1"/>
        <pt x="151" y="879" on="1"/>
      </contour>
      <contour>
        <pt x="78" y="740" on="1"/>
        <pt x="591" y="740" on="1"/>
        <pt x="591" y="628" on="1"/>
        <pt x="220" y="628" on="1"/>
        <pt x="220" y="429" on="1"/>
        <pt x="560" y="429" on="1"/>
        <pt x="560" y="317" on="1"/>
        <pt x="220" y="317" on="1"/>
        <pt x="220" y="112" on="1"/>
        <pt x="600" y="112" on="1"/>
        <pt x="600" y="0" on="1"/>
        <pt x="78" y="0" on="1"/>
      </contour>
    </TTGlyph>
    <TTGlyph name="Ecaron.sc" xMin="75" yMin="0" xMax="547" yMax="775">
      <contour>
        <pt x="75" y="577" on="1"/>
        <pt x="539" y="577" on="1"/>
        <pt x="539" y="475" on="1"/>
        <pt x="210" y="475" on="1"/>
        <pt x="210" y="337" on="1"/>
        <pt x="511" y="337" on="1"/>
        <pt x="511" y="246" on="1"/>
        <pt x="210" y="246" on="1"/>
        <pt x="210" y="102" on="1"/>
        <pt x="547" y="102" on="1"/>
        <pt x="547" y="0" on="1"/>
        <pt x="75" y="0" on="1"/>
      </contour>
      <contour>
        <pt x="139" y="685" on="1"/>
        <pt x="139" y="775" on="1"/>
        <pt x="308" y="714" on="1"/>
        <pt x="478" y="775" on="1"/>
        <pt x="478" y="685" on="1"/>
        <pt x="307" y="625" on="1"/>
      </contour>
    </TTGlyph>
    <TTGlyph name="Ecircumflex" xMin="78" yMin="0" xMax="600" yMax="979">
      <contour>
        <pt x="78" y="740" on="1"/>
        <pt x="591" y="740" on="1"/>
        <pt x="591" y="628" on="1"/>
        <pt x="220" y="628" on="1"/>
        <pt x="220" y="429" on="1"/>
        <pt x="560" y="429" on="1"/>
        <pt x="560" y="317" on="1"/>
        <pt x="220" y="317" on="1"/>
        <pt x="220" y="112" on="1"/>
        <pt x="600" y="112" on="1"/>
        <pt x="600" y="0" on="1"/>
        <pt x="78" y="0" on="1"/>
      </contour>
      <contour>
        <pt x="159" y="903" on="1"/>
        <pt x="344" y="979" on="1"/>
        <pt x="531" y="903" on="1"/>
        <pt x="531" y="805" on="1"/>
        <pt x="345" y="881" on="1"/>
        <pt x="159" y="805" on="1"/>
      </contour>
    </TTGlyph>
    <TTGlyph name="Ecircumflex.sc" xMin="75" yMin="0" xMax="547" yMax="776">
      <contour>
        <pt x="75" y="577" on="1"/>
        <pt x="539" y="577" on="1"/>
        <pt x="539" y="475" on="1"/>
        <pt x="210" y="475" on="1"/>
        <pt x="210" y="337" on="1"/>
        <pt x="511" y="337" on="1"/>
        <pt x="511" y="246" on="1"/>
        <pt x="210" y="246" on="1"/>
        <pt x="210" y="102" on="1"/>
        <pt x="547" y="102" on="1"/>
        <pt x="547" y="0" on="1"/>
        <pt x="75" y="0" on="1"/>
      </contour>
      <contour>
        <pt x="147" y="715" on="1"/>
        <pt x="315" y="776" on="1"/>
        <pt x="486" y="715" on="1"/>
        <pt x="486" y="625" on="1"/>
        <pt x="317" y="685" on="1"/>
        <pt x="147" y="625" on="1"/>
      </contour>
    </TTGlyph>
    <TTGlyph name="Edblgrave" xMin="78" yMin="0" xMax="600" yMax="965">
      <contour>
        <pt x="78" y="740" on="1"/>
        <pt x="591" y="740" on="1"/>
        <pt x="591" y="628" on="1"/>
        <pt x="220" y="628" on="1"/>
        <pt x="220" y="429" on="1"/>
        <pt x="560" y="429" on="1"/>
        <pt x="560" y="317" on="1"/>
        <pt x="220" y="317" on="1"/>
        <pt x="220" y="112" on="1"/>
        <pt x="600" y="112" on="1"/>
        <pt x="600" y="0" on="1"/>
        <pt x="78" y="0" on="1"/>
      </contour>
      <contour>
        <pt x="192" y="798" on="1"/>
        <pt x="81" y="965" on="1"/>
        <pt x="218" y="965" on="1"/>
        <pt x="287" y="810" on="1"/>
      </contour>
      <contour>
        <pt x="382" y="798" on="1"/>
        <pt x="271" y="965" on="1"/>
        <pt x="407" y="965" on="1"/>
        <pt x="477" y="810" on="1"/>
      </contour>
    </TTGlyph>
    <TTGlyph name="Edblgrave.sc" xMin="73" yMin="0" xMax="547" yMax="765">
      <contour>
        <pt x="75" y="577" on="1"/>
        <pt x="539" y="577" on="1"/>
        <pt x="539" y="475" on="1"/>
        <pt x="210" y="475" on="1"/>
        <pt x="210" y="337" on="1"/>
        <pt x="511" y="337" on="1"/>
        <pt x="511" y="246" on="1"/>
        <pt x="210" y="246" on="1"/>
        <pt x="210" y="102" on="1"/>
        <pt x="547" y="102" on="1"/>
        <pt x="547" y="0" on="1"/>
        <pt x="75" y="0" on="1"/>
      </contour>
      <contour>
        <pt x="73" y="765" on="1"/>
        <pt x="204" y="765" on="1"/>
        <pt x="264" y="633" on="1"/>
        <pt x="172" y="624" on="1"/>
      </contour>
      <contour>
        <pt x="247" y="765" on="1"/>
        <pt x="378" y="765" on="1"/>
        <pt x="438" y="633" on="1"/>
        <pt x="347" y="624" on="1"/>
      </contour>
    </TTGlyph>
    <TTGlyph name="Edieresis" xMin="78" yMin="0" xMax="600" yMax="966">
      <contour>
        <pt x="202" y="810" on="1"/>
        <pt x="160" y="810" on="0"/>
        <pt x="122" y="846" on="0"/>
        <pt x="122" y="888" on="1"/>
        <pt x="122" y="929" on="0"/>
        <pt x="160" y="966" on="0"/>
        <pt x="202" y="966" on="1"/>
        <pt x="244" y="966" on="0"/>
        <pt x="282" y="928" on="0"/>
        <pt x="282" y="888" on="1"/>
        <pt x="282" y="847" on="0"/>
        <pt x="244" y="810" on="0"/>
      </contour>
      <contour>
        <pt x="480" y="810" on="1"/>
        <pt x="438" y="810" on="0"/>
        <pt x="401" y="846" on="0"/>
        <pt x="401" y="888" on="1"/>
        <pt x="401" y="929" on="0"/>
        <pt x="438" y="966" on="0"/>
        <pt x="480" y="966" on="1"/>
        <pt x="522" y="966" on="0"/>
        <pt x="560" y="928" on="0"/>
        <pt x="560" y="888" on="1"/>
        <pt x="560" y="847" on="0"/>
        <pt x="522" y="810" on="0"/>
      </contour>
      <contour>
        <pt x="78" y="740" on="1"/>
        <pt x="591" y="740" on="1"/>
        <pt x="591" y="628" on="1"/>
        <pt x="220" y="628" on="1"/>
        <pt x="220" y="429" on="1"/>
        <pt x="560" y="429" on="1"/>
        <pt x="560" y="317" on="1"/>
        <pt x="220" y="317" on="1"/>
        <pt x="220" y="112" on="1"/>
        <pt x="600" y="112" on="1"/>
        <pt x="600" y="0" on="1"/>
        <pt x="78" y="0" on="1"/>
      </contour>
    </TTGlyph>
    <TTGlyph name="Edieresis.sc" xMin="75" yMin="0" xMax="547" yMax="771">
      <contour>
        <pt x="188" y="628" on="1"/>
        <pt x="149" y="628" on="0"/>
        <pt x="113" y="661" on="0"/>
        <pt x="113" y="699" on="1"/>
        <pt x="113" y="737" on="0"/>
        <pt x="149" y="771" on="0"/>
        <pt x="188" y="771" on="1"/>
        <pt x="227" y="771" on="0"/>
        <pt x="263" y="736" on="0"/>
        <pt x="263" y="699" on="1"/>
        <pt x="263" y="662" on="0"/>
        <pt x="227" y="628" on="0"/>
      </contour>
      <contour>
        <pt x="439" y="628" on="1"/>
        <pt x="399" y="628" on="0"/>
        <pt x="364" y="661" on="0"/>
        <pt x="364" y="699" on="1"/>
        <pt x="364" y="737" on="0"/>
        <pt x="399" y="771" on="0"/>
        <pt x="439" y="771" on="1"/>
        <pt x="478" y="771" on="0"/>
        <pt x="514" y="736" on="0"/>
        <pt x="514" y="699" on="1"/>
        <pt x="514" y="662" on="0"/>
        <pt x="478" y="628" on="0"/>
      </contour>
      <contour>
        <pt x="75" y="577" on="1"/>
        <pt x="539" y="577" on="1"/>
        <pt x="539" y="475" on="1"/>
        <pt x="210" y="475" on="1"/>
        <pt x="210" y="337" on="1"/>
        <pt x="511" y="337" on="1"/>
        <pt x="511" y="246" on="1"/>
        <pt x="210" y="246" on="1"/>
        <pt x="210" y="102" on="1"/>
        <pt x="547" y="102" on="1"/>
        <pt x="547" y="0" on="1"/>
        <pt x="75" y="0" on="1"/>
      </contour>
    </TTGlyph>
    <TTGlyph name="Edotaccent" xMin="78" yMin="0" xMax="600" yMax="962">
      <contour>
        <pt x="331" y="806" on="1"/>
        <pt x="289" y="806" on="0"/>
        <pt x="251" y="842" on="0"/>
        <pt x="251" y="884" on="1"/>
        <pt x="251" y="926" on="0"/>
        <pt x="289" y="962" on="0"/>
        <pt x="331" y="962" on="1"/>
        <pt x="373" y="962" on="0"/>
        <pt x="411" y="925" on="0"/>
        <pt x="411" y="884" on="1"/>
        <pt x="411" y="844" on="0"/>
        <pt x="373" y="806" on="0"/>
      </contour>
      <contour>
        <pt x="78" y="740" on="1"/>
        <pt x="591" y="740" on="1"/>
        <pt x="591" y="628" on="1"/>
        <pt x="220" y="628" on="1"/>
        <pt x="220" y="429" on="1"/>
        <pt x="560" y="429" on="1"/>
        <pt x="560" y="317" on="1"/>
        <pt x="220" y="317" on="1"/>
        <pt x="220" y="112" on="1"/>
        <pt x="600" y="112" on="1"/>
        <pt x="600" y="0" on="1"/>
        <pt x="78" y="0" on="1"/>
      </contour>
    </TTGlyph>
    <TTGlyph name="Edotaccent.sc" xMin="75" yMin="0" xMax="547" yMax="769">
      <contour>
        <pt x="304" y="626" on="1"/>
        <pt x="264" y="626" on="0"/>
        <pt x="229" y="660" on="0"/>
        <pt x="229" y="698" on="1"/>
        <pt x="229" y="735" on="0"/>
        <pt x="264" y="769" on="0"/>
        <pt x="304" y="769" on="1"/>
        <pt x="343" y="769" on="0"/>
        <pt x="378" y="734" on="0"/>
        <pt x="378" y="698" on="1"/>
        <pt x="378" y="661" on="0"/>
        <pt x="343" y="626" on="0"/>
      </contour>
      <contour>
        <pt x="75" y="577" on="1"/>
        <pt x="539" y="577" on="1"/>
        <pt x="539" y="475" on="1"/>
        <pt x="210" y="475" on="1"/>
        <pt x="210" y="337" on="1"/>
        <pt x="511" y="337" on="1"/>
        <pt x="511" y="246" on="1"/>
        <pt x="210" y="246" on="1"/>
        <pt x="210" y="102" on="1"/>
        <pt x="547" y="102" on="1"/>
        <pt x="547" y="0" on="1"/>
        <pt x="75" y="0" on="1"/>
      </contour>
    </TTGlyph>
    <TTGlyph name="Edotbelow" xMin="78" yMin="-197" xMax="600" yMax="740">
      <contour>
        <pt x="78" y="740" on="1"/>
        <pt x="591" y="740" on="1"/>
        <pt x="591" y="628" on="1"/>
        <pt x="220" y="628" on="1"/>
        <pt x="220" y="429" on="1"/>
        <pt x="560" y="429" on="1"/>
        <pt x="560" y="317" on="1"/>
        <pt x="220" y="317" on="1"/>
        <pt x="220" y="112" on="1"/>
        <pt x="600" y="112" on="1"/>
        <pt x="600" y="0" on="1"/>
        <pt x="78" y="0" on="1"/>
      </contour>
      <contour>
        <pt x="353" y="-197" on="1"/>
        <pt x="318" y="-197" on="0"/>
        <pt x="287" y="-167" on="0"/>
        <pt x="287" y="-133" on="1"/>
        <pt x="287" y="-99" on="0"/>
        <pt x="318" y="-69" on="0"/>
        <pt x="353" y="-69" on="1"/>
        <pt x="388" y="-69" on="0"/>
        <pt x="419" y="-100" on="0"/>
        <pt x="419" y="-133" on="1"/>
        <pt x="419" y="-167" on="0"/>
        <pt x="388" y="-197" on="0"/>
      </contour>
    </TTGlyph>
    <TTGlyph name="Edotbelow.sc" xMin="75" yMin="-160" xMax="547" yMax="577">
      <contour>
        <pt x="323" y="-160" on="1"/>
        <pt x="291" y="-160" on="0"/>
        <pt x="262" y="-134" on="0"/>
        <pt x="262" y="-105" on="1"/>
        <pt x="262" y="-75" on="0"/>
        <pt x="291" y="-48" on="0"/>
        <pt x="323" y="-48" on="1"/>
        <pt x="355" y="-48" on="0"/>
        <pt x="384" y="-76" on="0"/>
        <pt x="384" y="-105" on="1"/>
        <pt x="384" y="-134" on="0"/>
        <pt x="355" y="-160" on="0"/>
      </contour>
      <contour>
        <pt x="75" y="577" on="1"/>
        <pt x="539" y="577" on="1"/>
        <pt x="539" y="475" on="1"/>
        <pt x="210" y="475" on="1"/>
        <pt x="210" y="337" on="1"/>
        <pt x="511" y="337" on="1"/>
        <pt x="511" y="246" on="1"/>
        <pt x="210" y="246" on="1"/>
        <pt x="210" y="102" on="1"/>
        <pt x="547" y="102" on="1"/>
        <pt x="547" y="0" on="1"/>
        <pt x="75" y="0" on="1"/>
      </contour>
    </TTGlyph>
    <TTGlyph name="Egrave" xMin="78" yMin="0" xMax="600" yMax="969">
      <contour>
        <pt x="299" y="801" on="1"/>
        <pt x="188" y="969" on="1"/>
        <pt x="332" y="969" on="1"/>
        <pt x="401" y="813" on="1"/>
      </contour>
      <contour>
        <pt x="78" y="740" on="1"/>
        <pt x="591" y="740" on="1"/>
        <pt x="591" y="628" on="1"/>
        <pt x="220" y="628" on="1"/>
        <pt x="220" y="429" on="1"/>
        <pt x="560" y="429" on="1"/>
        <pt x="560" y="317" on="1"/>
        <pt x="220" y="317" on="1"/>
        <pt x="220" y="112" on="1"/>
        <pt x="600" y="112" on="1"/>
        <pt x="600" y="0" on="1"/>
        <pt x="78" y="0" on="1"/>
      </contour>
    </TTGlyph>
    <TTGlyph name="Egrave.sc" xMin="75" yMin="0" xMax="547" yMax="766">
      <contour>
        <pt x="75" y="577" on="1"/>
        <pt x="539" y="577" on="1"/>
        <pt x="539" y="475" on="1"/>
        <pt x="210" y="475" on="1"/>
        <pt x="210" y="337" on="1"/>
        <pt x="511" y="337" on="1"/>
        <pt x="511" y="246" on="1"/>
        <pt x="210" y="246" on="1"/>
        <pt x="210" y="102" on="1"/>
        <pt x="547" y="102" on="1"/>
        <pt x="547" y="0" on="1"/>
        <pt x="75" y="0" on="1"/>
      </contour>
      <contour>
        <pt x="174" y="766" on="1"/>
        <pt x="310" y="766" on="1"/>
        <pt x="370" y="635" on="1"/>
        <pt x="273" y="626" on="1"/>
      </contour>
    </TTGlyph>
    <TTGlyph name="Einvertedbreve" xMin="78" yMin="0" xMax="600" yMax="983">
      <contour>
        <pt x="78" y="740" on="1"/>
        <pt x="591" y="740" on="1"/>
        <pt x="591" y="628" on="1"/>
        <pt x="220" y="628" on="1"/>
        <pt x="220" y="429" on="1"/>
        <pt x="560" y="429" on="1"/>
        <pt x="560" y="317" on="1"/>
        <pt x="220" y="317" on="1"/>
        <pt x="220" y="112" on="1"/>
        <pt x="600" y="112" on="1"/>
        <pt x="600" y="0" on="1"/>
        <pt x="78" y="0" on="1"/>
      </contour>
      <contour>
        <pt x="444" y="817" on="1"/>
        <pt x="444" y="863" on="0"/>
        <pt x="394" y="912" on="0"/>
        <pt x="336" y="912" on="1"/>
        <pt x="279" y="912" on="0"/>
        <pt x="228" y="863" on="0"/>
        <pt x="228" y="817" on="1"/>
        <pt x="133" y="817" on="1"/>
        <pt x="133" y="853" on="0"/>
        <pt x="156" y="914" on="0"/>
        <pt x="205" y="958" on="0"/>
        <pt x="282" y="983" on="0"/>
        <pt x="336" y="983" on="1"/>
        <pt x="390" y="983" on="0"/>
        <pt x="467" y="959" on="0"/>
        <pt x="517" y="915" on="0"/>
        <pt x="540" y="854" on="0"/>
        <pt x="540" y="817" on="1"/>
      </contour>
    </TTGlyph>
    <TTGlyph name="Einvertedbreve.sc" xMin="75" yMin="0" xMax="547" yMax="775">
      <contour>
        <pt x="122" y="638" on="1"/>
        <pt x="122" y="667" on="0"/>
        <pt x="142" y="717" on="0"/>
        <pt x="187" y="754" on="0"/>
        <pt x="258" y="775" on="0"/>
        <pt x="308" y="775" on="1"/>
        <pt x="407" y="775" on="0"/>
        <pt x="494" y="698" on="0"/>
        <pt x="494" y="638" on="1"/>
        <pt x="403" y="638" on="1"/>
        <pt x="403" y="673" on="0"/>
        <pt x="361" y="710" on="0"/>
        <pt x="308" y="710" on="1"/>
        <pt x="256" y="710" on="0"/>
        <pt x="213" y="673" on="0"/>
        <pt x="213" y="638" on="1"/>
      </contour>
      <contour>
        <pt x="75" y="577" on="1"/>
        <pt x="539" y="577" on="1"/>
        <pt x="539" y="475" on="1"/>
        <pt x="210" y="475" on="1"/>
        <pt x="210" y="337" on="1"/>
        <pt x="511" y="337" on="1"/>
        <pt x="511" y="246" on="1"/>
        <pt x="210" y="246" on="1"/>
        <pt x="210" y="102" on="1"/>
        <pt x="547" y="102" on="1"/>
        <pt x="547" y="0" on="1"/>
        <pt x="75" y="0" on="1"/>
      </contour>
    </TTGlyph>
    <TTGlyph name="Emacron" xMin="78" yMin="0" xMax="600" yMax="937">
      <contour>
        <pt x="154" y="937" on="1"/>
        <pt x="520" y="937" on="1"/>
        <pt x="520" y="841" on="1"/>
        <pt x="154" y="841" on="1"/>
      </contour>
      <contour>
        <pt x="78" y="740" on="1"/>
        <pt x="591" y="740" on="1"/>
        <pt x="591" y="628" on="1"/>
        <pt x="220" y="628" on="1"/>
        <pt x="220" y="429" on="1"/>
        <pt x="560" y="429" on="1"/>
        <pt x="560" y="317" on="1"/>
        <pt x="220" y="317" on="1"/>
        <pt x="220" y="112" on="1"/>
        <pt x="600" y="112" on="1"/>
        <pt x="600" y="0" on="1"/>
        <pt x="78" y="0" on="1"/>
      </contour>
    </TTGlyph>
    <TTGlyph name="Emacron.sc" xMin="75" yMin="0" xMax="547" yMax="744">
      <contour>
        <pt x="75" y="577" on="1"/>
        <pt x="539" y="577" on="1"/>
        <pt x="539" y="475" on="1"/>
        <pt x="210" y="475" on="1"/>
        <pt x="210" y="337" on="1"/>
        <pt x="511" y="337" on="1"/>
        <pt x="511" y="246" on="1"/>
        <pt x="210" y="246" on="1"/>
        <pt x="210" y="102" on="1"/>
        <pt x="547" y="102" on="1"/>
        <pt x="547" y="0" on="1"/>
        <pt x="75" y="0" on="1"/>
      </contour>
      <contour>
        <pt x="142" y="744" on="1"/>
        <pt x="476" y="744" on="1"/>
        <pt x="476" y="656" on="1"/>
        <pt x="142" y="656" on="1"/>
      </contour>
    </TTGlyph>
    <TTGlyph name="Eng" xMin="78" yMin="-201" xMax="723" yMax="740">
      <contour>
        <pt x="512" y="-171" on="1"/>
        <pt x="541" y="-113" on="0"/>
        <pt x="576" y="-10" on="0"/>
        <pt x="581" y="36" on="1"/>
        <pt x="275" y="439" on="1"/>
        <pt x="213" y="529" on="1"/>
        <pt x="205" y="529" on="1"/>
        <pt x="205" y="0" on="1"/>
        <pt x="78" y="0" on="1"/>
        <pt x="78" y="740" on="1"/>
        <pt x="190" y="740" on="1"/>
        <pt x="529" y="297" on="1"/>
        <pt x="588" y="211" on="1"/>
        <pt x="596" y="211" on="1"/>
        <pt x="596" y="740" on="1"/>
        <pt x="723" y="740" on="1"/>
        <pt x="723" y="105" on="1"/>
        <pt x="723" y="75" on="0"/>
        <pt x="705" y="-2" on="0"/>
        <pt x="674" y="-85" on="0"/>
        <pt x="631" y="-167" on="0"/>
        <pt x="607" y="-201" on="1"/>
      </contour>
    </TTGlyph>
    <TTGlyph name="Eng.sc" xMin="75" yMin="-162" xMax="643" yMax="577">
      <contour>
        <pt x="455" y="-133" on="1"/>
        <pt x="481" y="-83" on="0"/>
        <pt x="510" y="-8" on="0"/>
        <pt x="515" y="25" on="1"/>
        <pt x="260" y="312" on="1"/>
        <pt x="202" y="384" on="1"/>
        <pt x="195" y="384" on="1"/>
        <pt x="195" y="0" on="1"/>
        <pt x="75" y="0" on="1"/>
        <pt x="75" y="577" on="1"/>
        <pt x="180" y="577" on="1"/>
        <pt x="462" y="260" on="1"/>
        <pt x="516" y="193" on="1"/>
        <pt x="522" y="193" on="1"/>
        <pt x="522" y="577" on="1"/>
        <pt x="643" y="577" on="1"/>
        <pt x="643" y="91" on="1"/>
        <pt x="643" y="65" on="0"/>
        <pt x="629" y="3" on="0"/>
        <pt x="603" y="-63" on="0"/>
        <pt x="567" y="-131" on="0"/>
        <pt x="545" y="-162" on="1"/>
      </contour>
    </TTGlyph>
    <TTGlyph name="Eogonek" xMin="78" yMin="-220" xMax="600" yMax="740">
      <contour>
        <pt x="78" y="740" on="1"/>
        <pt x="591" y="740" on="1"/>
        <pt x="591" y="628" on="1"/>
        <pt x="220" y="628" on="1"/>
        <pt x="220" y="429" on="1"/>
        <pt x="560" y="429" on="1"/>
        <pt x="560" y="317" on="1"/>
        <pt x="220" y="317" on="1"/>
        <pt x="220" y="112" on="1"/>
        <pt x="600" y="112" on="1"/>
        <pt x="600" y="-13" on="1"/>
        <pt x="535" y="-41" on="0"/>
        <pt x="481" y="-90" on="0"/>
        <pt x="481" y="-114" on="1"/>
        <pt x="481" y="-143" on="0"/>
        <pt x="520" y="-143" on="1"/>
        <pt x="534" y="-143" on="0"/>
        <pt x="580" y="-135" on="0"/>
        <pt x="600" y="-130" on="1"/>
        <pt x="600" y="-208" on="1"/>
        <pt x="564" y="-220" on="0"/>
        <pt x="518" y="-220" on="1"/>
        <pt x="455" y="-220" on="0"/>
        <pt x="389" y="-175" on="0"/>
        <pt x="389" y="-130" on="1"/>
        <pt x="389" y="-59" on="0"/>
        <pt x="486" y="0" on="1"/>
        <pt x="78" y="0" on="1"/>
      </contour>
    </TTGlyph>
    <TTGlyph name="Eogonek.sc" xMin="75" yMin="-172" xMax="547" yMax="577">
      <contour>
        <pt x="472" y="-172" on="1"/>
        <pt x="354" y="-172" on="0"/>
        <pt x="354" y="-99" on="1"/>
        <pt x="354" y="-69" on="0"/>
        <pt x="392" y="-22" on="0"/>
        <pt x="434" y="0" on="1"/>
        <pt x="75" y="0" on="1"/>
        <pt x="75" y="577" on="1"/>
        <pt x="539" y="577" on="1"/>
        <pt x="539" y="475" on="1"/>
        <pt x="210" y="475" on="1"/>
        <pt x="210" y="337" on="1"/>
        <pt x="511" y="337" on="1"/>
        <pt x="511" y="246" on="1"/>
        <pt x="210" y="246" on="1"/>
        <pt x="210" y="102" on="1"/>
        <pt x="547" y="102" on="1"/>
        <pt x="547" y="-8" on="1"/>
        <pt x="484" y="-31" on="0"/>
        <pt x="441" y="-64" on="0"/>
        <pt x="441" y="-81" on="1"/>
        <pt x="441" y="-100" on="0"/>
        <pt x="473" y="-100" on="1"/>
        <pt x="487" y="-100" on="0"/>
        <pt x="533" y="-94" on="0"/>
        <pt x="547" y="-90" on="1"/>
        <pt x="547" y="-162" on="1"/>
        <pt x="529" y="-167" on="0"/>
        <pt x="491" y="-172" on="0"/>
      </contour>
    </TTGlyph>
    <TTGlyph name="Eth" xMin="4" yMin="-11" xMax="732" yMax="749">
      <contour>
        <pt x="4" y="426" on="1"/>
        <pt x="96" y="426" on="1"/>
        <pt x="96" y="738" on="1"/>
        <pt x="165" y="743" on="0"/>
        <pt x="288" y="749" on="0"/>
        <pt x="331" y="749" on="1"/>
        <pt x="435" y="749" on="0"/>
        <pt x="587" y="704" on="0"/>
        <pt x="685" y="611" on="0"/>
        <pt x="732" y="468" on="0"/>
        <pt x="732" y="369" on="1"/>
        <pt x="732" y="268" on="0"/>
        <pt x="683" y="125" on="0"/>
        <pt x="579" y="32" on="0"/>
        <pt x="416" y="-11" on="0"/>
        <pt x="302" y="-11" on="1"/>
        <pt x="243" y="-11" on="0"/>
        <pt x="131" y="-4" on="0"/>
        <pt x="96" y="3" on="1"/>
        <pt x="96" y="317" on="1"/>
        <pt x="4" y="317" on="1"/>
      </contour>
      <contour>
        <pt x="353" y="103" on="1"/>
        <pt x="416" y="103" on="0"/>
        <pt x="504" y="132" on="0"/>
        <pt x="561" y="196" on="0"/>
        <pt x="587" y="298" on="0"/>
        <pt x="587" y="370" on="1"/>
        <pt x="587" y="442" on="0"/>
        <pt x="561" y="542" on="0"/>
        <pt x="504" y="606" on="0"/>
        <pt x="414" y="635" on="0"/>
        <pt x="350" y="635" on="1"/>
        <pt x="327" y="635" on="0"/>
        <pt x="268" y="631" on="0"/>
        <pt x="237" y="628" on="1"/>
        <pt x="237" y="426" on="1"/>
        <pt x="383" y="426" on="1"/>
        <pt x="383" y="317" on="1"/>
        <pt x="237" y="317" on="1"/>
        <pt x="237" y="112" on="1"/>
        <pt x="269" y="107" on="0"/>
        <pt x="323" y="103" on="0"/>
      </contour>
    </TTGlyph>
    <TTGlyph name="Eth.sc" xMin="11" yMin="-8" xMax="666" yMax="584">
      <contour>
        <pt x="11" y="337" on="1"/>
        <pt x="92" y="337" on="1"/>
        <pt x="92" y="576" on="1"/>
        <pt x="156" y="580" on="0"/>
        <pt x="268" y="584" on="0"/>
        <pt x="307" y="584" on="1"/>
        <pt x="494" y="584" on="0"/>
        <pt x="666" y="442" on="0"/>
        <pt x="666" y="288" on="1"/>
        <pt x="666" y="209" on="0"/>
        <pt x="622" y="97" on="0"/>
        <pt x="529" y="25" on="0"/>
        <pt x="381" y="-8" on="0"/>
        <pt x="278" y="-8" on="1"/>
        <pt x="224" y="-8" on="0"/>
        <pt x="123" y="-2" on="0"/>
        <pt x="92" y="3" on="1"/>
        <pt x="92" y="242" on="1"/>
        <pt x="11" y="242" on="1"/>
      </contour>
      <contour>
        <pt x="329" y="99" on="1"/>
        <pt x="383" y="99" on="0"/>
        <pt x="459" y="119" on="0"/>
        <pt x="507" y="163" on="0"/>
        <pt x="529" y="235" on="0"/>
        <pt x="529" y="288" on="1"/>
        <pt x="529" y="340" on="0"/>
        <pt x="507" y="412" on="0"/>
        <pt x="458" y="457" on="0"/>
        <pt x="381" y="477" on="0"/>
        <pt x="326" y="477" on="1"/>
        <pt x="306" y="477" on="0"/>
        <pt x="255" y="474" on="0"/>
        <pt x="226" y="472" on="1"/>
        <pt x="226" y="337" on="1"/>
        <pt x="351" y="337" on="1"/>
        <pt x="351" y="242" on="1"/>
        <pt x="226" y="242" on="1"/>
        <pt x="226" y="106" on="1"/>
        <pt x="253" y="102" on="0"/>
        <pt x="303" y="99" on="0"/>
      </contour>
    </TTGlyph>
    <TTGlyph name="Etilde" xMin="78" yMin="0" xMax="600" yMax="961">
      <contour>
        <pt x="119" y="858" on="1"/>
        <pt x="151" y="909" on="0"/>
        <pt x="228" y="961" on="0"/>
        <pt x="265" y="961" on="1"/>
        <pt x="290" y="961" on="0"/>
        <pt x="336" y="948" on="0"/>
        <pt x="381" y="933" on="0"/>
        <pt x="427" y="921" on="0"/>
        <pt x="451" y="921" on="1"/>
        <pt x="474" y="921" on="0"/>
        <pt x="518" y="938" on="0"/>
        <pt x="544" y="959" on="1"/>
        <pt x="567" y="929" on="1"/>
        <pt x="537" y="878" on="0"/>
        <pt x="457" y="826" on="0"/>
        <pt x="419" y="826" on="1"/>
        <pt x="395" y="826" on="0"/>
        <pt x="349" y="838" on="0"/>
        <pt x="304" y="853" on="0"/>
        <pt x="258" y="865" on="0"/>
        <pt x="235" y="865" on="1"/>
        <pt x="212" y="865" on="0"/>
        <pt x="168" y="849" on="0"/>
        <pt x="143" y="829" on="1"/>
      </contour>
      <contour>
        <pt x="78" y="740" on="1"/>
        <pt x="591" y="740" on="1"/>
        <pt x="591" y="628" on="1"/>
        <pt x="220" y="628" on="1"/>
        <pt x="220" y="429" on="1"/>
        <pt x="560" y="429" on="1"/>
        <pt x="560" y="317" on="1"/>
        <pt x="220" y="317" on="1"/>
        <pt x="220" y="112" on="1"/>
        <pt x="600" y="112" on="1"/>
        <pt x="600" y="0" on="1"/>
        <pt x="78" y="0" on="1"/>
      </contour>
    </TTGlyph>
    <TTGlyph name="Etilde.sc" xMin="75" yMin="0" xMax="547" yMax="762">
      <contour>
        <pt x="110" y="670" on="1"/>
        <pt x="139" y="716" on="0"/>
        <pt x="210" y="762" on="0"/>
        <pt x="244" y="762" on="1"/>
        <pt x="266" y="762" on="0"/>
        <pt x="308" y="753" on="0"/>
        <pt x="349" y="741" on="0"/>
        <pt x="391" y="732" on="0"/>
        <pt x="413" y="732" on="1"/>
        <pt x="433" y="732" on="0"/>
        <pt x="473" y="744" on="0"/>
        <pt x="496" y="761" on="1"/>
        <pt x="518" y="736" on="1"/>
        <pt x="489" y="690" on="0"/>
        <pt x="416" y="644" on="0"/>
        <pt x="382" y="644" on="1"/>
        <pt x="361" y="644" on="0"/>
        <pt x="319" y="653" on="0"/>
        <pt x="277" y="665" on="0"/>
        <pt x="235" y="674" on="0"/>
        <pt x="214" y="674" on="1"/>
        <pt x="193" y="674" on="0"/>
        <pt x="154" y="662" on="0"/>
        <pt x="131" y="645" on="1"/>
      </contour>
      <contour>
        <pt x="75" y="577" on="1"/>
        <pt x="539" y="577" on="1"/>
        <pt x="539" y="475" on="1"/>
        <pt x="210" y="475" on="1"/>
        <pt x="210" y="337" on="1"/>
        <pt x="511" y="337" on="1"/>
        <pt x="511" y="246" on="1"/>
        <pt x="210" y="246" on="1"/>
        <pt x="210" y="102" on="1"/>
        <pt x="547" y="102" on="1"/>
        <pt x="547" y="0" on="1"/>
        <pt x="75" y="0" on="1"/>
      </contour>
    </TTGlyph>
    <TTGlyph name="Euro" xMin="38" yMin="-10" xMax="633" yMax="749">
      <contour>
        <pt x="38" y="495" on="1"/>
        <pt x="127" y="495" on="1"/>
        <pt x="152" y="625" on="0"/>
        <pt x="330" y="749" on="0"/>
        <pt x="493" y="749" on="1"/>
        <pt x="541" y="749" on="0"/>
        <pt x="609" y="740" on="0"/>
        <pt x="633" y="736" on="1"/>
        <pt x="597" y="622" on="1"/>
        <pt x="584" y="624" on="0"/>
        <pt x="540" y="629" on="0"/>
        <pt x="520" y="629" on="1"/>
        <pt x="461" y="629" on="0"/>
        <pt x="375" y="616" on="0"/>
        <pt x="316" y="584" on="0"/>
        <pt x="279" y="533" on="0"/>
        <pt x="270" y="495" on="1"/>
        <pt x="555" y="495" on="1"/>
        <pt x="537" y="413" on="1"/>
        <pt x="260" y="413" on="1"/>
        <pt x="259" y="402" on="0"/>
        <pt x="259" y="380" on="0"/>
        <pt x="259" y="369" on="1"/>
        <pt x="259" y="358" on="0"/>
        <pt x="259" y="336" on="0"/>
        <pt x="260" y="326" on="1"/>
        <pt x="520" y="326" on="1"/>
        <pt x="501" y="245" on="1"/>
        <pt x="271" y="245" on="1"/>
        <pt x="280" y="207" on="0"/>
        <pt x="317" y="156" on="0"/>
        <pt x="377" y="124" on="0"/>
        <pt x="462" y="110" on="0"/>
        <pt x="520" y="110" on="1"/>
        <pt x="545" y="110" on="0"/>
        <pt x="597" y="114" on="0"/>
        <pt x="625" y="120" on="1"/>
        <pt x="625" y="2" on="1"/>
        <pt x="604" y="-4" on="0"/>
        <pt x="539" y="-10" on="0"/>
        <pt x="501" y="-10" on="1"/>
        <pt x="333" y="-9" on="0"/>
        <pt x="153" y="116" on="0"/>
        <pt x="127" y="245" on="1"/>
        <pt x="38" y="245" on="1"/>
        <pt x="38" y="326" on="1"/>
        <pt x="117" y="326" on="1"/>
        <pt x="116" y="337" on="0"/>
        <pt x="116" y="358" on="0"/>
        <pt x="116" y="369" on="1"/>
        <pt x="116" y="380" on="0"/>
        <pt x="116" y="402" on="0"/>
        <pt x="117" y="413" on="1"/>
        <pt x="38" y="413" on="1"/>
      </contour>
    </TTGlyph>
    <TTGlyph name="Euro.tab" xMin="12" yMin="-10" xMax="584" yMax="749">
      <contour>
        <pt x="12" y="495" on="1"/>
        <pt x="97" y="495" on="1"/>
        <pt x="122" y="626" on="0"/>
        <pt x="291" y="749" on="0"/>
        <pt x="447" y="749" on="1"/>
        <pt x="494" y="749" on="0"/>
        <pt x="561" y="740" on="0"/>
        <pt x="584" y="736" on="1"/>
        <pt x="549" y="622" on="1"/>
        <pt x="537" y="624" on="0"/>
        <pt x="494" y="629" on="0"/>
        <pt x="474" y="629" on="1"/>
        <pt x="369" y="629" on="0"/>
        <pt x="260" y="569" on="0"/>
        <pt x="242" y="495" on="1"/>
        <pt x="509" y="495" on="1"/>
        <pt x="492" y="413" on="1"/>
        <pt x="227" y="413" on="1"/>
        <pt x="226" y="406" on="0"/>
        <pt x="226" y="377" on="0"/>
        <pt x="226" y="369" on="1"/>
        <pt x="226" y="361" on="0"/>
        <pt x="226" y="334" on="0"/>
        <pt x="227" y="326" on="1"/>
        <pt x="476" y="326" on="1"/>
        <pt x="458" y="245" on="1"/>
        <pt x="242" y="245" on="1"/>
        <pt x="261" y="172" on="0"/>
        <pt x="370" y="110" on="0"/>
        <pt x="474" y="110" on="1"/>
        <pt x="499" y="110" on="0"/>
        <pt x="549" y="114" on="0"/>
        <pt x="576" y="120" on="1"/>
        <pt x="576" y="2" on="1"/>
        <pt x="556" y="-4" on="0"/>
        <pt x="493" y="-10" on="0"/>
        <pt x="455" y="-10" on="1"/>
        <pt x="295" y="-9" on="0"/>
        <pt x="123" y="115" on="0"/>
        <pt x="97" y="245" on="1"/>
        <pt x="12" y="245" on="1"/>
        <pt x="12" y="326" on="1"/>
        <pt x="86" y="326" on="1"/>
        <pt x="86" y="334" on="0"/>
        <pt x="85" y="360" on="0"/>
        <pt x="85" y="369" on="1"/>
        <pt x="85" y="378" on="0"/>
        <pt x="86" y="405" on="0"/>
        <pt x="86" y="413" on="1"/>
        <pt x="12" y="413" on="1"/>
      </contour>
    </TTGlyph>
    <TTGlyph name="F" xMin="78" yMin="0" xMax="587" yMax="740">
      <contour>
        <pt x="78" y="740" on="1"/>
        <pt x="587" y="740" on="1"/>
        <pt x="587" y="628" on="1"/>
        <pt x="220" y="628" on="1"/>
        <pt x="220" y="414" on="1"/>
        <pt x="552" y="414" on="1"/>
        <pt x="552" y="302" on="1"/>
        <pt x="220" y="302" on="1"/>
        <pt x="220" y="0" on="1"/>
        <pt x="78" y="0" on="1"/>
      </contour>
    </TTGlyph>
    <TTGlyph name="F.sc" xMin="75" yMin="0" xMax="536" yMax="577">
      <contour>
        <pt x="75" y="577" on="1"/>
        <pt x="536" y="577" on="1"/>
        <pt x="536" y="472" on="1"/>
        <pt x="210" y="472" on="1"/>
        <pt x="210" y="323" on="1"/>
        <pt x="504" y="323" on="1"/>
        <pt x="504" y="226" on="1"/>
        <pt x="210" y="226" on="1"/>
        <pt x="210" y="0" on="1"/>
        <pt x="75" y="0" on="1"/>
      </contour>
    </TTGlyph>
    <TTGlyph name="F_B.sc" xMin="75" yMin="-8" xMax="1152" yMax="585">
      <contour>
        <pt x="75" y="577" on="1"/>
        <pt x="536" y="577" on="1"/>
        <pt x="536" y="472" on="1"/>
        <pt x="210" y="472" on="1"/>
        <pt x="210" y="323" on="1"/>
        <pt x="504" y="323" on="1"/>
        <pt x="504" y="226" on="1"/>
        <pt x="210" y="226" on="1"/>
        <pt x="210" y="0" on="1"/>
        <pt x="75" y="0" on="1"/>
      </contour>
      <contour>
        <pt x="878" y="-8" on="1"/>
        <pt x="818" y="-8" on="0"/>
        <pt x="696" y="-2" on="0"/>
        <pt x="628" y="4" on="1"/>
        <pt x="628" y="573" on="1"/>
        <pt x="695" y="579" on="0"/>
        <pt x="805" y="585" on="0"/>
        <pt x="858" y="585" on="1"/>
        <pt x="1002" y="585" on="0"/>
        <pt x="1131" y="508" on="0"/>
        <pt x="1131" y="423" on="1"/>
        <pt x="1131" y="374" on="0"/>
        <pt x="1073" y="310" on="0"/>
        <pt x="1017" y="298" on="1"/>
        <pt x="1017" y="295" on="1"/>
        <pt x="1083" y="284" on="0"/>
        <pt x="1152" y="214" on="0"/>
        <pt x="1152" y="157" on="1"/>
        <pt x="1152" y="72" on="0"/>
        <pt x="1018" y="-8" on="0"/>
      </contour>
      <contour>
        <pt x="876" y="85" on="1"/>
        <pt x="1019" y="85" on="0"/>
        <pt x="1019" y="169" on="1"/>
        <pt x="1019" y="213" on="0"/>
        <pt x="954" y="251" on="0"/>
        <pt x="882" y="251" on="1"/>
        <pt x="757" y="251" on="1"/>
        <pt x="757" y="90" on="1"/>
        <pt x="774" y="87" on="0"/>
        <pt x="824" y="85" on="0"/>
      </contour>
      <contour>
        <pt x="872" y="333" on="1"/>
        <pt x="941" y="333" on="0"/>
        <pt x="998" y="369" on="0"/>
        <pt x="998" y="413" on="1"/>
        <pt x="998" y="457" on="0"/>
        <pt x="938" y="492" on="0"/>
        <pt x="865" y="492" on="1"/>
        <pt x="833" y="492" on="0"/>
        <pt x="780" y="490" on="0"/>
        <pt x="757" y="487" on="1"/>
        <pt x="757" y="333" on="1"/>
      </contour>
    </TTGlyph>
    <TTGlyph name="F_F.sc" xMin="75" yMin="0" xMax="1089" yMax="577">
      <contour>
        <pt x="75" y="577" on="1"/>
        <pt x="536" y="577" on="1"/>
        <pt x="536" y="472" on="1"/>
        <pt x="210" y="472" on="1"/>
        <pt x="210" y="323" on="1"/>
        <pt x="504" y="323" on="1"/>
        <pt x="504" y="226" on="1"/>
        <pt x="210" y="226" on="1"/>
        <pt x="210" y="0" on="1"/>
        <pt x="75" y="0" on="1"/>
      </contour>
      <contour>
        <pt x="628" y="577" on="1"/>
        <pt x="1089" y="577" on="1"/>
        <pt x="1089" y="472" on="1"/>
        <pt x="763" y="472" on="1"/>
        <pt x="763" y="323" on="1"/>
        <pt x="1057" y="323" on="1"/>
        <pt x="1057" y="226" on="1"/>
        <pt x="763" y="226" on="1"/>
        <pt x="763" y="0" on="1"/>
        <pt x="628" y="0" on="1"/>
      </contour>
    </TTGlyph>
    <TTGlyph name="F_F_B.sc" xMin="75" yMin="-8" xMax="1706" yMax="585">
      <contour>
        <pt x="75" y="577" on="1"/>
        <pt x="536" y="577" on="1"/>
        <pt x="536" y="472" on="1"/>
        <pt x="210" y="472" on="1"/>
        <pt x="210" y="323" on="1"/>
        <pt x="504" y="323" on="1"/>
        <pt x="504" y="226" on="1"/>
        <pt x="210" y="226" on="1"/>
        <pt x="210" y="0" on="1"/>
        <pt x="75" y="0" on="1"/>
      </contour>
      <contour>
        <pt x="629" y="577" on="1"/>
        <pt x="1090" y="577" on="1"/>
        <pt x="1090" y="472" on="1"/>
        <pt x="764" y="472" on="1"/>
        <pt x="764" y="323" on="1"/>
        <pt x="1058" y="323" on="1"/>
        <pt x="1058" y="226" on="1"/>
        <pt x="764" y="226" on="1"/>
        <pt x="764" y="0" on="1"/>
        <pt x="629" y="0" on="1"/>
      </contour>
      <contour>
        <pt x="1432" y="-8" on="1"/>
        <pt x="1372" y="-8" on="0"/>
        <pt x="1250" y="-2" on="0"/>
        <pt x="1182" y="4" on="1"/>
        <pt x="1182" y="573" on="1"/>
        <pt x="1249" y="579" on="0"/>
        <pt x="1359" y="585" on="0"/>
        <pt x="1412" y="585" on="1"/>
        <pt x="1556" y="585" on="0"/>
        <pt x="1685" y="508" on="0"/>
        <pt x="1685" y="423" on="1"/>
        <pt x="1685" y="374" on="0"/>
        <pt x="1627" y="310" on="0"/>
        <pt x="1571" y="298" on="1"/>
        <pt x="1571" y="295" on="1"/>
        <pt x="1637" y="284" on="0"/>
        <pt x="1706" y="214" on="0"/>
        <pt x="1706" y="157" on="1"/>
        <pt x="1706" y="72" on="0"/>
        <pt x="1572" y="-8" on="0"/>
      </contour>
      <contour>
        <pt x="1430" y="85" on="1"/>
        <pt x="1573" y="85" on="0"/>
        <pt x="1573" y="169" on="1"/>
        <pt x="1573" y="213" on="0"/>
        <pt x="1508" y="251" on="0"/>
        <pt x="1436" y="251" on="1"/>
        <pt x="1311" y="251" on="1"/>
        <pt x="1311" y="90" on="1"/>
        <pt x="1328" y="87" on="0"/>
        <pt x="1378" y="85" on="0"/>
      </contour>
      <contour>
        <pt x="1426" y="333" on="1"/>
        <pt x="1495" y="333" on="0"/>
        <pt x="1552" y="369" on="0"/>
        <pt x="1552" y="413" on="1"/>
        <pt x="1552" y="457" on="0"/>
        <pt x="1492" y="492" on="0"/>
        <pt x="1419" y="492" on="1"/>
        <pt x="1387" y="492" on="0"/>
        <pt x="1334" y="490" on="0"/>
        <pt x="1311" y="487" on="1"/>
        <pt x="1311" y="333" on="1"/>
      </contour>
    </TTGlyph>
    <TTGlyph name="F_F_H.sc" xMin="75" yMin="0" xMax="1762" yMax="577">
      <contour>
        <pt x="75" y="577" on="1"/>
        <pt x="536" y="577" on="1"/>
        <pt x="536" y="472" on="1"/>
        <pt x="210" y="472" on="1"/>
        <pt x="210" y="323" on="1"/>
        <pt x="504" y="323" on="1"/>
        <pt x="504" y="226" on="1"/>
        <pt x="210" y="226" on="1"/>
        <pt x="210" y="0" on="1"/>
        <pt x="75" y="0" on="1"/>
      </contour>
      <contour>
        <pt x="628" y="577" on="1"/>
        <pt x="1089" y="577" on="1"/>
        <pt x="1089" y="472" on="1"/>
        <pt x="763" y="472" on="1"/>
        <pt x="763" y="323" on="1"/>
        <pt x="1057" y="323" on="1"/>
        <pt x="1057" y="226" on="1"/>
        <pt x="763" y="226" on="1"/>
        <pt x="763" y="0" on="1"/>
        <pt x="628" y="0" on="1"/>
      </contour>
      <contour>
        <pt x="1182" y="577" on="1"/>
        <pt x="1317" y="577" on="1"/>
        <pt x="1317" y="348" on="1"/>
        <pt x="1627" y="348" on="1"/>
        <pt x="1627" y="577" on="1"/>
        <pt x="1762" y="577" on="1"/>
        <pt x="1762" y="0" on="1"/>
        <pt x="1627" y="0" on="1"/>
        <pt x="1627" y="244" on="1"/>
        <pt x="1317" y="244" on="1"/>
        <pt x="1317" y="0" on="1"/>
        <pt x="1182" y="0" on="1"/>
      </contour>
    </TTGlyph>
    <TTGlyph name="F_F_I.sc" xMin="75" yMin="0" xMax="1317" yMax="577">
      <contour>
        <pt x="75" y="577" on="1"/>
        <pt x="536" y="577" on="1"/>
        <pt x="536" y="472" on="1"/>
        <pt x="210" y="472" on="1"/>
        <pt x="210" y="323" on="1"/>
        <pt x="504" y="323" on="1"/>
        <pt x="504" y="226" on="1"/>
        <pt x="210" y="226" on="1"/>
        <pt x="210" y="0" on="1"/>
        <pt x="75" y="0" on="1"/>
      </contour>
      <contour>
        <pt x="628" y="577" on="1"/>
        <pt x="1089" y="577" on="1"/>
        <pt x="1089" y="472" on="1"/>
        <pt x="763" y="472" on="1"/>
        <pt x="763" y="323" on="1"/>
        <pt x="1057" y="323" on="1"/>
        <pt x="1057" y="226" on="1"/>
        <pt x="763" y="226" on="1"/>
        <pt x="763" y="0" on="1"/>
        <pt x="628" y="0" on="1"/>
      </contour>
      <contour>
        <pt x="1182" y="577" on="1"/>
        <pt x="1317" y="577" on="1"/>
        <pt x="1317" y="0" on="1"/>
        <pt x="1182" y="0" on="1"/>
      </contour>
    </TTGlyph>
    <TTGlyph name="F_F_J.sc" xMin="75" yMin="-162" xMax="1327" yMax="577">
      <contour>
        <pt x="75" y="577" on="1"/>
        <pt x="536" y="577" on="1"/>
        <pt x="536" y="472" on="1"/>
        <pt x="210" y="472" on="1"/>
        <pt x="210" y="323" on="1"/>
        <pt x="504" y="323" on="1"/>
        <pt x="504" y="226" on="1"/>
        <pt x="210" y="226" on="1"/>
        <pt x="210" y="0" on="1"/>
        <pt x="75" y="0" on="1"/>
      </contour>
      <contour>
        <pt x="629" y="577" on="1"/>
        <pt x="1090" y="577" on="1"/>
        <pt x="1090" y="472" on="1"/>
        <pt x="764" y="472" on="1"/>
        <pt x="764" y="323" on="1"/>
        <pt x="1058" y="323" on="1"/>
        <pt x="1058" y="226" on="1"/>
        <pt x="764" y="226" on="1"/>
        <pt x="764" y="0" on="1"/>
        <pt x="629" y="0" on="1"/>
      </contour>
      <contour>
        <pt x="1124" y="-123" on="1"/>
        <pt x="1143" y="-84" on="0"/>
        <pt x="1170" y="-19" on="0"/>
        <pt x="1185" y="45" on="0"/>
        <pt x="1192" y="112" on="0"/>
        <pt x="1192" y="152" on="1"/>
        <pt x="1192" y="577" on="1"/>
        <pt x="1327" y="577" on="1"/>
        <pt x="1327" y="142" on="1"/>
        <pt x="1327" y="102" on="0"/>
        <pt x="1315" y="31" on="0"/>
        <pt x="1288" y="-41" on="0"/>
        <pt x="1244" y="-117" on="0"/>
        <pt x="1212" y="-162" on="1"/>
      </contour>
    </TTGlyph>
    <TTGlyph name="F_F_K.sc" xMin="75" yMin="0" xMax="1752" yMax="577">
      <contour>
        <pt x="75" y="577" on="1"/>
        <pt x="536" y="577" on="1"/>
        <pt x="536" y="472" on="1"/>
        <pt x="210" y="472" on="1"/>
        <pt x="210" y="323" on="1"/>
        <pt x="504" y="323" on="1"/>
        <pt x="504" y="226" on="1"/>
        <pt x="210" y="226" on="1"/>
        <pt x="210" y="0" on="1"/>
        <pt x="75" y="0" on="1"/>
      </contour>
      <contour>
        <pt x="628" y="577" on="1"/>
        <pt x="1089" y="577" on="1"/>
        <pt x="1089" y="472" on="1"/>
        <pt x="763" y="472" on="1"/>
        <pt x="763" y="323" on="1"/>
        <pt x="1057" y="323" on="1"/>
        <pt x="1057" y="226" on="1"/>
        <pt x="763" y="226" on="1"/>
        <pt x="763" y="0" on="1"/>
        <pt x="628" y="0" on="1"/>
      </contour>
      <contour>
        <pt x="1182" y="577" on="1"/>
        <pt x="1317" y="577" on="1"/>
        <pt x="1317" y="344" on="1"/>
        <pt x="1419" y="344" on="1"/>
        <pt x="1585" y="577" on="1"/>
        <pt x="1736" y="577" on="1"/>
        <pt x="1550" y="324" on="1"/>
        <pt x="1509" y="304" on="1"/>
        <pt x="1509" y="297" on="1"/>
        <pt x="1552" y="276" on="1"/>
        <pt x="1752" y="0" on="1"/>
        <pt x="1600" y="0" on="1"/>
        <pt x="1429" y="239" on="1"/>
        <pt x="1317" y="239" on="1"/>
        <pt x="1317" y="0" on="1"/>
        <pt x="1182" y="0" on="1"/>
      </contour>
    </TTGlyph>
    <TTGlyph name="F_F_L.sc" xMin="75" yMin="0" xMax="1605" yMax="577">
      <contour>
        <pt x="1182" y="577" on="1"/>
        <pt x="1317" y="577" on="1"/>
        <pt x="1317" y="105" on="1"/>
        <pt x="1605" y="105" on="1"/>
        <pt x="1605" y="0" on="1"/>
        <pt x="1182" y="0" on="1"/>
      </contour>
      <contour>
        <pt x="75" y="577" on="1"/>
        <pt x="536" y="577" on="1"/>
        <pt x="536" y="472" on="1"/>
        <pt x="210" y="472" on="1"/>
        <pt x="210" y="323" on="1"/>
        <pt x="504" y="323" on="1"/>
        <pt x="504" y="226" on="1"/>
        <pt x="210" y="226" on="1"/>
        <pt x="210" y="0" on="1"/>
        <pt x="75" y="0" on="1"/>
      </contour>
      <contour>
        <pt x="628" y="577" on="1"/>
        <pt x="1089" y="577" on="1"/>
        <pt x="1089" y="472" on="1"/>
        <pt x="763" y="472" on="1"/>
        <pt x="763" y="323" on="1"/>
        <pt x="1057" y="323" on="1"/>
        <pt x="1057" y="226" on="1"/>
        <pt x="763" y="226" on="1"/>
        <pt x="763" y="0" on="1"/>
        <pt x="628" y="0" on="1"/>
      </contour>
    </TTGlyph>
    <TTGlyph name="F_F_T.sc" xMin="75" yMin="0" xMax="1640" yMax="577">
      <contour>
        <pt x="1308" y="472" on="1"/>
        <pt x="1111" y="472" on="1"/>
        <pt x="1111" y="577" on="1"/>
        <pt x="1640" y="577" on="1"/>
        <pt x="1640" y="472" on="1"/>
        <pt x="1443" y="472" on="1"/>
        <pt x="1443" y="0" on="1"/>
        <pt x="1308" y="0" on="1"/>
      </contour>
      <contour>
        <pt x="75" y="577" on="1"/>
        <pt x="536" y="577" on="1"/>
        <pt x="536" y="472" on="1"/>
        <pt x="210" y="472" on="1"/>
        <pt x="210" y="323" on="1"/>
        <pt x="504" y="323" on="1"/>
        <pt x="504" y="226" on="1"/>
        <pt x="210" y="226" on="1"/>
        <pt x="210" y="0" on="1"/>
        <pt x="75" y="0" on="1"/>
      </contour>
      <contour>
        <pt x="628" y="577" on="1"/>
        <pt x="1089" y="577" on="1"/>
        <pt x="1089" y="472" on="1"/>
        <pt x="763" y="472" on="1"/>
        <pt x="763" y="323" on="1"/>
        <pt x="1057" y="323" on="1"/>
        <pt x="1057" y="226" on="1"/>
        <pt x="763" y="226" on="1"/>
        <pt x="763" y="0" on="1"/>
        <pt x="628" y="0" on="1"/>
      </contour>
    </TTGlyph>
    <TTGlyph name="F_H.sc" xMin="75" yMin="0" xMax="1208" yMax="577">
      <contour>
        <pt x="75" y="577" on="1"/>
        <pt x="536" y="577" on="1"/>
        <pt x="536" y="472" on="1"/>
        <pt x="210" y="472" on="1"/>
        <pt x="210" y="323" on="1"/>
        <pt x="504" y="323" on="1"/>
        <pt x="504" y="226" on="1"/>
        <pt x="210" y="226" on="1"/>
        <pt x="210" y="0" on="1"/>
        <pt x="75" y="0" on="1"/>
      </contour>
      <contour>
        <pt x="628" y="577" on="1"/>
        <pt x="763" y="577" on="1"/>
        <pt x="763" y="348" on="1"/>
        <pt x="1073" y="348" on="1"/>
        <pt x="1073" y="577" on="1"/>
        <pt x="1208" y="577" on="1"/>
        <pt x="1208" y="0" on="1"/>
        <pt x="1073" y="0" on="1"/>
        <pt x="1073" y="244" on="1"/>
        <pt x="763" y="244" on="1"/>
        <pt x="763" y="0" on="1"/>
        <pt x="628" y="0" on="1"/>
      </contour>
    </TTGlyph>
    <TTGlyph name="F_I.sc" xMin="75" yMin="0" xMax="763" yMax="577">
      <contour>
        <pt x="75" y="577" on="1"/>
        <pt x="536" y="577" on="1"/>
        <pt x="536" y="472" on="1"/>
        <pt x="210" y="472" on="1"/>
        <pt x="210" y="323" on="1"/>
        <pt x="504" y="323" on="1"/>
        <pt x="504" y="226" on="1"/>
        <pt x="210" y="226" on="1"/>
        <pt x="210" y="0" on="1"/>
        <pt x="75" y="0" on="1"/>
      </contour>
      <contour>
        <pt x="628" y="577" on="1"/>
        <pt x="763" y="577" on="1"/>
        <pt x="763" y="0" on="1"/>
        <pt x="628" y="0" on="1"/>
      </contour>
    </TTGlyph>
    <TTGlyph name="F_J.sc" xMin="75" yMin="-162" xMax="773" yMax="577">
      <contour>
        <pt x="75" y="577" on="1"/>
        <pt x="536" y="577" on="1"/>
        <pt x="536" y="472" on="1"/>
        <pt x="210" y="472" on="1"/>
        <pt x="210" y="323" on="1"/>
        <pt x="504" y="323" on="1"/>
        <pt x="504" y="226" on="1"/>
        <pt x="210" y="226" on="1"/>
        <pt x="210" y="0" on="1"/>
        <pt x="75" y="0" on="1"/>
      </contour>
      <contour>
        <pt x="570" y="-123" on="1"/>
        <pt x="589" y="-84" on="0"/>
        <pt x="616" y="-19" on="0"/>
        <pt x="631" y="45" on="0"/>
        <pt x="638" y="112" on="0"/>
        <pt x="638" y="152" on="1"/>
        <pt x="638" y="577" on="1"/>
        <pt x="773" y="577" on="1"/>
        <pt x="773" y="142" on="1"/>
        <pt x="773" y="102" on="0"/>
        <pt x="761" y="31" on="0"/>
        <pt x="734" y="-41" on="0"/>
        <pt x="690" y="-117" on="0"/>
        <pt x="658" y="-162" on="1"/>
      </contour>
    </TTGlyph>
    <TTGlyph name="F_K.sc" xMin="75" yMin="0" xMax="1198" yMax="577">
      <contour>
        <pt x="75" y="577" on="1"/>
        <pt x="536" y="577" on="1"/>
        <pt x="536" y="472" on="1"/>
        <pt x="210" y="472" on="1"/>
        <pt x="210" y="323" on="1"/>
        <pt x="504" y="323" on="1"/>
        <pt x="504" y="226" on="1"/>
        <pt x="210" y="226" on="1"/>
        <pt x="210" y="0" on="1"/>
        <pt x="75" y="0" on="1"/>
      </contour>
      <contour>
        <pt x="628" y="577" on="1"/>
        <pt x="763" y="577" on="1"/>
        <pt x="763" y="344" on="1"/>
        <pt x="865" y="344" on="1"/>
        <pt x="1031" y="577" on="1"/>
        <pt x="1182" y="577" on="1"/>
        <pt x="996" y="324" on="1"/>
        <pt x="955" y="304" on="1"/>
        <pt x="955" y="297" on="1"/>
        <pt x="998" y="276" on="1"/>
        <pt x="1198" y="0" on="1"/>
        <pt x="1046" y="0" on="1"/>
        <pt x="875" y="239" on="1"/>
        <pt x="763" y="239" on="1"/>
        <pt x="763" y="0" on="1"/>
        <pt x="628" y="0" on="1"/>
      </contour>
    </TTGlyph>
    <TTGlyph name="F_L.sc" xMin="75" yMin="0" xMax="1051" yMax="577">
      <contour>
        <pt x="628" y="577" on="1"/>
        <pt x="763" y="577" on="1"/>
        <pt x="763" y="105" on="1"/>
        <pt x="1051" y="105" on="1"/>
        <pt x="1051" y="0" on="1"/>
        <pt x="628" y="0" on="1"/>
      </contour>
      <contour>
        <pt x="75" y="577" on="1"/>
        <pt x="536" y="577" on="1"/>
        <pt x="536" y="472" on="1"/>
        <pt x="210" y="472" on="1"/>
        <pt x="210" y="323" on="1"/>
        <pt x="504" y="323" on="1"/>
        <pt x="504" y="226" on="1"/>
        <pt x="210" y="226" on="1"/>
        <pt x="210" y="0" on="1"/>
        <pt x="75" y="0" on="1"/>
      </contour>
    </TTGlyph>
    <TTGlyph name="F_T.sc" xMin="75" yMin="0" xMax="1087" yMax="577">
      <contour>
        <pt x="755" y="472" on="1"/>
        <pt x="558" y="472" on="1"/>
        <pt x="558" y="577" on="1"/>
        <pt x="1087" y="577" on="1"/>
        <pt x="1087" y="472" on="1"/>
        <pt x="890" y="472" on="1"/>
        <pt x="890" y="0" on="1"/>
        <pt x="755" y="0" on="1"/>
      </contour>
      <contour>
        <pt x="75" y="577" on="1"/>
        <pt x="536" y="577" on="1"/>
        <pt x="536" y="472" on="1"/>
        <pt x="210" y="472" on="1"/>
        <pt x="210" y="323" on="1"/>
        <pt x="504" y="323" on="1"/>
        <pt x="504" y="226" on="1"/>
        <pt x="210" y="226" on="1"/>
        <pt x="210" y="0" on="1"/>
        <pt x="75" y="0" on="1"/>
      </contour>
    </TTGlyph>
    <TTGlyph name="G" xMin="43" yMin="-11" xMax="631" yMax="751">
      <contour>
        <pt x="406" y="-11" on="1"/>
        <pt x="222" y="-11" on="0"/>
        <pt x="43" y="177" on="0"/>
        <pt x="43" y="369" on="1"/>
        <pt x="43" y="751" on="0"/>
        <pt x="420" y="751" on="1"/>
        <pt x="468" y="751" on="0"/>
        <pt x="577" y="739" on="0"/>
        <pt x="623" y="727" on="1"/>
        <pt x="623" y="612" on="1"/>
        <pt x="560" y="624" on="0"/>
        <pt x="469" y="634" on="0"/>
        <pt x="431" y="634" on="1"/>
        <pt x="364" y="634" on="0"/>
        <pt x="272" y="605" on="0"/>
        <pt x="215" y="542" on="0"/>
        <pt x="189" y="441" on="0"/>
        <pt x="189" y="369" on="1"/>
        <pt x="189" y="298" on="0"/>
        <pt x="213" y="198" on="0"/>
        <pt x="265" y="135" on="0"/>
        <pt x="350" y="106" on="0"/>
        <pt x="410" y="106" on="1"/>
        <pt x="428" y="106" on="0"/>
        <pt x="476" y="109" on="0"/>
        <pt x="500" y="112" on="1"/>
        <pt x="500" y="376" on="1"/>
        <pt x="631" y="376" on="1"/>
        <pt x="631" y="23" on="1"/>
        <pt x="575" y="8" on="0"/>
        <pt x="452" y="-11" on="0"/>
      </contour>
    </TTGlyph>
    <TTGlyph name="G.sc" xMin="43" yMin="-10" xMax="574" yMax="587">
      <contour>
        <pt x="369" y="-10" on="1"/>
        <pt x="203" y="-9" on="0"/>
        <pt x="43" y="137" on="0"/>
        <pt x="43" y="288" on="1"/>
        <pt x="43" y="587" on="0"/>
        <pt x="381" y="587" on="1"/>
        <pt x="426" y="587" on="0"/>
        <pt x="524" y="577" on="0"/>
        <pt x="566" y="568" on="1"/>
        <pt x="566" y="461" on="1"/>
        <pt x="508" y="469" on="0"/>
        <pt x="425" y="477" on="0"/>
        <pt x="392" y="477" on="1"/>
        <pt x="332" y="477" on="0"/>
        <pt x="251" y="457" on="0"/>
        <pt x="202" y="413" on="0"/>
        <pt x="182" y="340" on="0"/>
        <pt x="182" y="288" on="1"/>
        <pt x="182" y="236" on="0"/>
        <pt x="201" y="165" on="0"/>
        <pt x="246" y="121" on="0"/>
        <pt x="319" y="102" on="0"/>
        <pt x="373" y="102" on="1"/>
        <pt x="378" y="102" on="0"/>
        <pt x="399" y="103" on="0"/>
        <pt x="421" y="104" on="0"/>
        <pt x="443" y="106" on="0"/>
        <pt x="449" y="108" on="1"/>
        <pt x="449" y="293" on="1"/>
        <pt x="574" y="293" on="1"/>
        <pt x="574" y="20" on="1"/>
        <pt x="548" y="13" on="0"/>
        <pt x="494" y="2" on="0"/>
        <pt x="440" y="-6" on="0"/>
        <pt x="390" y="-10" on="0"/>
      </contour>
    </TTGlyph>
    <TTGlyph name="Gacute" xMin="43" yMin="-11" xMax="631" yMax="969">
      <contour>
        <pt x="312" y="809" on="1"/>
        <pt x="381" y="969" on="1"/>
        <pt x="525" y="969" on="1"/>
        <pt x="415" y="801" on="1"/>
      </contour>
      <contour>
        <pt x="406" y="-11" on="1"/>
        <pt x="222" y="-11" on="0"/>
        <pt x="43" y="177" on="0"/>
        <pt x="43" y="369" on="1"/>
        <pt x="43" y="751" on="0"/>
        <pt x="420" y="751" on="1"/>
        <pt x="468" y="751" on="0"/>
        <pt x="577" y="739" on="0"/>
        <pt x="623" y="727" on="1"/>
        <pt x="623" y="612" on="1"/>
        <pt x="560" y="624" on="0"/>
        <pt x="469" y="634" on="0"/>
        <pt x="431" y="634" on="1"/>
        <pt x="364" y="634" on="0"/>
        <pt x="272" y="605" on="0"/>
        <pt x="215" y="542" on="0"/>
        <pt x="189" y="441" on="0"/>
        <pt x="189" y="369" on="1"/>
        <pt x="189" y="298" on="0"/>
        <pt x="213" y="198" on="0"/>
        <pt x="265" y="135" on="0"/>
        <pt x="350" y="106" on="0"/>
        <pt x="410" y="106" on="1"/>
        <pt x="428" y="106" on="0"/>
        <pt x="476" y="109" on="0"/>
        <pt x="500" y="112" on="1"/>
        <pt x="500" y="376" on="1"/>
        <pt x="631" y="376" on="1"/>
        <pt x="631" y="23" on="1"/>
        <pt x="575" y="8" on="0"/>
        <pt x="452" y="-11" on="0"/>
      </contour>
    </TTGlyph>
    <TTGlyph name="Gacute.sc" xMin="43" yMin="-10" xMax="574" yMax="766">
      <contour>
        <pt x="369" y="-10" on="1"/>
        <pt x="204" y="-9" on="0"/>
        <pt x="43" y="136" on="0"/>
        <pt x="43" y="288" on="1"/>
        <pt x="43" y="587" on="0"/>
        <pt x="381" y="587" on="1"/>
        <pt x="426" y="587" on="0"/>
        <pt x="525" y="577" on="0"/>
        <pt x="566" y="568" on="1"/>
        <pt x="566" y="459" on="1"/>
        <pt x="509" y="468" on="0"/>
        <pt x="425" y="477" on="0"/>
        <pt x="392" y="477" on="1"/>
        <pt x="333" y="477" on="0"/>
        <pt x="253" y="458" on="0"/>
        <pt x="203" y="414" on="0"/>
        <pt x="182" y="341" on="0"/>
        <pt x="182" y="288" on="1"/>
        <pt x="182" y="235" on="0"/>
        <pt x="202" y="164" on="0"/>
        <pt x="247" y="121" on="0"/>
        <pt x="320" y="102" on="0"/>
        <pt x="373" y="102" on="1"/>
        <pt x="378" y="102" on="0"/>
        <pt x="399" y="103" on="0"/>
        <pt x="421" y="104" on="0"/>
        <pt x="443" y="106" on="0"/>
        <pt x="449" y="108" on="1"/>
        <pt x="449" y="293" on="1"/>
        <pt x="574" y="293" on="1"/>
        <pt x="574" y="20" on="1"/>
        <pt x="549" y="14" on="0"/>
        <pt x="495" y="3" on="0"/>
        <pt x="441" y="-5" on="0"/>
        <pt x="390" y="-10" on="0"/>
      </contour>
      <contour>
        <pt x="281" y="633" on="1"/>
        <pt x="341" y="766" on="1"/>
        <pt x="477" y="766" on="1"/>
        <pt x="378" y="626" on="1"/>
      </contour>
    </TTGlyph>
    <TTGlyph name="Gbreve" xMin="43" yMin="-11" xMax="631" yMax="976">
      <contour>
        <pt x="377" y="810" on="1"/>
        <pt x="323" y="810" on="0"/>
        <pt x="246" y="835" on="0"/>
        <pt x="196" y="879" on="0"/>
        <pt x="173" y="940" on="0"/>
        <pt x="173" y="976" on="1"/>
        <pt x="269" y="976" on="1"/>
        <pt x="269" y="930" on="0"/>
        <pt x="319" y="882" on="0"/>
        <pt x="377" y="882" on="1"/>
        <pt x="435" y="882" on="0"/>
        <pt x="485" y="930" on="0"/>
        <pt x="485" y="976" on="1"/>
        <pt x="581" y="976" on="1"/>
        <pt x="581" y="902" on="0"/>
        <pt x="484" y="810" on="0"/>
      </contour>
      <contour>
        <pt x="406" y="-11" on="1"/>
        <pt x="222" y="-11" on="0"/>
        <pt x="43" y="177" on="0"/>
        <pt x="43" y="369" on="1"/>
        <pt x="43" y="751" on="0"/>
        <pt x="420" y="751" on="1"/>
        <pt x="468" y="751" on="0"/>
        <pt x="577" y="739" on="0"/>
        <pt x="623" y="727" on="1"/>
        <pt x="623" y="612" on="1"/>
        <pt x="560" y="624" on="0"/>
        <pt x="469" y="634" on="0"/>
        <pt x="431" y="634" on="1"/>
        <pt x="364" y="634" on="0"/>
        <pt x="272" y="605" on="0"/>
        <pt x="215" y="542" on="0"/>
        <pt x="189" y="441" on="0"/>
        <pt x="189" y="369" on="1"/>
        <pt x="189" y="298" on="0"/>
        <pt x="213" y="198" on="0"/>
        <pt x="265" y="135" on="0"/>
        <pt x="350" y="106" on="0"/>
        <pt x="410" y="106" on="1"/>
        <pt x="428" y="106" on="0"/>
        <pt x="476" y="109" on="0"/>
        <pt x="500" y="112" on="1"/>
        <pt x="500" y="376" on="1"/>
        <pt x="631" y="376" on="1"/>
        <pt x="631" y="23" on="1"/>
        <pt x="575" y="8" on="0"/>
        <pt x="452" y="-11" on="0"/>
      </contour>
    </TTGlyph>
    <TTGlyph name="Gbreve.sc" xMin="43" yMin="-10" xMax="574" yMax="769">
      <contour>
        <pt x="369" y="-10" on="1"/>
        <pt x="204" y="-9" on="0"/>
        <pt x="43" y="136" on="0"/>
        <pt x="43" y="288" on="1"/>
        <pt x="43" y="587" on="0"/>
        <pt x="381" y="587" on="1"/>
        <pt x="426" y="587" on="0"/>
        <pt x="525" y="577" on="0"/>
        <pt x="566" y="568" on="1"/>
        <pt x="566" y="459" on="1"/>
        <pt x="509" y="468" on="0"/>
        <pt x="425" y="477" on="0"/>
        <pt x="392" y="477" on="1"/>
        <pt x="333" y="477" on="0"/>
        <pt x="253" y="458" on="0"/>
        <pt x="203" y="414" on="0"/>
        <pt x="182" y="341" on="0"/>
        <pt x="182" y="288" on="1"/>
        <pt x="182" y="235" on="0"/>
        <pt x="202" y="164" on="0"/>
        <pt x="247" y="121" on="0"/>
        <pt x="320" y="102" on="0"/>
        <pt x="373" y="102" on="1"/>
        <pt x="378" y="102" on="0"/>
        <pt x="399" y="103" on="0"/>
        <pt x="421" y="104" on="0"/>
        <pt x="443" y="106" on="0"/>
        <pt x="449" y="108" on="1"/>
        <pt x="449" y="293" on="1"/>
        <pt x="574" y="293" on="1"/>
        <pt x="574" y="20" on="1"/>
        <pt x="549" y="14" on="0"/>
        <pt x="495" y="3" on="0"/>
        <pt x="441" y="-5" on="0"/>
        <pt x="390" y="-10" on="0"/>
      </contour>
      <contour>
        <pt x="343" y="631" on="1"/>
        <pt x="293" y="631" on="0"/>
        <pt x="223" y="652" on="0"/>
        <pt x="178" y="689" on="0"/>
        <pt x="157" y="739" on="0"/>
        <pt x="157" y="769" on="1"/>
        <pt x="247" y="769" on="1"/>
        <pt x="247" y="733" on="0"/>
        <pt x="291" y="696" on="0"/>
        <pt x="343" y="696" on="1"/>
        <pt x="395" y="696" on="0"/>
        <pt x="438" y="733" on="0"/>
        <pt x="438" y="769" on="1"/>
        <pt x="528" y="769" on="1"/>
        <pt x="528" y="739" on="0"/>
        <pt x="508" y="688" on="0"/>
        <pt x="463" y="652" on="0"/>
        <pt x="393" y="631" on="0"/>
      </contour>
    </TTGlyph>
    <TTGlyph name="Gcircumflex" xMin="43" yMin="-11" xMax="631" yMax="979">
      <contour>
        <pt x="406" y="-11" on="1"/>
        <pt x="222" y="-11" on="0"/>
        <pt x="43" y="177" on="0"/>
        <pt x="43" y="369" on="1"/>
        <pt x="43" y="751" on="0"/>
        <pt x="420" y="751" on="1"/>
        <pt x="468" y="751" on="0"/>
        <pt x="577" y="739" on="0"/>
        <pt x="623" y="727" on="1"/>
        <pt x="623" y="612" on="1"/>
        <pt x="560" y="624" on="0"/>
        <pt x="469" y="634" on="0"/>
        <pt x="431" y="634" on="1"/>
        <pt x="364" y="634" on="0"/>
        <pt x="272" y="605" on="0"/>
        <pt x="215" y="542" on="0"/>
        <pt x="189" y="441" on="0"/>
        <pt x="189" y="369" on="1"/>
        <pt x="189" y="298" on="0"/>
        <pt x="213" y="198" on="0"/>
        <pt x="265" y="135" on="0"/>
        <pt x="350" y="106" on="0"/>
        <pt x="410" y="106" on="1"/>
        <pt x="428" y="106" on="0"/>
        <pt x="476" y="109" on="0"/>
        <pt x="500" y="112" on="1"/>
        <pt x="500" y="376" on="1"/>
        <pt x="631" y="376" on="1"/>
        <pt x="631" y="23" on="1"/>
        <pt x="575" y="8" on="0"/>
        <pt x="452" y="-11" on="0"/>
      </contour>
      <contour>
        <pt x="184" y="903" on="1"/>
        <pt x="369" y="979" on="1"/>
        <pt x="556" y="903" on="1"/>
        <pt x="556" y="805" on="1"/>
        <pt x="370" y="881" on="1"/>
        <pt x="184" y="805" on="1"/>
      </contour>
    </TTGlyph>
    <TTGlyph name="Gcircumflex.sc" xMin="43" yMin="-10" xMax="574" yMax="776">
      <contour>
        <pt x="369" y="-10" on="1"/>
        <pt x="204" y="-9" on="0"/>
        <pt x="43" y="136" on="0"/>
        <pt x="43" y="288" on="1"/>
        <pt x="43" y="587" on="0"/>
        <pt x="381" y="587" on="1"/>
        <pt x="426" y="587" on="0"/>
        <pt x="525" y="577" on="0"/>
        <pt x="566" y="568" on="1"/>
        <pt x="566" y="459" on="1"/>
        <pt x="509" y="468" on="0"/>
        <pt x="425" y="477" on="0"/>
        <pt x="392" y="477" on="1"/>
        <pt x="333" y="477" on="0"/>
        <pt x="253" y="458" on="0"/>
        <pt x="203" y="414" on="0"/>
        <pt x="182" y="341" on="0"/>
        <pt x="182" y="288" on="1"/>
        <pt x="182" y="235" on="0"/>
        <pt x="202" y="164" on="0"/>
        <pt x="247" y="121" on="0"/>
        <pt x="320" y="102" on="0"/>
        <pt x="373" y="102" on="1"/>
        <pt x="378" y="102" on="0"/>
        <pt x="399" y="103" on="0"/>
        <pt x="421" y="104" on="0"/>
        <pt x="443" y="106" on="0"/>
        <pt x="449" y="108" on="1"/>
        <pt x="449" y="293" on="1"/>
        <pt x="574" y="293" on="1"/>
        <pt x="574" y="20" on="1"/>
        <pt x="549" y="14" on="0"/>
        <pt x="495" y="3" on="0"/>
        <pt x="441" y="-5" on="0"/>
        <pt x="390" y="-10" on="0"/>
      </contour>
      <contour>
        <pt x="166" y="715" on="1"/>
        <pt x="334" y="776" on="1"/>
        <pt x="505" y="715" on="1"/>
        <pt x="505" y="625" on="1"/>
        <pt x="335" y="685" on="1"/>
        <pt x="166" y="625" on="1"/>
      </contour>
    </TTGlyph>
    <TTGlyph name="Gcommaaccent" xMin="43" yMin="-220" xMax="631" yMax="751">
      <contour>
        <pt x="308" y="-70" on="1"/>
        <pt x="452" y="-70" on="1"/>
        <pt x="371" y="-220" on="1"/>
        <pt x="264" y="-220" on="1"/>
      </contour>
      <contour>
        <pt x="406" y="-11" on="1"/>
        <pt x="222" y="-11" on="0"/>
        <pt x="43" y="177" on="0"/>
        <pt x="43" y="369" on="1"/>
        <pt x="43" y="751" on="0"/>
        <pt x="420" y="751" on="1"/>
        <pt x="468" y="751" on="0"/>
        <pt x="577" y="739" on="0"/>
        <pt x="623" y="727" on="1"/>
        <pt x="623" y="612" on="1"/>
        <pt x="560" y="624" on="0"/>
        <pt x="469" y="634" on="0"/>
        <pt x="431" y="634" on="1"/>
        <pt x="364" y="634" on="0"/>
        <pt x="272" y="605" on="0"/>
        <pt x="215" y="542" on="0"/>
        <pt x="189" y="441" on="0"/>
        <pt x="189" y="369" on="1"/>
        <pt x="189" y="298" on="0"/>
        <pt x="213" y="198" on="0"/>
        <pt x="265" y="135" on="0"/>
        <pt x="350" y="106" on="0"/>
        <pt x="410" y="106" on="1"/>
        <pt x="428" y="106" on="0"/>
        <pt x="476" y="109" on="0"/>
        <pt x="500" y="112" on="1"/>
        <pt x="500" y="376" on="1"/>
        <pt x="631" y="376" on="1"/>
        <pt x="631" y="23" on="1"/>
        <pt x="575" y="8" on="0"/>
        <pt x="452" y="-11" on="0"/>
      </contour>
    </TTGlyph>
    <TTGlyph name="Gcommaaccent.sc" xMin="43" yMin="-172" xMax="574" yMax="587">
      <contour>
        <pt x="369" y="-10" on="1"/>
        <pt x="204" y="-9" on="0"/>
        <pt x="43" y="136" on="0"/>
        <pt x="43" y="288" on="1"/>
        <pt x="43" y="587" on="0"/>
        <pt x="381" y="587" on="1"/>
        <pt x="426" y="587" on="0"/>
        <pt x="525" y="577" on="0"/>
        <pt x="566" y="568" on="1"/>
        <pt x="566" y="459" on="1"/>
        <pt x="509" y="468" on="0"/>
        <pt x="425" y="477" on="0"/>
        <pt x="392" y="477" on="1"/>
        <pt x="333" y="477" on="0"/>
        <pt x="253" y="458" on="0"/>
        <pt x="203" y="414" on="0"/>
        <pt x="182" y="341" on="0"/>
        <pt x="182" y="288" on="1"/>
        <pt x="182" y="235" on="0"/>
        <pt x="202" y="164" on="0"/>
        <pt x="247" y="121" on="0"/>
        <pt x="320" y="102" on="0"/>
        <pt x="373" y="102" on="1"/>
        <pt x="378" y="102" on="0"/>
        <pt x="399" y="103" on="0"/>
        <pt x="421" y="104" on="0"/>
        <pt x="443" y="106" on="0"/>
        <pt x="449" y="108" on="1"/>
        <pt x="449" y="293" on="1"/>
        <pt x="574" y="293" on="1"/>
        <pt x="574" y="20" on="1"/>
        <pt x="549" y="14" on="0"/>
        <pt x="495" y="3" on="0"/>
        <pt x="441" y="-5" on="0"/>
        <pt x="390" y="-10" on="0"/>
      </contour>
      <contour>
        <pt x="275" y="-55" on="1"/>
        <pt x="412" y="-55" on="1"/>
        <pt x="339" y="-172" on="1"/>
        <pt x="237" y="-172" on="1"/>
      </contour>
    </TTGlyph>
    <TTGlyph name="Gdotaccent" xMin="43" yMin="-11" xMax="631" yMax="962">
      <contour>
        <pt x="379" y="806" on="1"/>
        <pt x="337" y="806" on="0"/>
        <pt x="299" y="842" on="0"/>
        <pt x="299" y="884" on="1"/>
        <pt x="299" y="926" on="0"/>
        <pt x="337" y="962" on="0"/>
        <pt x="379" y="962" on="1"/>
        <pt x="421" y="962" on="0"/>
        <pt x="459" y="925" on="0"/>
        <pt x="459" y="884" on="1"/>
        <pt x="459" y="844" on="0"/>
        <pt x="421" y="806" on="0"/>
      </contour>
      <contour>
        <pt x="406" y="-11" on="1"/>
        <pt x="222" y="-11" on="0"/>
        <pt x="43" y="177" on="0"/>
        <pt x="43" y="369" on="1"/>
        <pt x="43" y="751" on="0"/>
        <pt x="420" y="751" on="1"/>
        <pt x="468" y="751" on="0"/>
        <pt x="577" y="739" on="0"/>
        <pt x="623" y="727" on="1"/>
        <pt x="623" y="612" on="1"/>
        <pt x="560" y="624" on="0"/>
        <pt x="469" y="634" on="0"/>
        <pt x="431" y="634" on="1"/>
        <pt x="364" y="634" on="0"/>
        <pt x="272" y="605" on="0"/>
        <pt x="215" y="542" on="0"/>
        <pt x="189" y="441" on="0"/>
        <pt x="189" y="369" on="1"/>
        <pt x="189" y="298" on="0"/>
        <pt x="213" y="198" on="0"/>
        <pt x="265" y="135" on="0"/>
        <pt x="350" y="106" on="0"/>
        <pt x="410" y="106" on="1"/>
        <pt x="428" y="106" on="0"/>
        <pt x="476" y="109" on="0"/>
        <pt x="500" y="112" on="1"/>
        <pt x="500" y="376" on="1"/>
        <pt x="631" y="376" on="1"/>
        <pt x="631" y="23" on="1"/>
        <pt x="575" y="8" on="0"/>
        <pt x="452" y="-11" on="0"/>
      </contour>
    </TTGlyph>
    <TTGlyph name="Gdotaccent.sc" xMin="43" yMin="-10" xMax="574" yMax="769">
      <contour>
        <pt x="369" y="-10" on="1"/>
        <pt x="204" y="-9" on="0"/>
        <pt x="43" y="136" on="0"/>
        <pt x="43" y="288" on="1"/>
        <pt x="43" y="587" on="0"/>
        <pt x="381" y="587" on="1"/>
        <pt x="426" y="587" on="0"/>
        <pt x="525" y="577" on="0"/>
        <pt x="566" y="568" on="1"/>
        <pt x="566" y="459" on="1"/>
        <pt x="509" y="468" on="0"/>
        <pt x="425" y="477" on="0"/>
        <pt x="392" y="477" on="1"/>
        <pt x="333" y="477" on="0"/>
        <pt x="253" y="458" on="0"/>
        <pt x="203" y="414" on="0"/>
        <pt x="182" y="341" on="0"/>
        <pt x="182" y="288" on="1"/>
        <pt x="182" y="235" on="0"/>
        <pt x="202" y="164" on="0"/>
        <pt x="247" y="121" on="0"/>
        <pt x="320" y="102" on="0"/>
        <pt x="373" y="102" on="1"/>
        <pt x="378" y="102" on="0"/>
        <pt x="399" y="103" on="0"/>
        <pt x="421" y="104" on="0"/>
        <pt x="443" y="106" on="0"/>
        <pt x="449" y="108" on="1"/>
        <pt x="449" y="293" on="1"/>
        <pt x="574" y="293" on="1"/>
        <pt x="574" y="20" on="1"/>
        <pt x="549" y="14" on="0"/>
        <pt x="495" y="3" on="0"/>
        <pt x="441" y="-5" on="0"/>
        <pt x="390" y="-10" on="0"/>
      </contour>
      <contour>
        <pt x="345" y="626" on="1"/>
        <pt x="306" y="626" on="0"/>
        <pt x="270" y="660" on="0"/>
        <pt x="270" y="698" on="1"/>
        <pt x="270" y="735" on="0"/>
        <pt x="306" y="769" on="0"/>
        <pt x="345" y="769" on="1"/>
        <pt x="385" y="769" on="0"/>
        <pt x="420" y="734" on="0"/>
        <pt x="420" y="698" on="1"/>
        <pt x="420" y="661" on="0"/>
        <pt x="385" y="626" on="0"/>
      </contour>
    </TTGlyph>
    <TTGlyph name="H" xMin="78" yMin="0" xMax="719" yMax="740">
      <contour>
        <pt x="78" y="740" on="1"/>
        <pt x="220" y="740" on="1"/>
        <pt x="220" y="435" on="1"/>
        <pt x="578" y="435" on="1"/>
        <pt x="578" y="740" on="1"/>
        <pt x="719" y="740" on="1"/>
        <pt x="719" y="0" on="1"/>
        <pt x="578" y="0" on="1"/>
        <pt x="578" y="323" on="1"/>
        <pt x="220" y="323" on="1"/>
        <pt x="220" y="0" on="1"/>
        <pt x="78" y="0" on="1"/>
      </contour>
    </TTGlyph>
    <TTGlyph name="H.sc" xMin="75" yMin="0" xMax="655" yMax="577">
      <contour>
        <pt x="75" y="577" on="1"/>
        <pt x="210" y="577" on="1"/>
        <pt x="210" y="348" on="1"/>
        <pt x="520" y="348" on="1"/>
        <pt x="520" y="577" on="1"/>
        <pt x="655" y="577" on="1"/>
        <pt x="655" y="0" on="1"/>
        <pt x="520" y="0" on="1"/>
        <pt x="520" y="244" on="1"/>
        <pt x="210" y="244" on="1"/>
        <pt x="210" y="0" on="1"/>
        <pt x="75" y="0" on="1"/>
      </contour>
    </TTGlyph>
    <TTGlyph name="Hbar" xMin="6" yMin="0" xMax="810" yMax="740">
      <contour>
        <pt x="6" y="611" on="1"/>
        <pt x="86" y="611" on="1"/>
        <pt x="86" y="740" on="1"/>
        <pt x="228" y="740" on="1"/>
        <pt x="228" y="611" on="1"/>
        <pt x="586" y="611" on="1"/>
        <pt x="586" y="740" on="1"/>
        <pt x="727" y="740" on="1"/>
        <pt x="727" y="611" on="1"/>
        <pt x="810" y="611" on="1"/>
        <pt x="810" y="541" on="1"/>
        <pt x="727" y="541" on="1"/>
        <pt x="727" y="0" on="1"/>
        <pt x="586" y="0" on="1"/>
        <pt x="586" y="323" on="1"/>
        <pt x="228" y="323" on="1"/>
        <pt x="228" y="0" on="1"/>
        <pt x="86" y="0" on="1"/>
        <pt x="86" y="541" on="1"/>
        <pt x="6" y="541" on="1"/>
      </contour>
      <contour>
        <pt x="586" y="435" on="1"/>
        <pt x="586" y="541" on="1"/>
        <pt x="228" y="541" on="1"/>
        <pt x="228" y="435" on="1"/>
      </contour>
    </TTGlyph>
    <TTGlyph name="Hbar.sc" xMin="13" yMin="0" xMax="733" yMax="577">
      <contour>
        <pt x="13" y="484" on="1"/>
        <pt x="81" y="484" on="1"/>
        <pt x="81" y="577" on="1"/>
        <pt x="216" y="577" on="1"/>
        <pt x="216" y="484" on="1"/>
        <pt x="527" y="484" on="1"/>
        <pt x="527" y="577" on="1"/>
        <pt x="661" y="577" on="1"/>
        <pt x="661" y="484" on="1"/>
        <pt x="733" y="484" on="1"/>
        <pt x="733" y="420" on="1"/>
        <pt x="661" y="420" on="1"/>
        <pt x="661" y="0" on="1"/>
        <pt x="527" y="0" on="1"/>
        <pt x="527" y="235" on="1"/>
        <pt x="216" y="235" on="1"/>
        <pt x="216" y="0" on="1"/>
        <pt x="81" y="0" on="1"/>
        <pt x="81" y="420" on="1"/>
        <pt x="13" y="420" on="1"/>
      </contour>
      <contour>
        <pt x="527" y="340" on="1"/>
        <pt x="527" y="420" on="1"/>
        <pt x="216" y="420" on="1"/>
        <pt x="216" y="340" on="1"/>
      </contour>
    </TTGlyph>
    <TTGlyph name="Hcircumflex" xMin="78" yMin="0" xMax="719" yMax="979">
      <contour>
        <pt x="78" y="740" on="1"/>
        <pt x="220" y="740" on="1"/>
        <pt x="220" y="435" on="1"/>
        <pt x="578" y="435" on="1"/>
        <pt x="578" y="740" on="1"/>
        <pt x="719" y="740" on="1"/>
        <pt x="719" y="0" on="1"/>
        <pt x="578" y="0" on="1"/>
        <pt x="578" y="323" on="1"/>
        <pt x="220" y="323" on="1"/>
        <pt x="220" y="0" on="1"/>
        <pt x="78" y="0" on="1"/>
      </contour>
      <contour>
        <pt x="210" y="903" on="1"/>
        <pt x="395" y="979" on="1"/>
        <pt x="582" y="903" on="1"/>
        <pt x="582" y="805" on="1"/>
        <pt x="396" y="881" on="1"/>
        <pt x="210" y="805" on="1"/>
      </contour>
    </TTGlyph>
    <TTGlyph name="Hcircumflex.sc" xMin="75" yMin="0" xMax="655" yMax="776">
      <contour>
        <pt x="75" y="577" on="1"/>
        <pt x="210" y="577" on="1"/>
        <pt x="210" y="348" on="1"/>
        <pt x="520" y="348" on="1"/>
        <pt x="520" y="577" on="1"/>
        <pt x="655" y="577" on="1"/>
        <pt x="655" y="0" on="1"/>
        <pt x="520" y="0" on="1"/>
        <pt x="520" y="244" on="1"/>
        <pt x="210" y="244" on="1"/>
        <pt x="210" y="0" on="1"/>
        <pt x="75" y="0" on="1"/>
      </contour>
      <contour>
        <pt x="193" y="715" on="1"/>
        <pt x="361" y="776" on="1"/>
        <pt x="532" y="715" on="1"/>
        <pt x="532" y="625" on="1"/>
        <pt x="363" y="685" on="1"/>
        <pt x="193" y="625" on="1"/>
      </contour>
    </TTGlyph>
    <TTGlyph name="Hdotbelow" xMin="78" yMin="-197" xMax="719" yMax="740">
      <contour>
        <pt x="78" y="740" on="1"/>
        <pt x="220" y="740" on="1"/>
        <pt x="220" y="435" on="1"/>
        <pt x="578" y="435" on="1"/>
        <pt x="578" y="740" on="1"/>
        <pt x="719" y="740" on="1"/>
        <pt x="719" y="0" on="1"/>
        <pt x="578" y="0" on="1"/>
        <pt x="578" y="323" on="1"/>
        <pt x="220" y="323" on="1"/>
        <pt x="220" y="0" on="1"/>
        <pt x="78" y="0" on="1"/>
      </contour>
      <contour>
        <pt x="402" y="-197" on="1"/>
        <pt x="367" y="-197" on="0"/>
        <pt x="336" y="-167" on="0"/>
        <pt x="336" y="-133" on="1"/>
        <pt x="336" y="-99" on="0"/>
        <pt x="367" y="-69" on="0"/>
        <pt x="402" y="-69" on="1"/>
        <pt x="437" y="-69" on="0"/>
        <pt x="468" y="-100" on="0"/>
        <pt x="468" y="-133" on="1"/>
        <pt x="468" y="-167" on="0"/>
        <pt x="437" y="-197" on="0"/>
      </contour>
    </TTGlyph>
    <TTGlyph name="Hdotbelow.sc" xMin="75" yMin="-160" xMax="655" yMax="577">
      <contour>
        <pt x="75" y="577" on="1"/>
        <pt x="210" y="577" on="1"/>
        <pt x="210" y="348" on="1"/>
        <pt x="520" y="348" on="1"/>
        <pt x="520" y="577" on="1"/>
        <pt x="655" y="577" on="1"/>
        <pt x="655" y="0" on="1"/>
        <pt x="520" y="0" on="1"/>
        <pt x="520" y="244" on="1"/>
        <pt x="210" y="244" on="1"/>
        <pt x="210" y="0" on="1"/>
        <pt x="75" y="0" on="1"/>
      </contour>
      <contour>
        <pt x="367" y="-160" on="1"/>
        <pt x="335" y="-160" on="0"/>
        <pt x="307" y="-134" on="0"/>
        <pt x="307" y="-105" on="1"/>
        <pt x="307" y="-75" on="0"/>
        <pt x="335" y="-48" on="0"/>
        <pt x="367" y="-48" on="1"/>
        <pt x="399" y="-48" on="0"/>
        <pt x="428" y="-76" on="0"/>
        <pt x="428" y="-105" on="1"/>
        <pt x="428" y="-134" on="0"/>
        <pt x="399" y="-160" on="0"/>
      </contour>
    </TTGlyph>
    <TTGlyph name="I" xMin="78" yMin="0" xMax="220" yMax="740">
      <contour>
        <pt x="78" y="740" on="1"/>
        <pt x="220" y="740" on="1"/>
        <pt x="220" y="0" on="1"/>
        <pt x="78" y="0" on="1"/>
      </contour>
    </TTGlyph>
    <TTGlyph name="I.sc" xMin="75" yMin="0" xMax="210" yMax="577">
      <contour>
        <pt x="75" y="577" on="1"/>
        <pt x="210" y="577" on="1"/>
        <pt x="210" y="0" on="1"/>
        <pt x="75" y="0" on="1"/>
      </contour>
    </TTGlyph>
    <TTGlyph name="IJ" xMin="78" yMin="-200" xMax="520" yMax="740">
      <contour>
        <pt x="78" y="740" on="1"/>
        <pt x="220" y="740" on="1"/>
        <pt x="220" y="0" on="1"/>
        <pt x="78" y="0" on="1"/>
      </contour>
      <contour>
        <pt x="301" y="-159" on="1"/>
        <pt x="323" y="-110" on="0"/>
        <pt x="353" y="-26" on="0"/>
        <pt x="371" y="55" on="0"/>
        <pt x="378" y="141" on="0"/>
        <pt x="378" y="192" on="1"/>
        <pt x="378" y="740" on="1"/>
        <pt x="520" y="740" on="1"/>
        <pt x="520" y="182" on="1"/>
        <pt x="520" y="131" on="0"/>
        <pt x="507" y="41" on="0"/>
        <pt x="477" y="-49" on="0"/>
        <pt x="429" y="-144" on="0"/>
        <pt x="393" y="-200" on="1"/>
      </contour>
    </TTGlyph>
    <TTGlyph name="Iacute" xMin="78" yMin="0" xMax="306" yMax="969">
      <contour>
        <pt x="78" y="740" on="1"/>
        <pt x="220" y="740" on="1"/>
        <pt x="220" y="0" on="1"/>
        <pt x="78" y="0" on="1"/>
      </contour>
      <contour>
        <pt x="93" y="809" on="1"/>
        <pt x="162" y="969" on="1"/>
        <pt x="306" y="969" on="1"/>
        <pt x="196" y="801" on="1"/>
      </contour>
    </TTGlyph>
    <TTGlyph name="Iacute.sc" xMin="75" yMin="0" xMax="286" yMax="766">
      <contour>
        <pt x="75" y="577" on="1"/>
        <pt x="210" y="577" on="1"/>
        <pt x="210" y="0" on="1"/>
        <pt x="75" y="0" on="1"/>
      </contour>
      <contour>
        <pt x="89" y="633" on="1"/>
        <pt x="150" y="766" on="1"/>
        <pt x="286" y="766" on="1"/>
        <pt x="187" y="626" on="1"/>
      </contour>
    </TTGlyph>
    <TTGlyph name="Ibreve" xMin="-55" yMin="0" xMax="353" yMax="976">
      <contour>
        <pt x="78" y="740" on="1"/>
        <pt x="220" y="740" on="1"/>
        <pt x="220" y="0" on="1"/>
        <pt x="78" y="0" on="1"/>
      </contour>
      <contour>
        <pt x="149" y="810" on="1"/>
        <pt x="95" y="810" on="0"/>
        <pt x="18" y="835" on="0"/>
        <pt x="-32" y="879" on="0"/>
        <pt x="-55" y="940" on="0"/>
        <pt x="-55" y="976" on="1"/>
        <pt x="41" y="976" on="1"/>
        <pt x="41" y="930" on="0"/>
        <pt x="91" y="882" on="0"/>
        <pt x="149" y="882" on="1"/>
        <pt x="207" y="882" on="0"/>
        <pt x="257" y="930" on="0"/>
        <pt x="257" y="976" on="1"/>
        <pt x="353" y="976" on="1"/>
        <pt x="353" y="902" on="0"/>
        <pt x="256" y="810" on="0"/>
      </contour>
    </TTGlyph>
    <TTGlyph name="Ibreve.sc" xMin="-43" yMin="0" xMax="327" yMax="769">
      <contour>
        <pt x="75" y="577" on="1"/>
        <pt x="210" y="577" on="1"/>
        <pt x="210" y="0" on="1"/>
        <pt x="75" y="0" on="1"/>
      </contour>
      <contour>
        <pt x="142" y="631" on="1"/>
        <pt x="92" y="631" on="0"/>
        <pt x="22" y="652" on="0"/>
        <pt x="-23" y="689" on="0"/>
        <pt x="-43" y="739" on="0"/>
        <pt x="-43" y="769" on="1"/>
        <pt x="47" y="769" on="1"/>
        <pt x="47" y="733" on="0"/>
        <pt x="90" y="696" on="0"/>
        <pt x="142" y="696" on="1"/>
        <pt x="194" y="696" on="0"/>
        <pt x="238" y="733" on="0"/>
        <pt x="238" y="769" on="1"/>
        <pt x="327" y="769" on="1"/>
        <pt x="327" y="739" on="0"/>
        <pt x="307" y="688" on="0"/>
        <pt x="262" y="652" on="0"/>
        <pt x="192" y="631" on="0"/>
      </contour>
    </TTGlyph>
    <TTGlyph name="Icircumflex" xMin="-35" yMin="0" xMax="337" yMax="979">
      <contour>
        <pt x="78" y="740" on="1"/>
        <pt x="220" y="740" on="1"/>
        <pt x="220" y="0" on="1"/>
        <pt x="78" y="0" on="1"/>
      </contour>
      <contour>
        <pt x="-35" y="903" on="1"/>
        <pt x="150" y="979" on="1"/>
        <pt x="337" y="903" on="1"/>
        <pt x="337" y="805" on="1"/>
        <pt x="151" y="881" on="1"/>
        <pt x="-35" y="805" on="1"/>
      </contour>
    </TTGlyph>
    <TTGlyph name="Icircumflex.sc" xMin="-26" yMin="0" xMax="313" yMax="776">
      <contour>
        <pt x="75" y="577" on="1"/>
        <pt x="210" y="577" on="1"/>
        <pt x="210" y="0" on="1"/>
        <pt x="75" y="0" on="1"/>
      </contour>
      <contour>
        <pt x="-26" y="715" on="1"/>
        <pt x="143" y="776" on="1"/>
        <pt x="313" y="715" on="1"/>
        <pt x="313" y="625" on="1"/>
        <pt x="144" y="685" on="1"/>
        <pt x="-26" y="625" on="1"/>
      </contour>
    </TTGlyph>
    <TTGlyph name="Idblgrave" xMin="-94" yMin="0" xMax="302" yMax="965">
      <contour>
        <pt x="78" y="740" on="1"/>
        <pt x="220" y="740" on="1"/>
        <pt x="220" y="0" on="1"/>
        <pt x="78" y="0" on="1"/>
      </contour>
      <contour>
        <pt x="17" y="798" on="1"/>
        <pt x="-94" y="965" on="1"/>
        <pt x="43" y="965" on="1"/>
        <pt x="112" y="810" on="1"/>
      </contour>
      <contour>
        <pt x="207" y="798" on="1"/>
        <pt x="96" y="965" on="1"/>
        <pt x="232" y="965" on="1"/>
        <pt x="302" y="810" on="1"/>
      </contour>
    </TTGlyph>
    <TTGlyph name="Idblgrave.sc" xMin="-80" yMin="0" xMax="285" yMax="765">
      <contour>
        <pt x="75" y="577" on="1"/>
        <pt x="210" y="577" on="1"/>
        <pt x="210" y="0" on="1"/>
        <pt x="75" y="0" on="1"/>
      </contour>
      <contour>
        <pt x="19" y="624" on="1"/>
        <pt x="-80" y="765" on="1"/>
        <pt x="50" y="765" on="1"/>
        <pt x="110" y="633" on="1"/>
      </contour>
      <contour>
        <pt x="194" y="624" on="1"/>
        <pt x="94" y="765" on="1"/>
        <pt x="224" y="765" on="1"/>
        <pt x="285" y="633" on="1"/>
      </contour>
    </TTGlyph>
    <TTGlyph name="Idieresis" xMin="-68" yMin="0" xMax="370" yMax="966">
      <contour>
        <pt x="78" y="740" on="1"/>
        <pt x="220" y="740" on="1"/>
        <pt x="220" y="0" on="1"/>
        <pt x="78" y="0" on="1"/>
      </contour>
      <contour>
        <pt x="12" y="810" on="1"/>
        <pt x="-30" y="810" on="0"/>
        <pt x="-68" y="846" on="0"/>
        <pt x="-68" y="888" on="1"/>
        <pt x="-68" y="929" on="0"/>
        <pt x="-30" y="966" on="0"/>
        <pt x="12" y="966" on="1"/>
        <pt x="54" y="966" on="0"/>
        <pt x="92" y="928" on="0"/>
        <pt x="92" y="888" on="1"/>
        <pt x="92" y="847" on="0"/>
        <pt x="54" y="810" on="0"/>
      </contour>
      <contour>
        <pt x="290" y="810" on="1"/>
        <pt x="248" y="810" on="0"/>
        <pt x="211" y="846" on="0"/>
        <pt x="211" y="888" on="1"/>
        <pt x="211" y="929" on="0"/>
        <pt x="248" y="966" on="0"/>
        <pt x="290" y="966" on="1"/>
        <pt x="332" y="966" on="0"/>
        <pt x="370" y="928" on="0"/>
        <pt x="370" y="888" on="1"/>
        <pt x="370" y="847" on="0"/>
        <pt x="332" y="810" on="0"/>
      </contour>
    </TTGlyph>
    <TTGlyph name="Idieresis.sc" xMin="-56" yMin="0" xMax="345" yMax="771">
      <contour>
        <pt x="75" y="577" on="1"/>
        <pt x="210" y="577" on="1"/>
        <pt x="210" y="0" on="1"/>
        <pt x="75" y="0" on="1"/>
      </contour>
      <contour>
        <pt x="19" y="628" on="1"/>
        <pt x="-20" y="628" on="0"/>
        <pt x="-56" y="661" on="0"/>
        <pt x="-56" y="699" on="1"/>
        <pt x="-56" y="737" on="0"/>
        <pt x="-20" y="771" on="0"/>
        <pt x="19" y="771" on="1"/>
        <pt x="59" y="771" on="0"/>
        <pt x="94" y="736" on="0"/>
        <pt x="94" y="699" on="1"/>
        <pt x="94" y="662" on="0"/>
        <pt x="59" y="628" on="0"/>
      </contour>
      <contour>
        <pt x="270" y="628" on="1"/>
        <pt x="231" y="628" on="0"/>
        <pt x="195" y="661" on="0"/>
        <pt x="195" y="699" on="1"/>
        <pt x="195" y="737" on="0"/>
        <pt x="231" y="771" on="0"/>
        <pt x="270" y="771" on="1"/>
        <pt x="309" y="771" on="0"/>
        <pt x="345" y="736" on="0"/>
        <pt x="345" y="699" on="1"/>
        <pt x="345" y="662" on="0"/>
        <pt x="309" y="628" on="0"/>
      </contour>
    </TTGlyph>
    <TTGlyph name="Idotaccent" xMin="70" yMin="0" xMax="230" yMax="962">
      <contour>
        <pt x="78" y="740" on="1"/>
        <pt x="220" y="740" on="1"/>
        <pt x="220" y="0" on="1"/>
        <pt x="78" y="0" on="1"/>
      </contour>
      <contour>
        <pt x="150" y="806" on="1"/>
        <pt x="108" y="806" on="0"/>
        <pt x="70" y="842" on="0"/>
        <pt x="70" y="884" on="1"/>
        <pt x="70" y="926" on="0"/>
        <pt x="108" y="962" on="0"/>
        <pt x="150" y="962" on="1"/>
        <pt x="192" y="962" on="0"/>
        <pt x="230" y="925" on="0"/>
        <pt x="230" y="884" on="1"/>
        <pt x="230" y="844" on="0"/>
        <pt x="192" y="806" on="0"/>
      </contour>
    </TTGlyph>
    <TTGlyph name="Idotaccent.sc" xMin="68" yMin="0" xMax="218" yMax="769">
      <contour>
        <pt x="75" y="577" on="1"/>
        <pt x="210" y="577" on="1"/>
        <pt x="210" y="0" on="1"/>
        <pt x="75" y="0" on="1"/>
      </contour>
      <contour>
        <pt x="143" y="626" on="1"/>
        <pt x="104" y="626" on="0"/>
        <pt x="68" y="660" on="0"/>
        <pt x="68" y="698" on="1"/>
        <pt x="68" y="735" on="0"/>
        <pt x="104" y="769" on="0"/>
        <pt x="143" y="769" on="1"/>
        <pt x="183" y="769" on="0"/>
        <pt x="218" y="734" on="0"/>
        <pt x="218" y="698" on="1"/>
        <pt x="218" y="661" on="0"/>
        <pt x="183" y="626" on="0"/>
      </contour>
    </TTGlyph>
    <TTGlyph name="Idotbelow" xMin="78" yMin="-197" xMax="220" yMax="740">
      <contour>
        <pt x="78" y="740" on="1"/>
        <pt x="220" y="740" on="1"/>
        <pt x="220" y="0" on="1"/>
        <pt x="78" y="0" on="1"/>
      </contour>
      <contour>
        <pt x="150" y="-197" on="1"/>
        <pt x="115" y="-197" on="0"/>
        <pt x="84" y="-167" on="0"/>
        <pt x="84" y="-133" on="1"/>
        <pt x="84" y="-99" on="0"/>
        <pt x="115" y="-69" on="0"/>
        <pt x="150" y="-69" on="1"/>
        <pt x="185" y="-69" on="0"/>
        <pt x="216" y="-100" on="0"/>
        <pt x="216" y="-133" on="1"/>
        <pt x="216" y="-167" on="0"/>
        <pt x="185" y="-197" on="0"/>
      </contour>
    </TTGlyph>
    <TTGlyph name="Idotbelow.sc" xMin="75" yMin="-160" xMax="210" yMax="577">
      <contour>
        <pt x="75" y="577" on="1"/>
        <pt x="210" y="577" on="1"/>
        <pt x="210" y="0" on="1"/>
        <pt x="75" y="0" on="1"/>
      </contour>
      <contour>
        <pt x="143" y="-160" on="1"/>
        <pt x="111" y="-160" on="0"/>
        <pt x="83" y="-134" on="0"/>
        <pt x="83" y="-105" on="1"/>
        <pt x="83" y="-75" on="0"/>
        <pt x="111" y="-48" on="0"/>
        <pt x="143" y="-48" on="1"/>
        <pt x="175" y="-48" on="0"/>
        <pt x="204" y="-76" on="0"/>
        <pt x="204" y="-105" on="1"/>
        <pt x="204" y="-134" on="0"/>
        <pt x="175" y="-160" on="0"/>
      </contour>
    </TTGlyph>
    <TTGlyph name="Igrave" xMin="-3" yMin="0" xMax="220" yMax="969">
      <contour>
        <pt x="78" y="740" on="1"/>
        <pt x="220" y="740" on="1"/>
        <pt x="220" y="0" on="1"/>
        <pt x="78" y="0" on="1"/>
      </contour>
      <contour>
        <pt x="108" y="801" on="1"/>
        <pt x="-3" y="969" on="1"/>
        <pt x="141" y="969" on="1"/>
        <pt x="210" y="813" on="1"/>
      </contour>
    </TTGlyph>
    <TTGlyph name="Igrave.sc" xMin="4" yMin="0" xMax="210" yMax="766">
      <contour>
        <pt x="75" y="577" on="1"/>
        <pt x="210" y="577" on="1"/>
        <pt x="210" y="0" on="1"/>
        <pt x="75" y="0" on="1"/>
      </contour>
      <contour>
        <pt x="104" y="626" on="1"/>
        <pt x="4" y="766" on="1"/>
        <pt x="141" y="766" on="1"/>
        <pt x="201" y="635" on="1"/>
      </contour>
    </TTGlyph>
    <TTGlyph name="Iinvertedbreve" xMin="-52" yMin="0" xMax="355" yMax="983">
      <contour>
        <pt x="78" y="740" on="1"/>
        <pt x="220" y="740" on="1"/>
        <pt x="220" y="0" on="1"/>
        <pt x="78" y="0" on="1"/>
      </contour>
      <contour>
        <pt x="259" y="817" on="1"/>
        <pt x="259" y="863" on="0"/>
        <pt x="209" y="912" on="0"/>
        <pt x="151" y="912" on="1"/>
        <pt x="94" y="912" on="0"/>
        <pt x="43" y="863" on="0"/>
        <pt x="43" y="817" on="1"/>
        <pt x="-52" y="817" on="1"/>
        <pt x="-52" y="853" on="0"/>
        <pt x="-29" y="914" on="0"/>
        <pt x="20" y="958" on="0"/>
        <pt x="97" y="983" on="0"/>
        <pt x="151" y="983" on="1"/>
        <pt x="205" y="983" on="0"/>
        <pt x="282" y="959" on="0"/>
        <pt x="332" y="915" on="0"/>
        <pt x="355" y="854" on="0"/>
        <pt x="355" y="817" on="1"/>
      </contour>
    </TTGlyph>
    <TTGlyph name="Iinvertedbreve.sc" xMin="-41" yMin="0" xMax="330" yMax="775">
      <contour>
        <pt x="75" y="577" on="1"/>
        <pt x="210" y="577" on="1"/>
        <pt x="210" y="0" on="1"/>
        <pt x="75" y="0" on="1"/>
      </contour>
      <contour>
        <pt x="240" y="638" on="1"/>
        <pt x="240" y="673" on="0"/>
        <pt x="197" y="710" on="0"/>
        <pt x="145" y="710" on="1"/>
        <pt x="92" y="710" on="0"/>
        <pt x="49" y="673" on="0"/>
        <pt x="49" y="638" on="1"/>
        <pt x="-41" y="638" on="1"/>
        <pt x="-41" y="667" on="0"/>
        <pt x="-21" y="717" on="0"/>
        <pt x="24" y="754" on="0"/>
        <pt x="95" y="775" on="0"/>
        <pt x="145" y="775" on="1"/>
        <pt x="244" y="775" on="0"/>
        <pt x="330" y="698" on="0"/>
        <pt x="330" y="638" on="1"/>
      </contour>
    </TTGlyph>
    <TTGlyph name="Imacron" xMin="-31" yMin="0" xMax="335" yMax="937">
      <contour>
        <pt x="78" y="740" on="1"/>
        <pt x="220" y="740" on="1"/>
        <pt x="220" y="0" on="1"/>
        <pt x="78" y="0" on="1"/>
      </contour>
      <contour>
        <pt x="-31" y="937" on="1"/>
        <pt x="335" y="937" on="1"/>
        <pt x="335" y="841" on="1"/>
        <pt x="-31" y="841" on="1"/>
      </contour>
    </TTGlyph>
    <TTGlyph name="Imacron.sc" xMin="-22" yMin="0" xMax="313" yMax="744">
      <contour>
        <pt x="75" y="577" on="1"/>
        <pt x="210" y="577" on="1"/>
        <pt x="210" y="0" on="1"/>
        <pt x="75" y="0" on="1"/>
      </contour>
      <contour>
        <pt x="-22" y="744" on="1"/>
        <pt x="313" y="744" on="1"/>
        <pt x="313" y="656" on="1"/>
        <pt x="-22" y="656" on="1"/>
      </contour>
    </TTGlyph>
    <TTGlyph name="Iogonek" xMin="9" yMin="-220" xMax="220" yMax="740">
      <contour>
        <pt x="78" y="740" on="1"/>
        <pt x="220" y="740" on="1"/>
        <pt x="220" y="-13" on="1"/>
        <pt x="155" y="-41" on="0"/>
        <pt x="101" y="-90" on="0"/>
        <pt x="101" y="-114" on="1"/>
        <pt x="101" y="-143" on="0"/>
        <pt x="140" y="-143" on="1"/>
        <pt x="154" y="-143" on="0"/>
        <pt x="200" y="-135" on="0"/>
        <pt x="220" y="-130" on="1"/>
        <pt x="220" y="-208" on="1"/>
        <pt x="184" y="-220" on="0"/>
        <pt x="138" y="-220" on="1"/>
        <pt x="75" y="-220" on="0"/>
        <pt x="9" y="-175" on="0"/>
        <pt x="9" y="-130" on="1"/>
        <pt x="9" y="-59" on="0"/>
        <pt x="106" y="0" on="1"/>
        <pt x="78" y="0" on="1"/>
      </contour>
    </TTGlyph>
    <TTGlyph name="Iogonek.sc" xMin="16" yMin="-172" xMax="210" yMax="577">
      <contour>
        <pt x="75" y="577" on="1"/>
        <pt x="210" y="577" on="1"/>
        <pt x="210" y="-8" on="1"/>
        <pt x="147" y="-31" on="0"/>
        <pt x="104" y="-64" on="0"/>
        <pt x="104" y="-81" on="1"/>
        <pt x="104" y="-100" on="0"/>
        <pt x="136" y="-100" on="1"/>
        <pt x="150" y="-100" on="0"/>
        <pt x="195" y="-94" on="0"/>
        <pt x="210" y="-90" on="1"/>
        <pt x="210" y="-162" on="1"/>
        <pt x="192" y="-167" on="0"/>
        <pt x="154" y="-172" on="0"/>
        <pt x="134" y="-172" on="1"/>
        <pt x="77" y="-172" on="0"/>
        <pt x="16" y="-134" on="0"/>
        <pt x="16" y="-99" on="1"/>
        <pt x="16" y="-43" on="0"/>
        <pt x="97" y="0" on="1"/>
        <pt x="75" y="0" on="1"/>
      </contour>
    </TTGlyph>
    <TTGlyph name="Itilde" xMin="-67" yMin="0" xMax="381" yMax="961">
      <contour>
        <pt x="78" y="740" on="1"/>
        <pt x="220" y="740" on="1"/>
        <pt x="220" y="0" on="1"/>
        <pt x="78" y="0" on="1"/>
      </contour>
      <contour>
        <pt x="-67" y="858" on="1"/>
        <pt x="-35" y="909" on="0"/>
        <pt x="42" y="961" on="0"/>
        <pt x="79" y="961" on="1"/>
        <pt x="104" y="961" on="0"/>
        <pt x="150" y="948" on="0"/>
        <pt x="195" y="933" on="0"/>
        <pt x="241" y="921" on="0"/>
        <pt x="265" y="921" on="1"/>
        <pt x="288" y="921" on="0"/>
        <pt x="332" y="938" on="0"/>
        <pt x="358" y="959" on="1"/>
        <pt x="381" y="929" on="1"/>
        <pt x="351" y="878" on="0"/>
        <pt x="271" y="826" on="0"/>
        <pt x="233" y="826" on="1"/>
        <pt x="209" y="826" on="0"/>
        <pt x="163" y="838" on="0"/>
        <pt x="118" y="853" on="0"/>
        <pt x="72" y="865" on="0"/>
        <pt x="49" y="865" on="1"/>
        <pt x="26" y="865" on="0"/>
        <pt x="-18" y="849" on="0"/>
        <pt x="-43" y="829" on="1"/>
      </contour>
    </TTGlyph>
    <TTGlyph name="Itilde.sc" xMin="-55" yMin="0" xMax="352" yMax="762">
      <contour>
        <pt x="75" y="577" on="1"/>
        <pt x="210" y="577" on="1"/>
        <pt x="210" y="0" on="1"/>
        <pt x="75" y="0" on="1"/>
      </contour>
      <contour>
        <pt x="-55" y="670" on="1"/>
        <pt x="-26" y="716" on="0"/>
        <pt x="44" y="762" on="0"/>
        <pt x="78" y="762" on="1"/>
        <pt x="100" y="762" on="0"/>
        <pt x="143" y="753" on="0"/>
        <pt x="184" y="741" on="0"/>
        <pt x="226" y="732" on="0"/>
        <pt x="248" y="732" on="1"/>
        <pt x="268" y="732" on="0"/>
        <pt x="308" y="744" on="0"/>
        <pt x="331" y="761" on="1"/>
        <pt x="352" y="736" on="1"/>
        <pt x="323" y="690" on="0"/>
        <pt x="251" y="644" on="0"/>
        <pt x="217" y="644" on="1"/>
        <pt x="195" y="644" on="0"/>
        <pt x="153" y="653" on="0"/>
        <pt x="111" y="665" on="0"/>
        <pt x="70" y="674" on="0"/>
        <pt x="49" y="674" on="1"/>
        <pt x="28" y="674" on="0"/>
        <pt x="-11" y="662" on="0"/>
        <pt x="-34" y="645" on="1"/>
      </contour>
    </TTGlyph>
    <TTGlyph name="J" xMin="3" yMin="-200" xMax="222" yMax="740">
      <contour>
        <pt x="3" y="-159" on="1"/>
        <pt x="25" y="-110" on="0"/>
        <pt x="55" y="-26" on="0"/>
        <pt x="73" y="55" on="0"/>
        <pt x="80" y="141" on="0"/>
        <pt x="80" y="192" on="1"/>
        <pt x="80" y="740" on="1"/>
        <pt x="222" y="740" on="1"/>
        <pt x="222" y="182" on="1"/>
        <pt x="222" y="131" on="0"/>
        <pt x="209" y="41" on="0"/>
        <pt x="179" y="-49" on="0"/>
        <pt x="131" y="-144" on="0"/>
        <pt x="95" y="-200" on="1"/>
      </contour>
    </TTGlyph>
    <TTGlyph name="J.sc" xMin="9" yMin="-162" xMax="212" yMax="577">
      <contour>
        <pt x="9" y="-123" on="1"/>
        <pt x="28" y="-84" on="0"/>
        <pt x="55" y="-19" on="0"/>
        <pt x="70" y="45" on="0"/>
        <pt x="77" y="112" on="0"/>
        <pt x="77" y="152" on="1"/>
        <pt x="77" y="577" on="1"/>
        <pt x="212" y="577" on="1"/>
        <pt x="212" y="142" on="1"/>
        <pt x="212" y="102" on="0"/>
        <pt x="200" y="31" on="0"/>
        <pt x="173" y="-41" on="0"/>
        <pt x="129" y="-117" on="0"/>
        <pt x="97" y="-162" on="1"/>
      </contour>
    </TTGlyph>
    <TTGlyph name="Jcircumflex" xMin="-33" yMin="-200" xMax="339" yMax="979">
      <contour>
        <pt x="3" y="-159" on="1"/>
        <pt x="25" y="-110" on="0"/>
        <pt x="55" y="-26" on="0"/>
        <pt x="73" y="55" on="0"/>
        <pt x="80" y="141" on="0"/>
        <pt x="80" y="192" on="1"/>
        <pt x="80" y="740" on="1"/>
        <pt x="222" y="740" on="1"/>
        <pt x="222" y="182" on="1"/>
        <pt x="222" y="131" on="0"/>
        <pt x="209" y="41" on="0"/>
        <pt x="179" y="-49" on="0"/>
        <pt x="131" y="-144" on="0"/>
        <pt x="95" y="-200" on="1"/>
      </contour>
      <contour>
        <pt x="-33" y="903" on="1"/>
        <pt x="152" y="979" on="1"/>
        <pt x="339" y="903" on="1"/>
        <pt x="339" y="805" on="1"/>
        <pt x="153" y="881" on="1"/>
        <pt x="-33" y="805" on="1"/>
      </contour>
    </TTGlyph>
    <TTGlyph name="Jcircumflex.sc" xMin="-24" yMin="-162" xMax="315" yMax="776">
      <contour>
        <pt x="9" y="-123" on="1"/>
        <pt x="28" y="-84" on="0"/>
        <pt x="54" y="-19" on="0"/>
        <pt x="69" y="45" on="0"/>
        <pt x="76" y="112" on="0"/>
        <pt x="76" y="152" on="1"/>
        <pt x="76" y="577" on="1"/>
        <pt x="211" y="577" on="1"/>
        <pt x="211" y="142" on="1"/>
        <pt x="211" y="102" on="0"/>
        <pt x="200" y="31" on="0"/>
        <pt x="173" y="-41" on="0"/>
        <pt x="129" y="-117" on="0"/>
        <pt x="96" y="-162" on="1"/>
      </contour>
      <contour>
        <pt x="-24" y="715" on="1"/>
        <pt x="144" y="776" on="1"/>
        <pt x="315" y="715" on="1"/>
        <pt x="315" y="625" on="1"/>
        <pt x="146" y="685" on="1"/>
        <pt x="-24" y="625" on="1"/>
      </contour>
    </TTGlyph>
    <TTGlyph name="K" xMin="78" yMin="0" xMax="708" yMax="740">
      <contour>
        <pt x="78" y="740" on="1"/>
        <pt x="220" y="740" on="1"/>
        <pt x="220" y="431" on="1"/>
        <pt x="339" y="431" on="1"/>
        <pt x="532" y="740" on="1"/>
        <pt x="691" y="740" on="1"/>
        <pt x="477" y="413" on="1"/>
        <pt x="435" y="387" on="1"/>
        <pt x="435" y="380" on="1"/>
        <pt x="480" y="354" on="1"/>
        <pt x="708" y="0" on="1"/>
        <pt x="550" y="0" on="1"/>
        <pt x="349" y="319" on="1"/>
        <pt x="220" y="319" on="1"/>
        <pt x="220" y="0" on="1"/>
        <pt x="78" y="0" on="1"/>
      </contour>
    </TTGlyph>
    <TTGlyph name="K.sc" xMin="75" yMin="0" xMax="645" yMax="577">
      <contour>
        <pt x="75" y="577" on="1"/>
        <pt x="210" y="577" on="1"/>
        <pt x="210" y="344" on="1"/>
        <pt x="312" y="344" on="1"/>
        <pt x="478" y="577" on="1"/>
        <pt x="629" y="577" on="1"/>
        <pt x="443" y="324" on="1"/>
        <pt x="402" y="304" on="1"/>
        <pt x="402" y="297" on="1"/>
        <pt x="445" y="276" on="1"/>
        <pt x="645" y="0" on="1"/>
        <pt x="493" y="0" on="1"/>
        <pt x="322" y="239" on="1"/>
        <pt x="210" y="239" on="1"/>
        <pt x="210" y="0" on="1"/>
        <pt x="75" y="0" on="1"/>
      </contour>
    </TTGlyph>
    <TTGlyph name="Kcommaaccent" xMin="78" yMin="-220" xMax="708" yMax="740">
      <contour>
        <pt x="279" y="-70" on="1"/>
        <pt x="423" y="-70" on="1"/>
        <pt x="342" y="-220" on="1"/>
        <pt x="235" y="-220" on="1"/>
      </contour>
      <contour>
        <pt x="78" y="740" on="1"/>
        <pt x="220" y="740" on="1"/>
        <pt x="220" y="431" on="1"/>
        <pt x="339" y="431" on="1"/>
        <pt x="532" y="740" on="1"/>
        <pt x="691" y="740" on="1"/>
        <pt x="477" y="413" on="1"/>
        <pt x="435" y="387" on="1"/>
        <pt x="435" y="380" on="1"/>
        <pt x="480" y="354" on="1"/>
        <pt x="708" y="0" on="1"/>
        <pt x="550" y="0" on="1"/>
        <pt x="349" y="319" on="1"/>
        <pt x="220" y="319" on="1"/>
        <pt x="220" y="0" on="1"/>
        <pt x="78" y="0" on="1"/>
      </contour>
    </TTGlyph>
    <TTGlyph name="Kcommaaccent.sc" xMin="75" yMin="-172" xMax="645" yMax="577">
      <contour>
        <pt x="75" y="577" on="1"/>
        <pt x="210" y="577" on="1"/>
        <pt x="210" y="344" on="1"/>
        <pt x="312" y="344" on="1"/>
        <pt x="478" y="577" on="1"/>
        <pt x="629" y="577" on="1"/>
        <pt x="443" y="324" on="1"/>
        <pt x="402" y="304" on="1"/>
        <pt x="402" y="297" on="1"/>
        <pt x="445" y="276" on="1"/>
        <pt x="645" y="0" on="1"/>
        <pt x="493" y="0" on="1"/>
        <pt x="322" y="239" on="1"/>
        <pt x="210" y="239" on="1"/>
        <pt x="210" y="0" on="1"/>
        <pt x="75" y="0" on="1"/>
      </contour>
      <contour>
        <pt x="271" y="-55" on="1"/>
        <pt x="408" y="-55" on="1"/>
        <pt x="335" y="-172" on="1"/>
        <pt x="233" y="-172" on="1"/>
      </contour>
    </TTGlyph>
    <TTGlyph name="L" xMin="78" yMin="0" xMax="544" yMax="740">
      <contour>
        <pt x="78" y="740" on="1"/>
        <pt x="220" y="740" on="1"/>
        <pt x="220" y="111" on="1"/>
        <pt x="544" y="111" on="1"/>
        <pt x="544" y="0" on="1"/>
        <pt x="78" y="0" on="1"/>
      </contour>
    </TTGlyph>
    <TTGlyph name="L.sc" xMin="75" yMin="0" xMax="498" yMax="577">
      <contour>
        <pt x="75" y="577" on="1"/>
        <pt x="210" y="577" on="1"/>
        <pt x="210" y="105" on="1"/>
        <pt x="498" y="105" on="1"/>
        <pt x="498" y="0" on="1"/>
        <pt x="75" y="0" on="1"/>
      </contour>
    </TTGlyph>
    <TTGlyph name="Lacute" xMin="78" yMin="0" xMax="544" yMax="969">
      <contour>
        <pt x="99" y="809" on="1"/>
        <pt x="168" y="969" on="1"/>
        <pt x="312" y="969" on="1"/>
        <pt x="202" y="801" on="1"/>
      </contour>
      <contour>
        <pt x="78" y="740" on="1"/>
        <pt x="220" y="740" on="1"/>
        <pt x="220" y="111" on="1"/>
        <pt x="544" y="111" on="1"/>
        <pt x="544" y="0" on="1"/>
        <pt x="78" y="0" on="1"/>
      </contour>
    </TTGlyph>
    <TTGlyph name="Lacute.sc" xMin="75" yMin="0" xMax="499" yMax="766">
      <contour>
        <pt x="75" y="577" on="1"/>
        <pt x="210" y="577" on="1"/>
        <pt x="210" y="105" on="1"/>
        <pt x="499" y="105" on="1"/>
        <pt x="499" y="0" on="1"/>
        <pt x="75" y="0" on="1"/>
      </contour>
      <contour>
        <pt x="95" y="633" on="1"/>
        <pt x="155" y="766" on="1"/>
        <pt x="291" y="766" on="1"/>
        <pt x="192" y="626" on="1"/>
      </contour>
    </TTGlyph>
    <TTGlyph name="Lcaron" xMin="78" yMin="0" xMax="544" yMax="778">
      <contour>
        <pt x="404" y="778" on="1"/>
        <pt x="515" y="778" on="1"/>
        <pt x="477" y="550" on="1"/>
        <pt x="404" y="550" on="1"/>
      </contour>
      <contour>
        <pt x="78" y="740" on="1"/>
        <pt x="220" y="740" on="1"/>
        <pt x="220" y="111" on="1"/>
        <pt x="544" y="111" on="1"/>
        <pt x="544" y="0" on="1"/>
        <pt x="78" y="0" on="1"/>
      </contour>
    </TTGlyph>
    <TTGlyph name="Lcaron.sc" xMin="75" yMin="0" xMax="498" yMax="615">
      <contour>
        <pt x="75" y="577" on="1"/>
        <pt x="210" y="577" on="1"/>
        <pt x="210" y="105" on="1"/>
        <pt x="498" y="105" on="1"/>
        <pt x="498" y="0" on="1"/>
        <pt x="75" y="0" on="1"/>
      </contour>
      <contour>
        <pt x="367" y="615" on="1"/>
        <pt x="472" y="615" on="1"/>
        <pt x="437" y="438" on="1"/>
        <pt x="367" y="438" on="1"/>
      </contour>
    </TTGlyph>
    <TTGlyph name="Lcommaaccent" xMin="78" yMin="-220" xMax="544" yMax="740">
      <contour>
        <pt x="232" y="-70" on="1"/>
        <pt x="376" y="-70" on="1"/>
        <pt x="295" y="-220" on="1"/>
        <pt x="188" y="-220" on="1"/>
      </contour>
      <contour>
        <pt x="78" y="740" on="1"/>
        <pt x="220" y="740" on="1"/>
        <pt x="220" y="111" on="1"/>
        <pt x="544" y="111" on="1"/>
        <pt x="544" y="0" on="1"/>
        <pt x="78" y="0" on="1"/>
      </contour>
    </TTGlyph>
    <TTGlyph name="Lcommaaccent.sc" xMin="75" yMin="-172" xMax="498" yMax="577">
      <contour>
        <pt x="75" y="577" on="1"/>
        <pt x="210" y="577" on="1"/>
        <pt x="210" y="105" on="1"/>
        <pt x="498" y="105" on="1"/>
        <pt x="498" y="0" on="1"/>
        <pt x="75" y="0" on="1"/>
      </contour>
      <contour>
        <pt x="208" y="-55" on="1"/>
        <pt x="345" y="-55" on="1"/>
        <pt x="271" y="-172" on="1"/>
        <pt x="170" y="-172" on="1"/>
      </contour>
    </TTGlyph>
    <TTGlyph name="Ldot" xMin="78" yMin="0" xMax="544" yMax="740">
      <contour>
        <pt x="78" y="740" on="1"/>
        <pt x="220" y="740" on="1"/>
        <pt x="220" y="111" on="1"/>
        <pt x="544" y="111" on="1"/>
        <pt x="544" y="0" on="1"/>
        <pt x="78" y="0" on="1"/>
      </contour>
      <contour>
        <pt x="458" y="306" on="1"/>
        <pt x="416" y="306" on="0"/>
        <pt x="378" y="342" on="0"/>
        <pt x="378" y="384" on="1"/>
        <pt x="378" y="426" on="0"/>
        <pt x="416" y="462" on="0"/>
        <pt x="458" y="462" on="1"/>
        <pt x="500" y="462" on="0"/>
        <pt x="538" y="425" on="0"/>
        <pt x="538" y="384" on="1"/>
        <pt x="538" y="306" on="0"/>
      </contour>
    </TTGlyph>
    <TTGlyph name="Ldot.sc" xMin="75" yMin="0" xMax="498" yMax="577">
      <contour>
        <pt x="75" y="577" on="1"/>
        <pt x="210" y="577" on="1"/>
        <pt x="210" y="105" on="1"/>
        <pt x="498" y="105" on="1"/>
        <pt x="498" y="0" on="1"/>
        <pt x="75" y="0" on="1"/>
      </contour>
      <contour>
        <pt x="421" y="233" on="1"/>
        <pt x="382" y="233" on="0"/>
        <pt x="346" y="266" on="0"/>
        <pt x="346" y="304" on="1"/>
        <pt x="346" y="342" on="0"/>
        <pt x="382" y="376" on="0"/>
        <pt x="421" y="376" on="1"/>
        <pt x="461" y="376" on="0"/>
        <pt x="496" y="341" on="0"/>
        <pt x="496" y="304" on="1"/>
        <pt x="496" y="268" on="0"/>
        <pt x="461" y="233" on="0"/>
      </contour>
    </TTGlyph>
    <TTGlyph name="Lslash" xMin="13" yMin="0" xMax="564" yMax="740">
      <contour>
        <pt x="13" y="332" on="1"/>
        <pt x="98" y="378" on="1"/>
        <pt x="98" y="740" on="1"/>
        <pt x="240" y="740" on="1"/>
        <pt x="240" y="455" on="1"/>
        <pt x="385" y="534" on="1"/>
        <pt x="385" y="428" on="1"/>
        <pt x="240" y="349" on="1"/>
        <pt x="240" y="111" on="1"/>
        <pt x="564" y="111" on="1"/>
        <pt x="564" y="0" on="1"/>
        <pt x="98" y="0" on="1"/>
        <pt x="98" y="271" on="1"/>
        <pt x="13" y="225" on="1"/>
      </contour>
    </TTGlyph>
    <TTGlyph name="Lslash.sc" xMin="18" yMin="0" xMax="515" yMax="577">
      <contour>
        <pt x="18" y="274" on="1"/>
        <pt x="92" y="311" on="1"/>
        <pt x="92" y="577" on="1"/>
        <pt x="226" y="577" on="1"/>
        <pt x="226" y="364" on="1"/>
        <pt x="355" y="427" on="1"/>
        <pt x="355" y="329" on="1"/>
        <pt x="226" y="266" on="1"/>
        <pt x="226" y="105" on="1"/>
        <pt x="515" y="105" on="1"/>
        <pt x="515" y="0" on="1"/>
        <pt x="92" y="0" on="1"/>
        <pt x="92" y="213" on="1"/>
        <pt x="18" y="176" on="1"/>
      </contour>
    </TTGlyph>
    <TTGlyph name="M" xMin="78" yMin="0" xMax="894" yMax="740">
      <contour>
        <pt x="78" y="740" on="1"/>
        <pt x="272" y="740" on="1"/>
        <pt x="430" y="346" on="1"/>
        <pt x="482" y="191" on="1"/>
        <pt x="489" y="191" on="1"/>
        <pt x="542" y="346" on="1"/>
        <pt x="700" y="740" on="1"/>
        <pt x="894" y="740" on="1"/>
        <pt x="894" y="0" on="1"/>
        <pt x="767" y="0" on="1"/>
        <pt x="767" y="576" on="1"/>
        <pt x="759" y="576" on="1"/>
        <pt x="685" y="371" on="1"/>
        <pt x="545" y="30" on="1"/>
        <pt x="426" y="30" on="1"/>
        <pt x="286" y="371" on="1"/>
        <pt x="212" y="576" on="1"/>
        <pt x="205" y="576" on="1"/>
        <pt x="205" y="0" on="1"/>
        <pt x="78" y="0" on="1"/>
      </contour>
    </TTGlyph>
    <TTGlyph name="M.sc" xMin="75" yMin="0" xMax="810" yMax="577">
      <contour>
        <pt x="75" y="577" on="1"/>
        <pt x="252" y="577" on="1"/>
        <pt x="389" y="292" on="1"/>
        <pt x="438" y="176" on="1"/>
        <pt x="446" y="176" on="1"/>
        <pt x="495" y="292" on="1"/>
        <pt x="632" y="577" on="1"/>
        <pt x="810" y="577" on="1"/>
        <pt x="810" y="0" on="1"/>
        <pt x="688" y="0" on="1"/>
        <pt x="688" y="431" on="1"/>
        <pt x="681" y="430" on="1"/>
        <pt x="609" y="263" on="1"/>
        <pt x="497" y="23" on="1"/>
        <pt x="387" y="23" on="1"/>
        <pt x="274" y="263" on="1"/>
        <pt x="203" y="430" on="1"/>
        <pt x="196" y="431" on="1"/>
        <pt x="196" y="0" on="1"/>
        <pt x="75" y="0" on="1"/>
      </contour>
    </TTGlyph>
    <TTGlyph name="N" xMin="78" yMin="0" xMax="723" yMax="740">
      <contour>
        <pt x="78" y="740" on="1"/>
        <pt x="194" y="740" on="1"/>
        <pt x="531" y="297" on="1"/>
        <pt x="590" y="211" on="1"/>
        <pt x="598" y="211" on="1"/>
        <pt x="598" y="740" on="1"/>
        <pt x="723" y="740" on="1"/>
        <pt x="723" y="0" on="1"/>
        <pt x="607" y="0" on="1"/>
        <pt x="273" y="438" on="1"/>
        <pt x="211" y="528" on="1"/>
        <pt x="203" y="528" on="1"/>
        <pt x="203" y="0" on="1"/>
        <pt x="78" y="0" on="1"/>
      </contour>
    </TTGlyph>
    <TTGlyph name="N.sc" xMin="75" yMin="0" xMax="643" yMax="577">
      <contour>
        <pt x="75" y="577" on="1"/>
        <pt x="180" y="577" on="1"/>
        <pt x="460" y="257" on="1"/>
        <pt x="516" y="190" on="1"/>
        <pt x="522" y="190" on="1"/>
        <pt x="522" y="577" on="1"/>
        <pt x="643" y="577" on="1"/>
        <pt x="643" y="0" on="1"/>
        <pt x="537" y="0" on="1"/>
        <pt x="261" y="315" on="1"/>
        <pt x="202" y="387" on="1"/>
        <pt x="195" y="387" on="1"/>
        <pt x="195" y="0" on="1"/>
        <pt x="75" y="0" on="1"/>
      </contour>
    </TTGlyph>
    <TTGlyph name="Nacute" xMin="78" yMin="0" xMax="723" yMax="969">
      <contour>
        <pt x="329" y="809" on="1"/>
        <pt x="398" y="969" on="1"/>
        <pt x="542" y="969" on="1"/>
        <pt x="432" y="801" on="1"/>
      </contour>
      <contour>
        <pt x="78" y="740" on="1"/>
        <pt x="194" y="740" on="1"/>
        <pt x="531" y="297" on="1"/>
        <pt x="590" y="211" on="1"/>
        <pt x="598" y="211" on="1"/>
        <pt x="598" y="740" on="1"/>
        <pt x="723" y="740" on="1"/>
        <pt x="723" y="0" on="1"/>
        <pt x="607" y="0" on="1"/>
        <pt x="273" y="438" on="1"/>
        <pt x="211" y="528" on="1"/>
        <pt x="203" y="528" on="1"/>
        <pt x="203" y="0" on="1"/>
        <pt x="78" y="0" on="1"/>
      </contour>
    </TTGlyph>
    <TTGlyph name="Nacute.sc" xMin="75" yMin="0" xMax="643" yMax="766">
      <contour>
        <pt x="75" y="577" on="1"/>
        <pt x="180" y="577" on="1"/>
        <pt x="460" y="257" on="1"/>
        <pt x="516" y="190" on="1"/>
        <pt x="522" y="190" on="1"/>
        <pt x="522" y="577" on="1"/>
        <pt x="643" y="577" on="1"/>
        <pt x="643" y="0" on="1"/>
        <pt x="537" y="0" on="1"/>
        <pt x="261" y="315" on="1"/>
        <pt x="202" y="387" on="1"/>
        <pt x="195" y="387" on="1"/>
        <pt x="195" y="0" on="1"/>
        <pt x="75" y="0" on="1"/>
      </contour>
      <contour>
        <pt x="292" y="633" on="1"/>
        <pt x="352" y="766" on="1"/>
        <pt x="488" y="766" on="1"/>
        <pt x="389" y="626" on="1"/>
      </contour>
    </TTGlyph>
    <TTGlyph name="Ncaron" xMin="78" yMin="0" xMax="723" yMax="977">
      <contour>
        <pt x="216" y="977" on="1"/>
        <pt x="402" y="901" on="1"/>
        <pt x="588" y="977" on="1"/>
        <pt x="588" y="879" on="1"/>
        <pt x="401" y="803" on="1"/>
        <pt x="216" y="879" on="1"/>
      </contour>
      <contour>
        <pt x="78" y="740" on="1"/>
        <pt x="194" y="740" on="1"/>
        <pt x="531" y="297" on="1"/>
        <pt x="590" y="211" on="1"/>
        <pt x="598" y="211" on="1"/>
        <pt x="598" y="740" on="1"/>
        <pt x="723" y="740" on="1"/>
        <pt x="723" y="0" on="1"/>
        <pt x="607" y="0" on="1"/>
        <pt x="273" y="438" on="1"/>
        <pt x="211" y="528" on="1"/>
        <pt x="203" y="528" on="1"/>
        <pt x="203" y="0" on="1"/>
        <pt x="78" y="0" on="1"/>
      </contour>
    </TTGlyph>
    <TTGlyph name="Ncaron.sc" xMin="75" yMin="0" xMax="643" yMax="775">
      <contour>
        <pt x="75" y="577" on="1"/>
        <pt x="180" y="577" on="1"/>
        <pt x="460" y="257" on="1"/>
        <pt x="516" y="190" on="1"/>
        <pt x="522" y="190" on="1"/>
        <pt x="522" y="577" on="1"/>
        <pt x="643" y="577" on="1"/>
        <pt x="643" y="0" on="1"/>
        <pt x="537" y="0" on="1"/>
        <pt x="261" y="315" on="1"/>
        <pt x="202" y="387" on="1"/>
        <pt x="195" y="387" on="1"/>
        <pt x="195" y="0" on="1"/>
        <pt x="75" y="0" on="1"/>
      </contour>
      <contour>
        <pt x="190" y="685" on="1"/>
        <pt x="190" y="775" on="1"/>
        <pt x="360" y="714" on="1"/>
        <pt x="530" y="775" on="1"/>
        <pt x="530" y="685" on="1"/>
        <pt x="359" y="625" on="1"/>
      </contour>
    </TTGlyph>
    <TTGlyph name="Ncommaaccent" xMin="78" yMin="-220" xMax="723" yMax="740">
      <contour>
        <pt x="341" y="-70" on="1"/>
        <pt x="485" y="-70" on="1"/>
        <pt x="404" y="-220" on="1"/>
        <pt x="297" y="-220" on="1"/>
      </contour>
      <contour>
        <pt x="78" y="740" on="1"/>
        <pt x="194" y="740" on="1"/>
        <pt x="531" y="297" on="1"/>
        <pt x="590" y="211" on="1"/>
        <pt x="598" y="211" on="1"/>
        <pt x="598" y="740" on="1"/>
        <pt x="723" y="740" on="1"/>
        <pt x="723" y="0" on="1"/>
        <pt x="607" y="0" on="1"/>
        <pt x="273" y="438" on="1"/>
        <pt x="211" y="528" on="1"/>
        <pt x="203" y="528" on="1"/>
        <pt x="203" y="0" on="1"/>
        <pt x="78" y="0" on="1"/>
      </contour>
    </TTGlyph>
    <TTGlyph name="Ncommaaccent.sc" xMin="75" yMin="-172" xMax="643" yMax="577">
      <contour>
        <pt x="75" y="577" on="1"/>
        <pt x="180" y="577" on="1"/>
        <pt x="460" y="257" on="1"/>
        <pt x="516" y="190" on="1"/>
        <pt x="522" y="190" on="1"/>
        <pt x="522" y="577" on="1"/>
        <pt x="643" y="577" on="1"/>
        <pt x="643" y="0" on="1"/>
        <pt x="537" y="0" on="1"/>
        <pt x="261" y="315" on="1"/>
        <pt x="202" y="387" on="1"/>
        <pt x="195" y="387" on="1"/>
        <pt x="195" y="0" on="1"/>
        <pt x="75" y="0" on="1"/>
      </contour>
      <contour>
        <pt x="300" y="-55" on="1"/>
        <pt x="437" y="-55" on="1"/>
        <pt x="363" y="-172" on="1"/>
        <pt x="262" y="-172" on="1"/>
      </contour>
    </TTGlyph>
    <TTGlyph name="Ndotaccent" xMin="78" yMin="0" xMax="723" yMax="962">
      <contour>
        <pt x="400" y="806" on="1"/>
        <pt x="358" y="806" on="0"/>
        <pt x="320" y="842" on="0"/>
        <pt x="320" y="884" on="1"/>
        <pt x="320" y="926" on="0"/>
        <pt x="358" y="962" on="0"/>
        <pt x="400" y="962" on="1"/>
        <pt x="442" y="962" on="0"/>
        <pt x="480" y="925" on="0"/>
        <pt x="480" y="884" on="1"/>
        <pt x="480" y="844" on="0"/>
        <pt x="442" y="806" on="0"/>
      </contour>
      <contour>
        <pt x="78" y="740" on="1"/>
        <pt x="194" y="740" on="1"/>
        <pt x="531" y="297" on="1"/>
        <pt x="590" y="211" on="1"/>
        <pt x="598" y="211" on="1"/>
        <pt x="598" y="740" on="1"/>
        <pt x="723" y="740" on="1"/>
        <pt x="723" y="0" on="1"/>
        <pt x="607" y="0" on="1"/>
        <pt x="273" y="438" on="1"/>
        <pt x="211" y="528" on="1"/>
        <pt x="203" y="528" on="1"/>
        <pt x="203" y="0" on="1"/>
        <pt x="78" y="0" on="1"/>
      </contour>
    </TTGlyph>
    <TTGlyph name="Ndotaccent.sc" xMin="75" yMin="0" xMax="643" yMax="769">
      <contour>
        <pt x="75" y="577" on="1"/>
        <pt x="180" y="577" on="1"/>
        <pt x="460" y="257" on="1"/>
        <pt x="516" y="190" on="1"/>
        <pt x="522" y="190" on="1"/>
        <pt x="522" y="577" on="1"/>
        <pt x="643" y="577" on="1"/>
        <pt x="643" y="0" on="1"/>
        <pt x="537" y="0" on="1"/>
        <pt x="261" y="315" on="1"/>
        <pt x="202" y="387" on="1"/>
        <pt x="195" y="387" on="1"/>
        <pt x="195" y="0" on="1"/>
        <pt x="75" y="0" on="1"/>
      </contour>
      <contour>
        <pt x="360" y="626" on="1"/>
        <pt x="320" y="626" on="0"/>
        <pt x="285" y="660" on="0"/>
        <pt x="285" y="698" on="1"/>
        <pt x="285" y="735" on="0"/>
        <pt x="320" y="769" on="0"/>
        <pt x="360" y="769" on="1"/>
        <pt x="399" y="769" on="0"/>
        <pt x="435" y="734" on="0"/>
        <pt x="435" y="698" on="1"/>
        <pt x="435" y="661" on="0"/>
        <pt x="399" y="626" on="0"/>
      </contour>
    </TTGlyph>
</ttFont>
